<svg id="图层_1" data-name="图层 1" xmlns="http://www.w3.org/2000/svg" xmlns:xlink="http://www.w3.org/1999/xlink" viewBox="0 0 35.15 19.23"><defs><style>.cls-1{fill:none;stroke:#211815;stroke-width:1.41px;}.cls-1,.cls-6{stroke-miterlimit:10;}.cls-2{opacity:0.85;}.cls-3{clip-path:url(#clip-path);}.cls-4{fill:#345a41;}.cls-5{fill:#b67868;}.cls-6{fill:#f4ead8;stroke:#f4ebd8;}</style><clipPath id="clip-path"><path class="cls-1" d="M-464.12,85V314.7H59.78V85ZM47.62,305H-452V94.7H47.62Z"/></clipPath></defs><g class="cls-2"><g class="cls-3"><polyline class="cls-4" points="-444.26 -30.85 23.19 479.9 18.47 484.44 -448.99 -26.3"/><polyline class="cls-4" points="-420.39 -53.82 47.07 456.92 42.35 461.47 -425.11 -49.28"/><polyline class="cls-4" points="-396.51 -76.8 70.95 433.95 66.22 438.49 -401.23 -72.25"/><polyline class="cls-4" points="-372.63 -99.78 94.82 410.97 90.1 415.51 -377.35 -95.23"/><polyline class="cls-4" points="-348.75 -122.75 118.7 387.99 113.98 392.54 -353.48 -118.21"/><polyline class="cls-4" points="-324.88 -145.73 142.58 365.01 137.86 369.56 -329.6 -141.19"/><polyline class="cls-4" points="-301 -168.71 166.46 342.04 161.74 346.58 -305.72 -164.16"/><polyline class="cls-4" points="-277.12 -191.68 190.34 319.06 185.61 323.61 -281.84 -187.14"/><polyline class="cls-4" points="-253.24 -214.66 214.21 296.08 209.49 300.63 -257.96 -210.12"/><polyline class="cls-5" points="-456.2 -19.36 11.25 491.39 6.53 495.93 -460.93 -14.81"/><polyline class="cls-5" points="-432.33 -42.33 35.13 468.41 30.41 472.95 -437.05 -37.79"/><polyline class="cls-5" points="-408.45 -65.31 59.01 445.43 54.28 449.98 -413.17 -60.77"/><polyline class="cls-5" points="-384.57 -88.29 82.89 422.46 78.16 427 -389.29 -83.74"/><polyline class="cls-5" points="-360.69 -111.26 106.76 399.48 102.04 404.02 -365.41 -106.72"/><polyline class="cls-5" points="-336.81 -134.24 130.64 376.5 125.92 381.05 -341.54 -129.7"/><polyline class="cls-5" points="-312.94 -157.22 154.52 353.53 149.8 358.07 -317.66 -152.67"/><polyline class="cls-5" points="-289.06 -180.19 178.4 330.55 173.68 335.09 -293.78 -175.65"/><polyline class="cls-5" points="-265.18 -203.17 202.28 307.57 197.55 312.12 -269.9 -198.63"/><polyline class="cls-5" points="-241.3 -226.15 226.15 284.6 221.43 289.14 -246.02 -221.6"/><polyline class="cls-4" points="-229.36 -237.64 238.09 273.11 233.37 277.65 -234.09 -233.09"/></g><path class="cls-1" d="M-464.12,85V314.7H59.78V85ZM47.62,305H-452V94.7H47.62Z"/></g><path class="cls-6" d="M34.65,9.61c0,.83-.44,1.5-1,1.5H6l8.3,4.71a1.81,1.81,0,0,1,.58,1.92h0c-.18.78-.74,1.18-1.23.89L1.46,11.74C.18,11,.18,8.21,1.46,7.49L13.64.59A.62.62,0,0,1,14,.5c.39,0,.77.38.91,1a1.81,1.81,0,0,1-.58,1.92L6,8.11H33.68C34.21,8.11,34.65,8.79,34.65,9.61Z"/></svg>