<svg id="圖層_1" data-name="圖層 1" xmlns="http://www.w3.org/2000/svg" viewBox="0 0 74.6 21.27"><defs><style>.cls-1{fill:#231815;}</style></defs><path class="cls-1" d="M14.29.4V3.27h-11V9H13.63v2.86H3.25V18H14.77v2.86H0V.4Z"/><path class="cls-1" d="M31,.4c4.77,0,7.18,2.1,7.18,6.28S35.81,13,31,13H26.07v7.85H22.82V.4Zm-5,9.75h4.72A5.21,5.21,0,0,0,34,9.35a3.26,3.26,0,0,0,1-2.67,3.1,3.1,0,0,0-1-2.61,5,5,0,0,0-3.13-.8H26.07Z"/><path class="cls-1" d="M57.8,3a14,14,0,0,1,1.83,7.66,14,14,0,0,1-1.83,7.65,6.16,6.16,0,0,1-5.41,3,6.1,6.1,0,0,1-5.42-3,14,14,0,0,1-1.83-7.65A14,14,0,0,1,47,3a6.06,6.06,0,0,1,5.42-3A6.12,6.12,0,0,1,57.8,3ZM49.05,5.56a15.67,15.67,0,0,0-.66,5.08,15.81,15.81,0,0,0,.66,5.07c.64,1.81,1.75,2.73,3.34,2.73s2.66-.92,3.33-2.73a15.81,15.81,0,0,0,.66-5.07,15.67,15.67,0,0,0-.66-5.08c-.67-1.83-1.78-2.72-3.33-2.72S49.69,3.73,49.05,5.56Z"/><path class="cls-1" d="M74.6.4V20.87H71.35V4.44a11.17,11.17,0,0,1-4.53,2.5V3.61a11.51,11.51,0,0,0,2.83-1.2,12.14,12.14,0,0,0,2.5-2Z"/></svg>