<svg id="图层_1" data-name="图层 1" xmlns="http://www.w3.org/2000/svg" xmlns:xlink="http://www.w3.org/1999/xlink" viewBox="0 0 608 148.44"><defs><style>.cls-1{fill:none;}.cls-2{fill:#255c3f;}.cls-3{clip-path:url(#clip-path);}.cls-4,.cls-7{fill:#f6ead5;}.cls-5{opacity:0.53;}.cls-6{fill:#3f93a2;stroke-width:4.94px;}.cls-6,.cls-7{stroke:#255c3f;stroke-miterlimit:10;}.cls-7{stroke-width:0.71px;}</style><clipPath id="clip-path"><rect class="cls-1" x="9.58" width="589.21" height="146.42"/></clipPath></defs><rect class="cls-2" x="6.78" y="-774.83" width="6.63" height="1523.02"/><rect class="cls-2" x="595.47" y="-774.83" width="6.63" height="1523.02"/><g class="cls-3"><path class="cls-4" d="M98.37,53.2l12.92,4.39a46.36,46.36,0,0,0,8.45-4.53l4,4a46.76,46.76,0,0,1-4.84,3.13l5.69,1.91L122,67l-10.62-3.46c-1.17.42-2.39.8-3.66,1.17l2.89,1-.85,1.44H126.3v6H106.14L103.88,77h4.25V74.2h7.5V77h8.63V92.68H115.9l1.49-2.24V83.2h-1.76V95h-7.5V83.2h-1.72v9.48h-7V84.46l-3.66,6.12-5.11-5,7.68-12.37H92.13v-6h9.94l.86-1.35c-2,.42-4.11.7-6.24.93L94,61.88c2.85-.42,5.51-.84,8-1.4l-6.51-2.15Z"/><path class="cls-4" d="M137.77,60.67h4.75v-7.1h6.87v7.1h4.25v6.58h-4.16l5,9.47-2.93,7-2.17-5.18V95h-6.87V81l-2.44,7.19-4.79-4.39,7.23-16.51h-4.75Zm17.58,0h4.34v-7.1h6.92v7.1h4.7v6.58h-4.57l7.37,16.51-5,4.39-2.48-7.51V95h-6.92V80.73l-2.44,7.42-5-4,7.33-16.93h-4.21Z"/><path class="cls-4" d="M194.26,54.51h11.39V95.06h-5.6l1.08-1.82V82.18H200l-.41,12.88h-5.06l0-2.8-4.25,3.31-2.71-3.73q-1.22,1.89-2.71,3.78l-4.43-2.85A35.92,35.92,0,0,0,184.14,87l-3.39-4.71,1.49-16.89H181V58.75h1.86l.4-4.8,6,.37-.5,4.43h5.15c0,10.41-.09,18.9-3.11,26.83l3.84,5.84.18-9.24h-.91V76.44h1l.09-4.43h-.68V66.27h.81l.1-5.46h-.91ZM188,65.38l-1.49,13.76.41.66a61.34,61.34,0,0,0,1.85-14.42Zm12.16,11.06h1V72h-.86Zm.49-15.63-.18,5.46h.68V60.81Zm10.76,34.25V92h1.54c4.11,0,5.37-5,5.37-9.1,0-4.43-1.89-8.91-3-11.57l3.34-16.76h-12V95.06Zm0-27.21V60.9h1.27Zm0,17.41V74.06c1,2.38,2.08,5.55,2.08,7.6,0,.56,0,3.6-2,3.6Z"/><path class="cls-4" d="M238.5,60.67h7.78v-7.1h7.27v7.1h9.31v6.48h-8.72A85.41,85.41,0,0,0,257,77.09l3.75-2.75,3.16,5.46-4.52,3.5a69.61,69.61,0,0,0,4.3,8.77l-6.29,3.36a93.92,93.92,0,0,1-5-11.53v7.75l-12.25,3.5V83l-1.31,1.59-1.63-3.32V95h-6.87V76.39l-1.22,2.38-4.25-5L235.38,53l5.83,2.06-4,7.88V76.62l8.05-9.47H238.5Zm10.31,11.71-1.95,2.38V85.35l5.34-2A94.8,94.8,0,0,1,248.81,72.38Z"/><path class="cls-4" d="M272.12,75c0-2.94,1.22-4.2,4.16-4.2s4.16,1.26,4.16,4.2-1.31,4.2-4.16,4.2S272.12,77.93,272.12,75Z"/><path class="cls-4" d="M291.28,56.93h12.39V53.57h8v3.36h12.43v5.28H291.28ZM299,95V81.15h17.31V92.91L314.79,95h8.72V75.51H291.87V95Zm-3.3-21h23.87V63.7H295.71Zm4.57,18.57h14.78V82.6H300.28ZM303,69.63V68h9.13v1.59ZM306,88.38V86.75h3.39v1.63Z"/><g class="cls-5"><path class="cls-2" d="M306.23,740.08c-4.72,0-9.52,0-14.25-.12l14.08-354.15h0v-.05h0l0-.31-.07.09v-.09l.08-.08h0l.14-.14-.07-.07-.06,0v-.05h0l0,0h0v0h0l0,0,.06,0V385l-.06,0h.06v0l-.07,0,0,0h0v0h0v0h.2l0,.05h0l0,0,.14.07h-.07l-.09,0,0,.06h0l0,0h.1l0,0h-.05l0,0h0l.08.11,0-.13h-.08l0,0,.06,0h0l0,0h0l0-.07h0v0l.06,0-.06,0h.06v0l0,0h.07l.07.09h-.05v0l.15.05.06.07-.2-.1v.06L653.74,656.67a594.24,594.24,0,0,1-63.3,30.21L306.74,385.8l0-.06v0l-.07-.07h0l-.23-.41,0,.19h0l0,.28.18,0,.16.23,63,351.68C348.78,739.25,327.41,740.08,306.23,740.08Zm-.13-354.66.09.31.13-.38-.09-.1Zm.38-.22,0,0,0,0Zm0,0h0Zm0,0Zm-.39-.12Zm0,0h0l0,0h0Zm0,0Zm.35,0Zm-.34-.1,0,0,0,0Zm-91.87,350c-25.76-2.92-51.4-7.12-76.23-12.47L305.54,386.15,65.27,702.76a644.38,644.38,0,0,1-67.4-26.34L305.69,385.74l-.06.23.14-.27.1,0-.26.34Zm232.58-7L306.89,386.15,521,710.8A746.36,746.36,0,0,1,446.81,727.87ZM-62.85,644.06a477.61,477.61,0,0,1-53-37.76l421-220.93.06.08.21-.07.17-.19-.15,0,.22-.11h0l.09-.07-.24.06h0l.29-.07.05-.06.08,0h0l.06,0v0h0l-.08.13h-.06l-.08,0h0l-.21.18.31-.12v0h0l0,.08-.26.12Zm772.53-23.23L307.24,385.45a.83.83,0,0,0,.12-.17l-.5,0-.17-.12h0l.66.13v0l-.51-.12h.21l.4.17.23.05-.16,0L757.26,580A424.19,424.19,0,0,1,709.68,620.83Zm-869.71-57a329.08,329.08,0,0,1-34.51-46.35L304.34,385.39l-522.82,82.85a246.84,246.84,0,0,1-12.76-50.89l536.3-32.14,0,.06-.4.06ZM795.49,535,308.11,385.39,823.43,486.58A294.08,294.08,0,0,1,795.49,535Zm44.85-98.84L307.93,385.33l-.79-.24.41,0,0-.12H845.93A238.58,238.58,0,0,1,840.34,436.12ZM307.18,385.54h0Zm-1.2-.3v0l0,0Zm0,0,0-.05v0Zm0-.1h0V385h0l0,.11.05,0Zm.3,0h0l.06,0h0Zm-.93,0-.43,0s0,0,0-.1h.79Zm1,0Zm0,0,0,0h.05Zm.19,0,0,0h-.08l-.05-.05h0v0h0v0l-.05,0,0,0,.09,0h0l-.1,0,0,0v0h0v0h-.12l-.11,0h0l.11-.05h0l0,0v0h0v-.1l0,.05.06-.06-.09-.21v-.2h0l0,.13,0-.09-.18,0L271.32,30.54c11.56-.49,23.31-.73,34.91-.73,14.25,0,28.67.37,42.85,1.11L306.63,384l.27-.32,119.64-345a759.89,759.89,0,0,1,75.21,15.18L306.91,383.68,572.67,76.06a616.72,616.72,0,0,1,65.07,28.63L306.66,384.39l.24-.7-.3.5-.1.33,0,.11-.1,0,.11,0h0v.08l0-.08h.12l-.15.11v0l.07,0,0,0h0l0,0h0v0h0l0,.05,0,0,.08,0h0l-.07,0,.05,0,0,0v0l.11,0h.47l-.31.05.08,0-.1,0-.24,0h-.06Zm0-.05,0,0h0l0,0Zm0,0h0Zm0,0,.06,0h-.05Zm0,0h0l0,0h0Zm0,0h0Zm0,0,0,0h0Zm0-.09h0Zm.08,0h0Zm0,0h0Zm-.19-.06h0Zm.13-.59,0,.08.05-.07Zm-.12.84,0,0Zm-.15,0h0l0,0Zm0,0h0Zm-.08,0h0Zm-.17,0h0l-.05,0h-.1l-.13-.06.14,0h-.19l-.24-.12.38.05-.05-.05-.46-.14a.1.1,0,0,0,0,.05L-128.35,174.33A455.42,455.42,0,0,1-77.6,135.28l383,249.11-.11-.07.07,0,0,0,.06.05.4.18,0,.09-.36-.21.38.27h-.05l.07.06H306v0h0l0,.07h0l-.07,0v0h0Zm0-.05h0Zm.05-.05h0l0,0h0Zm0,0,0,0Zm-1,.09.3,0,.13,0Zm1.74,0,0,0h0Zm0,0,0,0h-.08l.11,0,.15-.15.44-.05a.84.84,0,0,0-.14-.19L695.74,139.12a445.77,445.77,0,0,1,49.86,39.56L307.48,384.54l.68-.08,478.2-161.8a308.35,308.35,0,0,1,30.73,47.58L308.52,384.41,837,320.28a240.7,240.7,0,0,1,8.58,51.13L307.16,384.8l.67-.23-.89.22h-.09Zm-1.65-.08-537.76-18.56A242.39,242.39,0,0,1-223,315.09L304.31,384.5-201.95,265.2a313.14,313.14,0,0,1,31.82-47.26L304.6,384.53l.5.07a.43.43,0,0,1,0,.07l-.2,0,.19.06S305,384.72,305,384.73Zm.92,0h0Zm0,0h0Zm.75-.13.13-.07,0,0Zm-.64-.09-.14-.27.16.19Zm1.12-.16Zm-1.48-.12L-18.81,101.43a624,624,0,0,1,65.72-28L305.6,383.88l.1.32Zm-.17-.66L118.24,52a762,762,0,0,1,75.52-14.43Z"/></g><polyline class="cls-2" points="30.71 0 30.71 69.63 24.09 69.63 24.09 0"/><polyline class="cls-2" points="47.47 0 47.47 69.63 40.84 69.63 40.84 0"/><polyline class="cls-2" points="64.22 0 64.22 69.63 57.59 69.63 57.59 0"/><polyline class="cls-2" points="80.98 0 80.98 69.63 74.35 69.63 74.35 0"/><polyline class="cls-2" points="97.73 0 97.73 69.63 91.1 69.63 91.1 0"/><polyline class="cls-2" points="114.48 0 114.48 69.63 107.86 69.63 107.86 0"/><polyline class="cls-2" points="131.24 0 131.24 69.63 124.61 69.63 124.61 0"/><polyline class="cls-2" points="147.99 0 147.99 69.63 141.37 69.63 141.37 0"/><polyline class="cls-2" points="164.75 0 164.75 69.63 158.12 69.63 158.12 0"/><polyline class="cls-2" points="181.5 0 181.5 69.63 174.88 69.63 174.88 0"/><polyline class="cls-2" points="198.25 0 198.25 69.63 191.63 69.63 191.63 0"/><polyline class="cls-2" points="215.01 0 215.01 69.63 208.38 69.63 208.38 0"/><polyline class="cls-2" points="231.76 0 231.76 69.63 225.14 69.63 225.14 0"/><polyline class="cls-2" points="248.52 0 248.52 69.63 241.89 69.63 241.89 0"/><polyline class="cls-2" points="265.27 0 265.27 69.63 258.65 69.63 258.65 0"/><polyline class="cls-2" points="282.03 0 282.03 69.63 275.4 69.63 275.4 0"/><polyline class="cls-2" points="298.78 0 298.78 69.63 292.15 69.63 292.15 0"/><polyline class="cls-2" points="315.54 0 315.54 69.63 308.91 69.63 308.91 0"/><polyline class="cls-2" points="332.29 0 332.29 69.63 325.66 69.63 325.66 0"/><polyline class="cls-2" points="349.04 0 349.04 69.63 342.42 69.63 342.42 0"/><polyline class="cls-2" points="365.8 0 365.8 69.63 359.17 69.63 359.17 0"/><polyline class="cls-2" points="382.55 0 382.55 69.63 375.93 69.63 375.93 0"/><polyline class="cls-2" points="399.31 0 399.31 69.63 392.68 69.63 392.68 0"/><polyline class="cls-2" points="416.06 0 416.06 69.63 409.43 69.63 409.43 0"/><polyline class="cls-2" points="432.81 0 432.81 69.63 426.19 69.63 426.19 0"/><polyline class="cls-2" points="449.57 0 449.57 69.63 442.94 69.63 442.94 0"/><polyline class="cls-2" points="466.32 0 466.32 69.63 459.7 69.63 459.7 0"/><polyline class="cls-2" points="483.08 0 483.08 69.63 476.45 69.63 476.45 0"/><polyline class="cls-2" points="499.83 0 499.83 69.63 493.21 69.63 493.21 0"/><polyline class="cls-2" points="516.59 0 516.59 69.63 509.96 69.63 509.96 0"/><polyline class="cls-2" points="533.34 0 533.34 69.63 526.71 69.63 526.71 0"/><polyline class="cls-2" points="550.1 0 550.1 69.63 543.47 69.63 543.47 0"/><polyline class="cls-2" points="566.85 0 566.85 69.63 560.22 69.63 560.22 0"/><polyline class="cls-2" points="583.6 0 583.6 69.63 576.98 69.63 576.98 0"/><path class="cls-6" d="M597.12,66.56V142.3c-74.51-30-178.38-48.55-293.27-48.55S85.07,112.34,10.57,142.3V66.57c74.5-25.3,178.38-41,293.28-41S522.61,41.27,597.12,66.56Z"/><path class="cls-7" d="M43.34,74.36c-.29,1.2-.64,2.44-1.06,3.72s-.87,2.56-1.37,3.82-1,2.47-1.6,3.63-1.15,2.23-1.73,3.2l-.85-.8c-.31-.31-.64-.61-1-.93s-.67-.61-1-.89-.62-.52-.88-.72c.52-.82,1-1.72,1.52-2.7s1-2,1.4-3,.81-2.09,1.13-3.14a23.79,23.79,0,0,0,.71-2.9Zm3.1,12.72c-.12.56-.23,1.1-.34,1.64s-.23,1.07-.38,1.6L54,117.53l-4.32,1.31L43.34,98.05a33.37,33.37,0,0,1-2,4.4c-.19-.26-.45-.59-.79-1s-.7-.83-1.08-1.25-.77-.83-1.17-1.24-.72-.73-1-1A28.15,28.15,0,0,0,39,94.71c.53-1.18,1-2.41,1.45-3.69a37.93,37.93,0,0,0,1.13-3.93,31.4,31.4,0,0,0,.68-4l4.62.62c-.09.48-.16,1-.22,1.45s-.14,1-.21,1.49a26,26,0,0,0,2.61-3.76,38.87,38.87,0,0,0,2.15-4.39,37,37,0,0,0,1.61-4.8,33.14,33.14,0,0,0,.91-5l4.42.69c0,.39-.07.76-.13,1.11s-.13.7-.19,1.06a40.13,40.13,0,0,0,7.62,4.84,40.75,40.75,0,0,0,6.35,2.36c-.17.36-.36.76-.55,1.2s-.36.9-.52,1.38-.28,1-.4,1.47a8.84,8.84,0,0,0-.23,1.4c-.87-.33-1.78-.71-2.74-1.15l.78,2.57-5.3,1.61,1.3,4.28,9.16-2.77,1.5,4.94-9.16,2.78,3.06,10.09a10.86,10.86,0,0,1,.58,3.17,3.36,3.36,0,0,1-.82,2.2,5.46,5.46,0,0,1-2.1,1.55,27.51,27.51,0,0,1-3.21,1.15,18.21,18.21,0,0,0-1.4-2.45c-.61-.91-1.16-1.69-1.67-2.33.8-.17,1.54-.36,2.21-.57a13,13,0,0,0,1.39-.47c.44-.13.59-.45.43-1l-3-10-9,2.72-1.5-5,9-2.72-1.3-4.28L53,90.25l-.78-2.57c-.25.46-.53.89-.81,1.31s-.58.84-.87,1.28a15.62,15.62,0,0,0-1.89-1.69A25.31,25.31,0,0,0,46.44,87.08ZM59.69,101.3c0,1,0,2.11-.11,3.21s-.18,2.17-.3,3.23-.27,2.07-.46,3-.4,1.84-.61,2.63l-1-.39c-.38-.15-.79-.29-1.21-.44s-.85-.28-1.25-.4l-1.07-.3a28.25,28.25,0,0,0,1.1-5,34.62,34.62,0,0,0,.32-5.63Zm-2.8-24.92c-.4,1.47-.87,2.9-1.39,4.29s-1.1,2.73-1.7,4l10.56-3.21c-1.11-.67-2.28-1.4-3.52-2.2S58.29,77.51,56.89,76.38ZM71.69,96.1c.68.56,1.38,1.17,2.11,1.83s1.42,1.33,2.1,2,1.3,1.36,1.89,2a21.73,21.73,0,0,1,1.48,1.86l-3.06,3.68a19.23,19.23,0,0,0-1.45-2c-.59-.72-1.22-1.44-1.89-2.15s-1.37-1.42-2.09-2.12-1.43-1.34-2.12-1.93Z"/><path class="cls-7" d="M134.92,69.18c-.5-.52-1.17-1.14-2-1.87s-1.67-1.43-2.51-2.13l1.35,7.64-4.29.76-1.28-7.24q-.8,2.1-1.71,4a23.85,23.85,0,0,1-2,3.32,11.62,11.62,0,0,0-.79-.94c-.3-.33-.62-.65-1-1s-.67-.61-1-.9a7.92,7.92,0,0,0-.94-.72,19.9,19.9,0,0,0,2.8-3.81,28.84,28.84,0,0,0,2.22-4.71l-5.25.93-.87-4.89,6.7-1.19-.78-4.36,4.29-.76.78,4.36,6.09-1.09.87,4.9-5.61,1c.45.22,1,.49,1.61.82s1.25.66,1.86,1l1.72,1a11.59,11.59,0,0,1,1.14.69Zm19,4.49a28.75,28.75,0,0,1-3.7,8.59,34.31,34.31,0,0,1-5.86,6.85,40.42,40.42,0,0,1-7.5,5.29,62.88,62.88,0,0,1-8.62,3.94c-.18-.34-.4-.74-.67-1.2s-.57-.92-.89-1.38-.64-.91-1-1.34a10.39,10.39,0,0,0-.91-1,66.86,66.86,0,0,0,6.57-2.5,44.88,44.88,0,0,0,5.87-3.14c-1-.47-2-.92-3-1.36s-2-.82-3-1.16l3.25-3.81c1.09.34,2.29.77,3.6,1.28s2.57,1,3.74,1.6a25.39,25.39,0,0,0,3-3.28,21,21,0,0,0,2.24-3.65l-12.31,2.19a40,40,0,0,1-3.46,3.54,45,45,0,0,1-3.69,3c-.27-.26-.59-.54-1-.87s-.76-.63-1.16-.93l-1.19-.87c-.4-.28-.75-.52-1.06-.7A44.61,44.61,0,0,0,127,80a38.73,38.73,0,0,0,3.43-3.19,36.87,36.87,0,0,0,2.87-3.39,18.75,18.75,0,0,0,2-3.32l5.17,1.41a9.38,9.38,0,0,1-.62,1.17c-.24.38-.47.77-.7,1.18L149.41,72l.8-.35Zm.82-5.9a24.72,24.72,0,0,1-3.38-2.58A34,34,0,0,1,148,61.7l1.42,8-4.41.78-1.25-7A38.77,38.77,0,0,1,142,67.17a19.67,19.67,0,0,1-2.07,3,7.88,7.88,0,0,0-.8-.94c-.32-.33-.66-.67-1-1s-.7-.66-1-1a10.85,10.85,0,0,0-.93-.72,18.71,18.71,0,0,0,3-3.65,26.78,26.78,0,0,0,2.41-4.49l-4.81.86-.87-4.9L142,53.33,141.22,49l4.41-.78.77,4.35,7.38-1.31.87,4.9-5.49,1A26.45,26.45,0,0,0,153,60.56a21.32,21.32,0,0,0,4.14,2.5,14,14,0,0,0-1.32,2.2A15.78,15.78,0,0,0,154.78,67.77Z"/><path class="cls-7" d="M206.33,54.67c.65.28,1.33.62,2,1s1.41.8,2.1,1.22,1.33.86,1.94,1.29a11.77,11.77,0,0,1,1.54,1.3l-2.47,4.89A13.69,13.69,0,0,0,210,63c-.59-.48-1.23-1-1.91-1.41s-1.38-.91-2.11-1.35-1.42-.83-2.08-1.18Zm.54-13.46c.63.38,1.29.8,2,1.26s1.33.94,2,1.44,1.24,1,1.8,1.52A17.48,17.48,0,0,1,214,46.91l-2.95,4.48a14.43,14.43,0,0,0-1.31-1.54c-.53-.55-1.11-1.1-1.72-1.63s-1.26-1-1.93-1.56-1.32-1-1.95-1.39Zm9.28,28.68c-.74,2.69-1.54,5.4-2.42,8.15s-1.79,5.36-2.74,7.83l-4.4-3.33c.42-1,.86-2.07,1.33-3.3s1-2.55,1.46-3.94,1-2.82,1.49-4.31.95-3,1.37-4.43ZM239.38,55l.44,5.4-23.06,1.88-.44-5.41,9-.73-.44-5.4-10.27.83-.44-5.5,10.27-.83-.53-6.54,5-.41.53,6.54L240.16,44l.44,5.5-10.67.87.44,5.4ZM224.64,83.41l.17,2-4.83.39-1.6-19.63,20.74-1.68,1.58,19.43-5.07.41-.15-1.79Zm-.43-5.3,10.84-.88-.57-7-10.84.88Z"/><path class="cls-7" d="M359.66,82.54l-3.44,1.14-7.07-23.8,9.11-23.09,3.33,1.44-8.66,21.82Zm7,.3L363.22,84l-7-23.79,9.07-23.1,3.36,1.44-8.69,21.82Z"/><path class="cls-7" d="M385.82,78.45A22.46,22.46,0,0,0,384.16,75q-1.1-1.89-2.4-3.74L380.62,84.9,376,84.51l1-11.54a50.31,50.31,0,0,1-3.8,4.57,37.1,37.1,0,0,1-3.92,3.66,25.33,25.33,0,0,0-1.05-2.83,18.33,18.33,0,0,0-1.4-2.66,26,26,0,0,0,4.84-4.06,37.76,37.76,0,0,0,4.38-5.5L369,65.57l.45-5.3,8.44.71.36-4.36L383,57l-.36,4.36,7.5.63-.44,5.3-5.48-.46a35.1,35.1,0,0,1,3.05,4.07,27.7,27.7,0,0,1,2.13,3.85Zm6.52-33.58a49.56,49.56,0,0,1-4.93.83c-1.76.22-3.57.4-5.42.55s-3.71.25-5.56.31-3.66.1-5.41.12a12.25,12.25,0,0,0-.28-2.52c-.19-.95-.38-1.76-.57-2.44q2.58-.09,5.25-.24c1.78-.1,3.53-.23,5.25-.41s3.36-.37,4.93-.61,3-.49,4.28-.79ZM374,48a29.62,29.62,0,0,1,3,7.73l-4,2a25.25,25.25,0,0,0-1-4,30.29,30.29,0,0,0-1.74-4.14Zm7.57-.72c.25.59.5,1.21.73,1.86s.44,1.31.63,2,.35,1.31.49,1.94.24,1.19.31,1.7l-4.12,1.4a17.48,17.48,0,0,0-.24-1.79c-.12-.66-.26-1.33-.43-2s-.35-1.36-.56-2-.44-1.32-.66-1.9Zm10.18,2.95q-1.22,2.3-2.43,4.56c-.8,1.52-1.54,2.79-2.2,3.83L383.56,57c.36-.64.71-1.34,1.06-2.11s.7-1.55,1.05-2.36.68-1.6,1-2.41.56-1.56.78-2.28l4.63,1.84-.14.23a31.72,31.72,0,0,0,2.82-1.71,35,35,0,0,0,2.84-2.13,31.89,31.89,0,0,0,2.61-2.45A19.18,19.18,0,0,0,402.31,41l4.59,2.83a39.67,39.67,0,0,1-5.67,6.21,45.22,45.22,0,0,1-6.41,4.81,19.43,19.43,0,0,0-1.36-2.36A19.23,19.23,0,0,0,391.77,50.26Zm14.6,20.93a37.88,37.88,0,0,1-7.27,8.7,39.82,39.82,0,0,1-9,6,20.22,20.22,0,0,0-1.34-2.78,21.28,21.28,0,0,0-1.72-2.62,29.09,29.09,0,0,0,4.22-2,32.83,32.83,0,0,0,4-2.73,29.65,29.65,0,0,0,3.57-3.35,22.51,22.51,0,0,0,2.87-3.92Zm.12-13.71a40.37,40.37,0,0,1-5.94,6.26A49.36,49.36,0,0,1,394,68.56a21.74,21.74,0,0,0-1.42-2.39,14.85,14.85,0,0,0-1.79-2.27c.94-.49,1.94-1.07,3-1.75a35.89,35.89,0,0,0,3.06-2.21,34.34,34.34,0,0,0,2.83-2.54A19.46,19.46,0,0,0,402,54.65Z"/><path class="cls-7" d="M445.33,83.92l-.72,5.62L424.53,87l.27-2.07-2,.5c0-.37,0-.75,0-1.13s0-.78,0-1.18c-2.65.22-5.3.44-7.92.63l-7.17.53V78.48l3.48-.08c1.27,0,2.63-.07,4.06-.15l1.09-8.49-2.26-.29-.25,1.93L410,70.9l2.66-20.71,6.14.79,1.11-8.68,4.28.55-1.11,8.68,5.94.76-2.42,18.79-6-.77-1,7.7,2.8-.09c-.07-.71-.15-1.42-.22-2.11s-.17-1.37-.28-2l3.81-.86c.21,1.33.41,2.75.58,4.26s.31,3,.41,4.34l6.1.78,3.61-28.11-6.79-.87.73-5.62,18.46,2.37-.73,5.62-6.58-.84L437.94,83ZM414.71,64.69l2.7.35,1.19-9.22-2.71-.35Zm6.13.79,2.63.34,1.19-9.23L422,56.26Z"/><path class="cls-7" d="M476.5,97.15a17.76,17.76,0,0,1-2.86-.31c-1.11-.2-2.26-.43-3.45-.71a15.84,15.84,0,0,0,0-2.93,13.19,13.19,0,0,0-.56-3,33.71,33.71,0,0,0,3.51.9l2.42.46a2.43,2.43,0,0,0,1,0,2.37,2.37,0,0,0,.9-.52,6.29,6.29,0,0,0,1.17-2.19A48.75,48.75,0,0,0,480.07,84c.53-2.05,1.14-4.64,1.83-7.75s1.47-6.81,2.35-11.1l-8.58-1.52c-.8,1.37-1.62,2.67-2.45,3.88a39.81,39.81,0,0,1-2.46,3.23,13.66,13.66,0,0,0-1.15-1.55l-1.45-1.74L464.1,90.35l-10.7-1.9L452.76,92l-4.33-.77,6.46-36.37,4.53.8c.49-1.19,1-2.48,1.43-3.88S461.7,49.14,462,48L467,49.82c-.57,1.17-1.13,2.33-1.69,3.46s-1.11,2.18-1.64,3.17l6.22,1.1-1.41,7.93A40.66,40.66,0,0,0,473,58.77a78.13,78.13,0,0,0,3.77-8.09L481,52.76c-.4,1-.83,2-1.28,3s-.91,2-1.39,3l11.31,2c-.07.36-.13.72-.2,1.08s-.09.55-.15.86a5,5,0,0,1-.16.7q-1.67,8.19-2.88,13.86c-.81,3.77-1.53,6.9-2.16,9.36a52.76,52.76,0,0,1-1.73,5.7,9.93,9.93,0,0,1-1.57,2.88,5.76,5.76,0,0,1-2.08,1.6A6.83,6.83,0,0,1,476.5,97.15ZM454.31,83.31l6.37,1.13,1.71-9.6L456,73.71Zm2.6-14.64,6.37,1.13,1.41-7.93-6.37-1.13Zm18.18,1.26c.36.94.73,1.94,1.12,3s.77,2.13,1.13,3.21.69,2.1,1,3.07.54,1.86.74,2.63l-4.59,2.32c-.14-.8-.34-1.7-.62-2.71s-.57-2-.89-3.14-.66-2.18-1-3.31-.71-2.17-1-3.14Z"/><path class="cls-7" d="M504,69.3l-1.6,2.21c-.54.74-1.11,1.48-1.73,2.22l-6.45,27.65-4.28-1,4.69-20.15c-.5.5-1,1-1.52,1.41s-1,.85-1.47,1.21c0-.31-.11-.73-.21-1.25s-.21-1-.34-1.61-.25-1.09-.39-1.62-.27-1-.39-1.29A30.44,30.44,0,0,0,493,74.87c.94-.83,1.86-1.74,2.77-2.7s1.78-2,2.63-3S500,67,500.73,65.9l3.41,2.58L506,60.73l3,.71-1.78,7.65,1.74.4,2.74-11.72,3.41.8-2.73,11.72,1.74.41L515.86,63l3.14.73-2.84,12.16-13-3Zm2.31-10.79c-.78.94-1.62,1.87-2.53,2.78s-1.85,1.79-2.81,2.64S499,65.57,498,66.31a34.27,34.27,0,0,1-2.88,2c-.07-.32-.15-.71-.24-1.16s-.2-.9-.32-1.37-.26-.92-.4-1.35-.27-.78-.4-1.08a22.6,22.6,0,0,0,2.38-1.57q1.22-.91,2.37-2c.78-.69,1.5-1.38,2.19-2.09a22.25,22.25,0,0,0,1.8-2.11Zm-1.52,30.18c-.25,1.09-.58,2.24-1,3.44a29.27,29.27,0,0,1-1.42,3.58,21.75,21.75,0,0,1-1.93,3.35,13.52,13.52,0,0,1-2.55,2.78,10,10,0,0,0-.35-1.08c-.17-.43-.35-.86-.54-1.3s-.39-.84-.59-1.21a8.78,8.78,0,0,0-.53-.86,12.28,12.28,0,0,0,1.92-2.16,15,15,0,0,0,1.39-2.46,21.17,21.17,0,0,0,1-2.58c.26-.88.48-1.7.66-2.48l1.29-5.52,10.7,2.5L511,92.19l3.06-1.12c0,.64-.06,1.37-.06,2.21s0,1.51.07,2q-2.33,1-3.81,1.74c-1,.47-1.78.87-2.37,1.21a10.9,10.9,0,0,0-1.35.86,7.07,7.07,0,0,0-.79.68,20.88,20.88,0,0,0-.12-2.55,12.37,12.37,0,0,0-.42-2.47,3.73,3.73,0,0,0,1.14-1,5.17,5.17,0,0,0,.92-2.14l.81-3.48L505,87.47Zm12.53,10.47a30,30,0,0,1-3.63,3.37,25.28,25.28,0,0,1-4.11,2.59,11.07,11.07,0,0,0-.25-1.08c-.12-.44-.26-.88-.4-1.32s-.31-.88-.47-1.31a8.38,8.38,0,0,0-.49-1.06,21.14,21.14,0,0,0,4.7-2.94,24,24,0,0,0,4-4.18c-.08-1.59-.09-3.23,0-4.93s.16-3.48.28-5.33a6.19,6.19,0,0,1-.66.87c-.23.25-.45.49-.67.71-.1-.29-.22-.69-.36-1.21s-.31-1-.49-1.59l-.35,1.5L501,80.15l1.13-4.84,12.5,2.91a36.91,36.91,0,0,0,4.55-7.87q2.05-4.68,3.77-9.89l4,1.86c-.5,1.41-1,2.83-1.55,4.23s-1.09,2.78-1.65,4.11l7.38,1.72L530,77.22l-1.35-.31q-1.79,5.3-3.67,9.66a54.92,54.92,0,0,1-4.19,7.91,25.28,25.28,0,0,0,1.35,5,14.21,14.21,0,0,0,2.38,4,12.41,12.41,0,0,0-1,.77c-.36.3-.73.63-1.11,1s-.73.7-1.08,1.08-.65.72-.89,1A20.89,20.89,0,0,1,517.27,99.16ZM521,76.58c-.21,1.86-.38,3.68-.5,5.45s-.18,3.5-.18,5.17q1.2-2.48,2.27-5.27c.72-1.86,1.42-3.84,2.1-6l-3-.71Z"/><path class="cls-7" d="M562.32,114.42a12.94,12.94,0,0,0-1.07.82c-.4.33-.79.68-1.19,1.07s-.78.76-1.15,1.13a14.13,14.13,0,0,0-.95,1.07,23.79,23.79,0,0,1-7.49-7.09A26.48,26.48,0,0,1,546.7,102a20.13,20.13,0,0,1-3.27,3.12,19.23,19.23,0,0,1-4.1,2.35A24.52,24.52,0,0,1,534.2,109a34.29,34.29,0,0,1-6.36.51,12.46,12.46,0,0,0-.32-2.77,18.26,18.26,0,0,0-.76-2.69,30.23,30.23,0,0,0,5.36-.24,23.35,23.35,0,0,0,4.28-1,14.37,14.37,0,0,0,6-3.92L529.61,95,531.09,90l14.29,4.27a35.5,35.5,0,0,0,1.85-4.07c-2-.41-3.88-.85-5.79-1.34l-5.58-1.43a14.64,14.64,0,0,0,.39-2.59c.06-1,.09-1.82.07-2.52,2.39.65,4.85,1.26,7.4,1.85s5,1.1,7.51,1.54,4.82.8,7.09,1.08a55.51,55.51,0,0,0,6.11.45l1.09,5.47q-2.87-.09-6.11-.45c-2.17-.25-4.4-.58-6.72-1-.35.8-.69,1.58-1,2.34s-.69,1.5-1,2.23l15.57,4.65-1.48,5-13.27-4a20,20,0,0,0,3.88,7.28A24.18,24.18,0,0,0,562.32,114.42Zm-14.52-37q.12,1.29.15,2.49T547.89,82l-4.75.71a29.44,29.44,0,0,0,.11-3.16c0-1.23-.09-2.44-.21-3.62l-.67-.2c-.85,1-1.7,1.85-2.56,2.67a26.18,26.18,0,0,1-2.53,2.14c-.17-.29-.38-.62-.64-1s-.54-.74-.84-1.11l-.9-1.1c-.3-.36-.57-.67-.81-.91a23.26,23.26,0,0,0,5.18-4.55,37.12,37.12,0,0,0,4.46-6.38l4.17,2.55c-.35.58-.71,1.17-1.1,1.74S546,71,545.63,71.55l8.9,2.66-1,3.24A33,33,0,0,0,556.64,74a36.21,36.21,0,0,0,2.66-3.85l4.05,2.67q-.55.87-1.14,1.68L561,76.19l11.24,3.36-1.43,4.76-6.2-1.85q.18,1.1.33,2a16.86,16.86,0,0,1,.16,1.73l-4.8.7a19.63,19.63,0,0,0-.19-2.78c-.14-1.06-.31-2.13-.53-3.2l-2.07-.62c-.87.92-1.74,1.76-2.6,2.52s-1.7,1.44-2.5,2c-.17-.29-.39-.62-.66-1l-.83-1.13c-.28-.38-.57-.74-.86-1.09s-.56-.64-.8-.88c.48-.28,1-.58,1.44-.92a18,18,0,0,0,1.48-1.17Z"/><path class="cls-7" d="M581.33,102.13,565.45,121.2l-2.74-2.43,15.12-18,.64-23.48h3.66Zm6.58,2.5L572,123.69l-2.7-2.41,15.07-18,.69-23.47h3.62Z"/></g><path class="cls-4" d="M292.27,48.3c0,.16,0,.34,0,.52s0,.38,0,.58a5.78,5.78,0,0,1,0,.58c0,.19,0,.37,0,.53v2.77h-1V46.63h1.19l1.12,3.13c.07.2.13.41.2.62l.21.65h0l.21-.65c.07-.21.14-.42.2-.62l1.08-3.13h1.2v6.65h-1V50.51c0-.16,0-.34,0-.53a5.78,5.78,0,0,1,0-.58c0-.2,0-.39,0-.58s0-.36,0-.52h0l-.53,1.59-1,2.79h-.63l-1-2.79-.52-1.59Z"/><path class="cls-4" d="M303.83,50.3a5.34,5.34,0,0,1-.17,1.41,2.56,2.56,0,0,1-.47.95,1.85,1.85,0,0,1-.75.55,2.5,2.5,0,0,1-1,.17,2.45,2.45,0,0,1-1-.17,1.93,1.93,0,0,1-.73-.55,2.41,2.41,0,0,1-.46-.95,5.37,5.37,0,0,1-.16-1.41V46.63h1v3.78a3.06,3.06,0,0,0,.1.87,1.53,1.53,0,0,0,.26.56.91.91,0,0,0,.4.31,1.31,1.31,0,0,0,.5.09,1.39,1.39,0,0,0,.5-.09.94.94,0,0,0,.41-.31,1.53,1.53,0,0,0,.26-.56,3.06,3.06,0,0,0,.1-.87V46.63h1.09Z"/><path class="cls-4" d="M310.18,51.41a1.88,1.88,0,0,1-.59,1.41,2.09,2.09,0,0,1-.68.41,2.59,2.59,0,0,1-.91.15,3.05,3.05,0,0,1-1.24-.25,3,3,0,0,1-1-.73l.62-.92a3.79,3.79,0,0,0,.37.31,2.13,2.13,0,0,0,.42.23,2.32,2.32,0,0,0,.44.16,1.72,1.72,0,0,0,.44.06,1.84,1.84,0,0,0,.41-.05,1.08,1.08,0,0,0,.33-.13.85.85,0,0,0,.24-.22.57.57,0,0,0,.09-.32.66.66,0,0,0-.08-.32.78.78,0,0,0-.23-.25,1.3,1.3,0,0,0-.33-.19l-.4-.18-.78-.33a2.6,2.6,0,0,1-.46-.25,1.84,1.84,0,0,1-.41-.38,2,2,0,0,1-.3-.51,1.83,1.83,0,0,1-.12-.68,1.91,1.91,0,0,1,.16-.76,1.75,1.75,0,0,1,.42-.61,2,2,0,0,1,.66-.4,2.45,2.45,0,0,1,.83-.14,2.64,2.64,0,0,1,1.08.22,2.69,2.69,0,0,1,.92.66l-.58.86a2.45,2.45,0,0,0-.66-.44,1.85,1.85,0,0,0-.78-.17,1.49,1.49,0,0,0-.36.05.81.81,0,0,0-.3.13.56.56,0,0,0-.21.22.53.53,0,0,0-.08.31.49.49,0,0,0,.09.3.76.76,0,0,0,.24.23,1.79,1.79,0,0,0,.34.19l.39.16.77.32a2.14,2.14,0,0,1,.91.66,2.13,2.13,0,0,1,.27.52A2.3,2.3,0,0,1,310.18,51.41Z"/><path class="cls-4" d="M316.13,52.18v1.1h-4.06v-1.1h1.48V47.74h-1.48V46.63h4.06v1.11h-1.5v4.44Z"/><path class="cls-4" d="M322.75,52.41a2.91,2.91,0,0,1-.86.73,2.32,2.32,0,0,1-1.08.24,2.62,2.62,0,0,1-1.09-.22,2.29,2.29,0,0,1-.87-.64,3.14,3.14,0,0,1-.58-1.07,4.63,4.63,0,0,1-.21-1.46,5.07,5.07,0,0,1,.2-1.47,3.25,3.25,0,0,1,.57-1.08,2.41,2.41,0,0,1,.88-.68,2.57,2.57,0,0,1,1.11-.24,2.12,2.12,0,0,1,.57.07,2.53,2.53,0,0,1,.48.19,2.42,2.42,0,0,1,.41.27,3.68,3.68,0,0,1,.35.33l-.59.86a2.08,2.08,0,0,0-.54-.42,1.35,1.35,0,0,0-.66-.17,1.45,1.45,0,0,0-1.21.61,2.18,2.18,0,0,0-.34.72,3.63,3.63,0,0,0-.12,1,3.55,3.55,0,0,0,.12,1,2.4,2.4,0,0,0,.34.72,1.5,1.5,0,0,0,.53.45,1.58,1.58,0,0,0,.69.15,1.43,1.43,0,0,0,.73-.2,2.48,2.48,0,0,0,.59-.48Z"/><path class="cls-4" d="M301,68.57a5.38,5.38,0,0,1-.18,1.45,3.27,3.27,0,0,1-.54,1.09,2.45,2.45,0,0,1-.85.69,2.51,2.51,0,0,1-1.11.24,2.4,2.4,0,0,1-1.93-.93,3.29,3.29,0,0,1-.56-1.09,5,5,0,0,1-.2-1.45,4.86,4.86,0,0,1,.2-1.44,3.09,3.09,0,0,1,.55-1.07,2.36,2.36,0,0,1,.85-.66,2.7,2.7,0,0,1,2.18,0,2.28,2.28,0,0,1,.85.67,3.42,3.42,0,0,1,.55,1.06A4.92,4.92,0,0,1,301,68.57Zm-4.26,0a3.52,3.52,0,0,0,.11,1,2.34,2.34,0,0,0,.32.73,1.48,1.48,0,0,0,.5.47,1.4,1.4,0,0,0,1.3,0,1.48,1.48,0,0,0,.5-.47,2.13,2.13,0,0,0,.32-.73,4.2,4.2,0,0,0,0-1.91,2,2,0,0,0-.32-.71,1.44,1.44,0,0,0-.5-.45,1.48,1.48,0,0,0-1.3,0,1.53,1.53,0,0,0-.5.45,2.22,2.22,0,0,0-.32.71A3.49,3.49,0,0,0,296.78,68.57Z"/><path class="cls-4" d="M304.07,69.57v2.36H303V65.28h1.94a4,4,0,0,1,.95.1,2,2,0,0,1,.75.36,1.66,1.66,0,0,1,.49.64,2.62,2.62,0,0,1,.17,1,2.45,2.45,0,0,1-.18,1,1.82,1.82,0,0,1-.48.69,2.12,2.12,0,0,1-.74.4,3,3,0,0,1-.92.13Zm0-1h.82c.89,0,1.34-.39,1.34-1.16a.89.89,0,0,0-.36-.82,1.91,1.91,0,0,0-1-.23h-.79Z"/><path class="cls-4" d="M312.88,70.82v1.11h-3.81V65.28h3.71v1.1h-2.64v1.56h2v1.11h-2v1.77Z"/><path class="cls-4" d="M315.84,66.92c0,.37.05.75.08,1.16s0,.8,0,1.19v2.66h-1V65.28H316l1.82,3.47.72,1.52h0c0-.35-.07-.73-.1-1.15s0-.82,0-1.21V65.28h1v6.65h-1.1l-1.82-3.5-.71-1.51Z"/><line class="cls-6" x1="6.42" y1="145.95" x2="599.19" y2="145.95"/></svg>