<svg id="图层_1" data-name="图层 1" xmlns="http://www.w3.org/2000/svg" xmlns:xlink="http://www.w3.org/1999/xlink" viewBox="0 0 608 145.61"><defs><style>.cls-1{fill:none;}.cls-2{fill:#255c3f;}.cls-3{clip-path:url(#clip-path);}.cls-4,.cls-7{fill:#f6ead5;}.cls-5{opacity:0.53;}.cls-6{fill:#3f93a2;stroke-width:4.94px;}.cls-6,.cls-7{stroke:#255c3f;stroke-miterlimit:10;}.cls-7{stroke-width:0.71px;}</style><clipPath id="clip-path"><rect class="cls-1" x="10.17" width="589.02" height="144.87"/></clipPath></defs><rect class="cls-2" x="6.78" width="6.63" height="1523.02"/><rect class="cls-2" x="595.47" width="6.63" height="1523.02"/><g class="cls-3"><path class="cls-4" d="M98.37,53.2l12.92,4.39a46.36,46.36,0,0,0,8.45-4.53l4,4a46.76,46.76,0,0,1-4.84,3.13l5.69,1.91L122,67l-10.62-3.46c-1.17.42-2.39.8-3.66,1.17l2.89,1-.85,1.44H126.3v6H106.14L103.88,77h4.25V74.2h7.5V77h8.63V92.68H115.9l1.49-2.24V83.2h-1.76V95h-7.5V83.2h-1.72v9.48h-7V84.46l-3.66,6.12-5.11-5,7.68-12.37H92.13v-6h9.94l.86-1.35c-2,.42-4.11.7-6.24.93L94,61.88c2.85-.42,5.51-.84,8-1.4l-6.51-2.15Z"/><path class="cls-4" d="M137.77,60.67h4.75v-7.1h6.87v7.1h4.25v6.58h-4.16l5,9.47-2.93,7-2.17-5.18V95h-6.87V81l-2.44,7.19-4.79-4.39,7.23-16.51h-4.75Zm17.58,0h4.34v-7.1h6.92v7.1h4.7v6.58h-4.57l7.37,16.51-5,4.39-2.48-7.51V95h-6.92V80.73l-2.44,7.42-5-4,7.33-16.93h-4.21Z"/><path class="cls-4" d="M194.26,54.51h11.39V95.06h-5.6l1.08-1.82V82.18H200l-.41,12.88h-5.06l0-2.8-4.25,3.31-2.71-3.73q-1.22,1.89-2.71,3.78l-4.43-2.85A35.92,35.92,0,0,0,184.14,87l-3.39-4.71,1.49-16.89H181V58.75h1.86l.4-4.8,6,.37-.5,4.43h5.15c0,10.41-.09,18.9-3.11,26.83l3.84,5.84.18-9.24h-.91V76.44h1l.09-4.43h-.68V66.27h.81l.1-5.46h-.91ZM188,65.38l-1.49,13.76.41.66a61.34,61.34,0,0,0,1.85-14.42Zm12.16,11.06h1V72h-.86Zm.49-15.63-.18,5.46h.68V60.81Zm10.76,34.25V92h1.54c4.11,0,5.37-5,5.37-9.1,0-4.43-1.89-8.91-3-11.57l3.34-16.76h-12V95.06Zm0-27.21V60.9h1.27Zm0,17.41V74.06c1,2.38,2.08,5.55,2.08,7.6,0,.56,0,3.6-2,3.6Z"/><path class="cls-4" d="M238.5,60.67h7.78v-7.1h7.27v7.1h9.31v6.48h-8.72A85.41,85.41,0,0,0,257,77.09l3.75-2.75,3.16,5.46-4.52,3.5a69.61,69.61,0,0,0,4.3,8.77l-6.29,3.36a93.92,93.92,0,0,1-5-11.53v7.75l-12.25,3.5V83l-1.31,1.59-1.63-3.32V95h-6.87V76.39l-1.22,2.38-4.25-5L235.38,53l5.83,2.06-4,7.88V76.62l8.05-9.47H238.5Zm10.31,11.71-1.95,2.38V85.35l5.34-2A94.8,94.8,0,0,1,248.81,72.38Z"/><path class="cls-4" d="M272.12,75c0-2.94,1.22-4.2,4.16-4.2s4.16,1.26,4.16,4.2-1.31,4.2-4.16,4.2S272.12,77.93,272.12,75Z"/><path class="cls-4" d="M291.28,56.93h12.39V53.57h8v3.36h12.43v5.28H291.28ZM299,95V81.15h17.31V92.91L314.79,95h8.72V75.51H291.87V95Zm-3.3-21h23.87V63.7H295.71Zm4.57,18.57h14.78V82.6H300.28ZM303,69.63V68h9.13v1.59ZM306,88.38V86.75h3.39v1.63Z"/><g class="cls-5"><path class="cls-2" d="M306.23,740.08c-4.72,0-9.52,0-14.25-.12l14.08-354.15h0v-.05h0l0-.31-.07.09v-.09l.08-.08h0l.14-.14-.07-.07-.06,0v-.05h0l0,0h0v0h0l0,0,.06,0V385l-.06,0h.06v0l-.07,0,0,0h0v0h0v0h.2l0,.05h0l0,0,.14.07h-.07l-.09,0,0,.06h0l0,0h.1l0,0h-.05l0,0h0l.08.11,0-.13h-.08l0,0,.06,0h0l0,0h0l0-.07h0v0l.06,0-.06,0h.06v0l0,0h.07l.07.09h-.05v0l.15.05.06.07-.2-.1v.06L653.74,656.67a594.24,594.24,0,0,1-63.3,30.21L306.74,385.8l0-.06v0l-.07-.07h0l-.23-.41,0,.19h0l0,.28.18,0,.16.23,63,351.68C348.78,739.25,327.41,740.08,306.23,740.08Zm-.13-354.66.09.31.13-.38-.09-.1Zm.38-.22,0,0,0,0Zm0,0h0Zm0,0Zm-.39-.12Zm0,0h0l0,0h0Zm0,0Zm.35,0Zm-.34-.1,0,0,0,0Zm-91.87,350c-25.76-2.92-51.4-7.12-76.23-12.47L305.54,386.15,65.27,702.76a644.38,644.38,0,0,1-67.4-26.34L305.69,385.74l-.06.23.14-.27.1,0-.26.34Zm232.58-7L306.89,386.15,521,710.8A746.36,746.36,0,0,1,446.81,727.87ZM-62.85,644.06a477.61,477.61,0,0,1-53-37.76l421-220.93.06.08.21-.07.17-.19-.15,0,.22-.11h0l.09-.07-.24.06h0l.29-.07.05-.06.08,0h0l.06,0v0h0l-.08.13h-.06l-.08,0h0l-.21.18.31-.12v0h0l0,.08-.26.12Zm772.53-23.23L307.24,385.45a.83.83,0,0,0,.12-.17l-.5,0-.17-.12h0l.66.13v0l-.51-.12h.21l.4.17.23.05-.16,0L757.26,580A424.19,424.19,0,0,1,709.68,620.83Zm-869.71-57a329.08,329.08,0,0,1-34.51-46.35L304.34,385.39l-522.82,82.85a246.84,246.84,0,0,1-12.76-50.89l536.3-32.14,0,.06-.4.06ZM795.49,535,308.11,385.39,823.43,486.58A294.08,294.08,0,0,1,795.49,535Zm44.85-98.84L307.93,385.33l-.79-.24.41,0,0-.12H845.93A238.58,238.58,0,0,1,840.34,436.12ZM307.18,385.54h0Zm-1.2-.3v0l0,0Zm0,0,0-.05v0Zm0-.1h0V385h0l0,.11.05,0Zm.3,0h0l.06,0h0Zm-.93,0-.43,0s0,0,0-.1h.79Zm1,0Zm0,0,0,0h.05Zm.19,0,0,0h-.08l-.05-.05h0v0h0v0l-.05,0,0,0,.09,0h0l-.1,0,0,0v0h0v0h-.12l-.11,0h0l.11-.05h0l0,0v0h0v-.1l0,.05.06-.06-.09-.21v-.2h0l0,.13,0-.09-.18,0L271.32,30.54c11.56-.49,23.31-.73,34.91-.73,14.25,0,28.67.37,42.85,1.11L306.63,384l.27-.32,119.64-345a759.89,759.89,0,0,1,75.21,15.18L306.91,383.68,572.67,76.06a616.72,616.72,0,0,1,65.07,28.63L306.66,384.39l.24-.7-.3.5-.1.33,0,.11-.1,0,.11,0h0v.08l0-.08h.12l-.15.11v0l.07,0,0,0h0l0,0h0v0h0l0,.05,0,0,.08,0h0l-.07,0,.05,0,0,0v0l.11,0h.47l-.31.05.08,0-.1,0-.24,0h-.06Zm0-.05,0,0h0l0,0Zm0,0h0Zm0,0,.06,0h-.05Zm0,0h0l0,0h0Zm0,0h0Zm0,0,0,0h0Zm0-.09h0Zm.08,0h0Zm0,0h0Zm-.19-.06h0Zm.13-.59,0,.08.05-.07Zm-.12.84,0,0Zm-.15,0h0l0,0Zm0,0h0Zm-.08,0h0Zm-.17,0h0l-.05,0h-.1l-.13-.06.14,0h-.19l-.24-.12.38.05-.05-.05-.46-.14a.1.1,0,0,0,0,.05L-128.35,174.33A455.42,455.42,0,0,1-77.6,135.28l383,249.11-.11-.07.07,0,0,0,.06.05.4.18,0,.09-.36-.21.38.27h-.05l.07.06H306v0h0l0,.07h0l-.07,0v0h0Zm0-.05h0Zm.05-.05h0l0,0h0Zm0,0,0,0Zm-1,.09.3,0,.13,0Zm1.74,0,0,0h0Zm0,0,0,0h-.08l.11,0,.15-.15.44-.05a.84.84,0,0,0-.14-.19L695.74,139.12a445.77,445.77,0,0,1,49.86,39.56L307.48,384.54l.68-.08,478.2-161.8a308.35,308.35,0,0,1,30.73,47.58L308.52,384.41,837,320.28a240.7,240.7,0,0,1,8.58,51.13L307.16,384.8l.67-.23-.89.22h-.09Zm-1.65-.08-537.76-18.56A242.39,242.39,0,0,1-223,315.09L304.31,384.5-201.95,265.2a313.14,313.14,0,0,1,31.82-47.26L304.6,384.53l.5.07a.43.43,0,0,1,0,.07l-.2,0,.19.06S305,384.72,305,384.73Zm.92,0h0Zm0,0h0Zm.75-.13.13-.07,0,0Zm-.64-.09-.14-.27.16.19Zm1.12-.16Zm-1.48-.12L-18.81,101.43a624,624,0,0,1,65.72-28L305.6,383.88l.1.32Zm-.17-.66L118.24,52a762,762,0,0,1,75.52-14.43Z"/></g><polyline class="cls-2" points="30.71 0 30.71 69.63 24.09 69.63 24.09 0"/><polyline class="cls-2" points="47.47 0 47.47 69.63 40.84 69.63 40.84 0"/><polyline class="cls-2" points="64.22 0 64.22 69.63 57.59 69.63 57.59 0"/><polyline class="cls-2" points="80.98 0 80.98 69.63 74.35 69.63 74.35 0"/><polyline class="cls-2" points="97.73 0 97.73 69.63 91.1 69.63 91.1 0"/><polyline class="cls-2" points="114.48 0 114.48 69.63 107.86 69.63 107.86 0"/><polyline class="cls-2" points="131.24 0 131.24 69.63 124.61 69.63 124.61 0"/><polyline class="cls-2" points="147.99 0 147.99 69.63 141.37 69.63 141.37 0"/><polyline class="cls-2" points="164.75 0 164.75 69.63 158.12 69.63 158.12 0"/><polyline class="cls-2" points="181.5 0 181.5 69.63 174.88 69.63 174.88 0"/><polyline class="cls-2" points="198.25 0 198.25 69.63 191.63 69.63 191.63 0"/><polyline class="cls-2" points="215.01 0 215.01 69.63 208.38 69.63 208.38 0"/><polyline class="cls-2" points="231.76 0 231.76 69.63 225.14 69.63 225.14 0"/><polyline class="cls-2" points="248.52 0 248.52 69.63 241.89 69.63 241.89 0"/><polyline class="cls-2" points="265.27 0 265.27 69.63 258.65 69.63 258.65 0"/><polyline class="cls-2" points="282.03 0 282.03 69.63 275.4 69.63 275.4 0"/><polyline class="cls-2" points="298.78 0 298.78 69.63 292.15 69.63 292.15 0"/><polyline class="cls-2" points="315.54 0 315.54 69.63 308.91 69.63 308.91 0"/><polyline class="cls-2" points="332.29 0 332.29 69.63 325.66 69.63 325.66 0"/><polyline class="cls-2" points="349.04 0 349.04 69.63 342.42 69.63 342.42 0"/><polyline class="cls-2" points="365.8 0 365.8 69.63 359.17 69.63 359.17 0"/><polyline class="cls-2" points="382.55 0 382.55 69.63 375.93 69.63 375.93 0"/><polyline class="cls-2" points="399.31 0 399.31 69.63 392.68 69.63 392.68 0"/><polyline class="cls-2" points="416.06 0 416.06 69.63 409.43 69.63 409.43 0"/><polyline class="cls-2" points="432.81 0 432.81 69.63 426.19 69.63 426.19 0"/><polyline class="cls-2" points="449.57 0 449.57 69.63 442.94 69.63 442.94 0"/><polyline class="cls-2" points="466.32 0 466.32 69.63 459.7 69.63 459.7 0"/><polyline class="cls-2" points="483.08 0 483.08 69.63 476.45 69.63 476.45 0"/><polyline class="cls-2" points="499.83 0 499.83 69.63 493.21 69.63 493.21 0"/><polyline class="cls-2" points="516.59 0 516.59 69.63 509.96 69.63 509.96 0"/><polyline class="cls-2" points="533.34 0 533.34 69.63 526.71 69.63 526.71 0"/><polyline class="cls-2" points="550.1 0 550.1 69.63 543.47 69.63 543.47 0"/><polyline class="cls-2" points="566.85 0 566.85 69.63 560.22 69.63 560.22 0"/><polyline class="cls-2" points="583.6 0 583.6 69.63 576.98 69.63 576.98 0"/><path class="cls-6" d="M597.12,66.56V142.3c-74.51-30-178.38-48.55-293.27-48.55S85.07,112.34,10.57,142.3V66.57c74.5-25.3,178.38-41,293.28-41S522.61,41.27,597.12,66.56Z"/><path class="cls-7" d="M43.48,88.19c.57,1.88,1.15,4,1.76,6.3s1.14,4.72,1.6,7.18a69.23,69.23,0,0,1,1,7.31,35.42,35.42,0,0,1,0,6.7,8.2,8.2,0,0,0-1.1-.61c-.45-.21-.91-.42-1.37-.65s-.92-.41-1.37-.57-.82-.28-1.13-.36a27.9,27.9,0,0,0,0-5.92,62.66,62.66,0,0,0-.94-6.28q-.64-3.17-1.47-6.16T38.8,89.61l-4-13.08L50,71.93c-.37-.58-.76-1.16-1.16-1.73s-.78-1.09-1.16-1.57L52,65.81A25.44,25.44,0,0,1,53.77,68c.59.79,1.1,1.57,1.56,2.33l13-4L70,71.73,41.14,80.49ZM59.83,98.3c-.42-.43-.93-.92-1.54-1.48S57,95.69,56.34,95.1l5,16.51-4.13,1.25L53,98.87a50.5,50.5,0,0,1-.47,5,21.79,21.79,0,0,1-1,4.24q-.36-.36-.87-.78c-.34-.28-.69-.56-1.06-.84a12.5,12.5,0,0,0-1.11-.78,10.43,10.43,0,0,0-1-.58,17.84,17.84,0,0,0,1.06-3,27.2,27.2,0,0,0,.69-3.63c.16-1.3.27-2.63.34-4s.06-2.74,0-4.11l-4.06,1.23L44,86.84l4.87-1.48-1.71-5.61,4.13-1.26L53,84.11,56.71,83l1.46,4.81-3.7,1.12.07.24c.44.25,1,.56,1.56.95s1.2.78,1.8,1.15l1.66,1c.51.33.88.59,1.1.76Zm16.59,2.09a41.84,41.84,0,0,1-3.3-3.94q-1.75-2.33-3.52-5.06l4.93,16.22-4.17,1.27-4.57-15a53.11,53.11,0,0,1-.59,5.84A23.07,23.07,0,0,1,64,104.47q-.8-.69-2-1.56a18.06,18.06,0,0,0-2-1.33,17.53,17.53,0,0,0,1.2-3.12A37.41,37.41,0,0,0,62,94.72c.24-1.32.41-2.7.53-4.14s.18-2.85.18-4.23l-3.66,1.11L57.65,82.7,62,81.38l-1.7-5.62,4.17-1.26,1.7,5.61,5.53-1.68,1.45,4.76L68.83,84.5c.72,1.07,1.49,2.14,2.32,3.22s1.65,2.11,2.49,3.09,1.66,1.88,2.46,2.71a31.37,31.37,0,0,0,2.3,2.16,18.48,18.48,0,0,0-1.11,2.23A17.29,17.29,0,0,0,76.42,100.39Z"/><path class="cls-7" d="M106.43,97.48l.42,2-4.7,1-9.1-43.31,34-7.14,9.1,43.3-4.94,1-.42-2Zm-1.13-5.4L129.65,87l-6.41-30.51L98.89,61.57Zm7.23-16.86a34,34,0,0,1,.41,4.89,15.89,15.89,0,0,1-.5,4.17,11.37,11.37,0,0,1-1.64,3.57A14.06,14.06,0,0,1,107.73,91c-.18-.3-.4-.63-.67-1a12.56,12.56,0,0,0-.87-1.06c-.31-.34-.62-.66-.93-1a6.28,6.28,0,0,0-.89-.7A12,12,0,0,0,106.79,85a7.51,7.51,0,0,0,1.33-2.49,10,10,0,0,0,.43-2.94,28.46,28.46,0,0,0-.24-3.5l-5,1-1-4.72,22.08-4.64,1,4.72-6.06,1.28,1.47,7a4.08,4.08,0,0,0,.35,1.17c.1.14.29.17.59.11l1.51-.32a.51.51,0,0,0,.35-.22,1.41,1.41,0,0,0,.1-.69,8.28,8.28,0,0,0-.14-1.37c-.09-.57-.23-1.34-.4-2.32a6.52,6.52,0,0,0,1.88.74,11.37,11.37,0,0,0,2.09.35,30.1,30.1,0,0,1,.3,3.57,8,8,0,0,1-.28,2.35,2.76,2.76,0,0,1-.9,1.36,4.11,4.11,0,0,1-1.57.66l-2.71.56a5.93,5.93,0,0,1-2.07.14,2.6,2.6,0,0,1-1.45-.74,4.61,4.61,0,0,1-1-1.7,20.38,20.38,0,0,1-.74-2.74l-1.49-7Zm8.39-15,1,4.52-18.26,3.84-1-4.53Z"/><path class="cls-7" d="M170.57,77c-1.49,2.11-2.71,3.82-3.64,5.11s-1.68,2.35-2.23,3.14-.95,1.4-1.21,1.82a11,11,0,0,0-.61,1.11,5.34,5.34,0,0,0-.64-.92c-.28-.33-.56-.66-.85-1s-.59-.65-.89-.94-.56-.53-.77-.7a11.15,11.15,0,0,0,.66-1.06,7.33,7.33,0,0,0,.58-1.44,11,11,0,0,0,.36-1.75,7.74,7.74,0,0,0,0-2l-2-14.73-4.72.64-.76-5.62,9.36-1.27,2.46,18.18L168,72.39c.16.38.34.79.55,1.23s.44.87.67,1.29.47.82.7,1.19A8.23,8.23,0,0,0,170.57,77ZM156.86,43.7l2,1.56q1,.84,2,1.74c.67.59,1.31,1.17,1.92,1.72a20.25,20.25,0,0,1,1.54,1.54l-2.76,4.49c-.4-.51-.88-1.07-1.46-1.68s-1.19-1.22-1.85-1.83-1.34-1.23-2-1.86-1.36-1.2-2-1.71Zm31.7,40.82a6.54,6.54,0,0,1-2.71,1.19c-1.1.23-2.39.45-3.9.65a22.46,22.46,0,0,0-1-2.7c-.43-1-.84-1.87-1.24-2.62,1-.06,1.93-.16,2.86-.28s1.55-.23,1.87-.31a1,1,0,0,0,.6-.23c.11-.12.14-.35.09-.71l-1.31-9.71L175.14,71c.51.53,1,1.11,1.57,1.74s1.06,1.27,1.56,1.92.95,1.3,1.37,2,.77,1.25,1.07,1.81L177,81.72a17.4,17.4,0,0,0-1-1.87c-.42-.68-.88-1.37-1.37-2.07s-1-1.41-1.56-2.12-1.08-1.37-1.6-2l3.1-2.62-6,.8-.72-5.32,15.34-2.07-.56-4.14-16.1,2.18-.72-5.32,10.69-1.45-.58-4.29-8.07,1.09-.72-5.32,8.07-1.09-.73-5.37,4.77-.64.72,5.37,8.48-1.15.72,5.32-8.48,1.15.58,4.28,10.3-1.39.71,5.32-4.92.67.56,4.14,4.6-.62.72,5.32-4.6.62L189.91,79a10.46,10.46,0,0,1,0,3.45A3.47,3.47,0,0,1,188.56,84.52Z"/><path class="cls-7" d="M233.29,57.27A63.87,63.87,0,0,1,231.65,64a41.25,41.25,0,0,1-2.6,6.56,38.08,38.08,0,0,1-3.81,6.13A33.83,33.83,0,0,1,220,82.07a17.67,17.67,0,0,0-4.36-4.53,27.53,27.53,0,0,0,6.47-6.71,35.83,35.83,0,0,0,4-7.75,41.61,41.61,0,0,0,2.09-8.1,74.36,74.36,0,0,0,.76-7.8c.09-2.48.08-4.78,0-6.88s-.21-3.85-.28-5.24l5.56-.39c.05,1.06.1,2.25.15,3.56s.09,2.71.11,4.2c.19,1.12.46,2.52.81,4.21a58.57,58.57,0,0,0,3.84,11.71,37.19,37.19,0,0,0,3.52,6.19,32.27,32.27,0,0,0,4.9,5.53A24.22,24.22,0,0,0,254,74.25a17.76,17.76,0,0,0-1.92,2.61,12,12,0,0,0-1.25,2.75,27.16,27.16,0,0,1-6.28-4.27,34.77,34.77,0,0,1-4.9-5.49A40.67,40.67,0,0,1,236,63.63,66.67,66.67,0,0,1,233.29,57.27Z"/><path class="cls-7" d="M376.51,80l-3.1,1-6-21.54L376,38.77l3,1.35L370.85,59.6Zm6.33.39-3.14,1-5.93-21.53,8.57-20.63,3,1.35L377.14,60Z"/><path class="cls-7" d="M442.44,77.35c1.93,1.35,3.73,2.7,5.41,4s3.12,2.61,4.33,3.8l-4.15,4q-1.74-1.83-4.28-4c-1.7-1.46-3.54-2.94-5.53-4.42a27.24,27.24,0,0,1-7.26,3.2,46.27,46.27,0,0,1-8.5,1.49c-.08-.34-.19-.75-.33-1.22s-.3-1-.48-1.45-.36-1-.54-1.4-.37-.84-.54-1.17a43.54,43.54,0,0,0,7.15-.7,25.87,25.87,0,0,0,6.06-1.91c-1.37-.94-2.74-1.85-4.09-2.72s-2.69-1.67-4-2.39l.09-.08c.67-.78,1.37-1.64,2.08-2.58s1.43-1.93,2.14-3l-7.51-1.06.7-5L433,62.19c.65-1,1.25-2.1,1.82-3.13s1.08-2.05,1.57-3l4.66,1.83c-.41.84-.85,1.69-1.31,2.52s-1,1.69-1.47,2.55l16.87,2.38-.7,5L448,69.36a33.21,33.21,0,0,1-2.58,4.41A26.57,26.57,0,0,1,442.44,77.35ZM429.32,54l-.7,5-4.39-.62,1.39-9.88,12.63,1.78c-.13-.65-.27-1.3-.43-2s-.3-1.28-.44-1.87l4.72-.64c.23.81.47,1.68.71,2.6s.44,1.79.59,2.6l12.82,1.8-1.4,9.88-4.61-.65.71-5Zm3.52,17.08c.93.56,1.86,1.12,2.78,1.71l2.8,1.79a20.48,20.48,0,0,0,2.49-2.68A23.21,23.21,0,0,0,443,68.66l-7.63-1.08c-.43.64-.86,1.25-1.27,1.84S433.26,70.57,432.84,71.11Z"/><path class="cls-7" d="M497.63,91.4a21,21,0,0,1-3.28,3.15,19.69,19.69,0,0,1-3.71,2.24,15.58,15.58,0,0,0-.59-2.39,12.62,12.62,0,0,0-.88-2.23,15,15,0,0,0,6.54-5.09q-.81-1.52-1.65-3t-1.62-2.79c.77-1.57,1.58-3.35,2.43-5.36s1.71-4.13,2.59-6.38L495.07,69l1.09-4.66,3,.7c.52-1.47,1-2.91,1.49-4.34s.9-2.82,1.3-4.2l3.72,1.15c-.43,1.31-.88,2.66-1.34,4s-1,2.79-1.5,4.22l2.39.57.7.07,2.32.86q-1.74,6.45-3.6,11.32a55,55,0,0,1-4,8.46c.31.63.58,1.24.83,1.85s.44,1.18.6,1.7l-3.72,3C498.2,93,498,92.27,497.63,91.4ZM497,80.48q.39.6.72,1.2c.22.41.45.82.71,1.25a46.28,46.28,0,0,0,2.55-5.45q1.2-3,2.31-6.6l-2.14-.5c-.7,1.79-1.4,3.55-2.09,5.25S497.64,79,497,80.48Zm14.93-3.58q-.64,2.75-1.55,5.87A57.45,57.45,0,0,1,508.16,89a43.94,43.94,0,0,1-2.92,5.82,21.48,21.48,0,0,1-3.83,4.73,6.78,6.78,0,0,0-.51-.86c-.22-.32-.47-.65-.73-1s-.53-.63-.78-.92-.5-.54-.73-.75a19.13,19.13,0,0,0,3.5-4.25,34.61,34.61,0,0,0,2.59-5.12,49.69,49.69,0,0,0,1.88-5.42c.51-1.82,1-3.56,1.36-5.22l3.58-15.29L529.84,65l-3.06,13.07L512.4,74.68Zm12.37,18.17a35.56,35.56,0,0,1-1.42,4.06,9.1,9.1,0,0,1-1.46,2.46,3.32,3.32,0,0,1-1.7,1.07,4.8,4.8,0,0,1-2.15-.07l-4.6-1.08a8.05,8.05,0,0,1-2.31-.86,3,3,0,0,1-1.24-1.42,4.91,4.91,0,0,1-.3-2.19,18.51,18.51,0,0,1,.51-3.12l4.09-17.47,4,.94L515.88,85A36.86,36.86,0,0,0,520,83.39a32.92,32.92,0,0,0,3.55-1.9l2.23,4.29A34.67,34.67,0,0,1,520.42,88c-1.89.59-3.76,1.1-5.59,1.53l-1.26,5.36a3,3,0,0,0-.11,1.61c.11.25.48.45,1.1.6l3.6.84a1.11,1.11,0,0,0,.77,0,1.59,1.59,0,0,0,.65-.76,11.61,11.61,0,0,0,.68-1.79c.25-.79.55-1.82.9-3.08a5.75,5.75,0,0,0,.62.79c.25.27.51.53.79.78s.57.49.87.71S524,94.92,524.25,95.07Zm-10.78-25,10.38,2.44.92-3.93-10.38-2.43Z"/><path class="cls-7" d="M573,97.91l-14,17.4-2.5-2.14,13.33-16.41L570,75.63l3.3,0Zm6,2.15-14,17.39-2.47-2.13,13.3-16.41L576,77.78l3.25-.06Z"/></g><path class="cls-4" d="M292.27,49.9c0,.16,0,.34,0,.52s0,.39,0,.58a5.78,5.78,0,0,1,0,.58c0,.2,0,.37,0,.53v2.77h-1V48.23h1.19l1.12,3.13c.07.2.13.41.2.63l.21.64h0l.21-.64c.07-.22.14-.43.2-.63l1.08-3.13h1.2v6.65h-1V52.11c0-.16,0-.33,0-.53a5.78,5.78,0,0,1,0-.58c0-.19,0-.39,0-.58s0-.36,0-.52h0l-.53,1.59-1,2.79h-.63l-1-2.79-.52-1.59Z"/><path class="cls-4" d="M303.83,51.9a5.23,5.23,0,0,1-.17,1.41,2.56,2.56,0,0,1-.47.95,1.85,1.85,0,0,1-.75.55,2.5,2.5,0,0,1-1,.18,2.45,2.45,0,0,1-1-.18,1.93,1.93,0,0,1-.73-.55,2.41,2.41,0,0,1-.46-.95,5.26,5.26,0,0,1-.16-1.41V48.23h1V52a3.06,3.06,0,0,0,.1.87,1.67,1.67,0,0,0,.26.57,1,1,0,0,0,.4.3,1.31,1.31,0,0,0,.5.09,1.39,1.39,0,0,0,.5-.09,1,1,0,0,0,.41-.3,1.67,1.67,0,0,0,.26-.57,3.06,3.06,0,0,0,.1-.87V48.23h1.09Z"/><path class="cls-4" d="M310.18,53a1.88,1.88,0,0,1-.59,1.41,2.09,2.09,0,0,1-.68.41A2.59,2.59,0,0,1,308,55a3.06,3.06,0,0,1-1.24-.26,3,3,0,0,1-1-.73l.62-.92a2.76,2.76,0,0,0,.37.31,2.13,2.13,0,0,0,.42.23,2.32,2.32,0,0,0,.44.16,1.72,1.72,0,0,0,.44.06,2.71,2.71,0,0,0,.41,0,1.1,1.1,0,0,0,.33-.14.73.73,0,0,0,.24-.22.57.57,0,0,0,.09-.32.66.66,0,0,0-.08-.32.78.78,0,0,0-.23-.25,1.69,1.69,0,0,0-.33-.19l-.4-.18-.78-.33a2.6,2.6,0,0,1-.46-.25,1.79,1.79,0,0,1-.41-.37,2.21,2.21,0,0,1-.3-.52A1.78,1.78,0,0,1,306,50a2,2,0,0,1,.16-.77,1.75,1.75,0,0,1,.42-.61,2,2,0,0,1,.66-.4,2.45,2.45,0,0,1,.83-.14,2.64,2.64,0,0,1,1.08.22A2.69,2.69,0,0,1,310,49l-.58.87a2.5,2.5,0,0,0-.66-.45,1.85,1.85,0,0,0-.78-.16,1.47,1.47,0,0,0-.36,0,.81.81,0,0,0-.3.13.63.63,0,0,0-.21.22.53.53,0,0,0-.08.31.49.49,0,0,0,.09.3.91.91,0,0,0,.24.24,1.36,1.36,0,0,0,.34.18l.39.16.77.32a2.22,2.22,0,0,1,.5.28,1.77,1.77,0,0,1,.68.9A2.3,2.3,0,0,1,310.18,53Z"/><path class="cls-4" d="M316.13,53.78v1.1h-4.06v-1.1h1.48V49.34h-1.48V48.23h4.06v1.11h-1.5v4.44Z"/><path class="cls-4" d="M322.75,54a2.77,2.77,0,0,1-.86.73,2.33,2.33,0,0,1-1.08.25,2.79,2.79,0,0,1-1.09-.22,2.43,2.43,0,0,1-.87-.65,3,3,0,0,1-.58-1.07,4.63,4.63,0,0,1-.21-1.46,5.07,5.07,0,0,1,.2-1.47,3.36,3.36,0,0,1,.57-1.08,2.52,2.52,0,0,1,.88-.68,2.57,2.57,0,0,1,1.11-.24,2.12,2.12,0,0,1,.57.07,2.53,2.53,0,0,1,.48.19,2.42,2.42,0,0,1,.41.27c.13.11.24.22.35.33l-.59.86a2.63,2.63,0,0,0-.54-.42,1.34,1.34,0,0,0-.66-.16,1.58,1.58,0,0,0-.69.15,1.52,1.52,0,0,0-.52.46,2,2,0,0,0-.34.72,3.9,3.9,0,0,0,0,1.92,2.4,2.4,0,0,0,.34.72,1.5,1.5,0,0,0,.53.45,1.58,1.58,0,0,0,.69.15,1.34,1.34,0,0,0,.73-.2,2.48,2.48,0,0,0,.59-.48Z"/><path class="cls-4" d="M301,70.17a5.38,5.38,0,0,1-.18,1.45,3.42,3.42,0,0,1-.54,1.1,2.43,2.43,0,0,1-2,.92,2.44,2.44,0,0,1-1.08-.24,2.53,2.53,0,0,1-.85-.68,3.45,3.45,0,0,1-.56-1.1,5.32,5.32,0,0,1,0-2.89,3.09,3.09,0,0,1,.55-1.07,2.36,2.36,0,0,1,.85-.66,2.7,2.7,0,0,1,2.18,0,2.28,2.28,0,0,1,.85.67,3.48,3.48,0,0,1,.55,1.07A4.85,4.85,0,0,1,301,70.17Zm-4.26,0a3.64,3.64,0,0,0,.11,1,2.38,2.38,0,0,0,.32.72,1.48,1.48,0,0,0,.5.47,1.4,1.4,0,0,0,1.3,0,1.48,1.48,0,0,0,.5-.47,2.16,2.16,0,0,0,.32-.72,3.64,3.64,0,0,0,.11-1,3.49,3.49,0,0,0-.11-1,2.11,2.11,0,0,0-.32-.71,1.32,1.32,0,0,0-.5-.44,1.4,1.4,0,0,0-1.3,0,1.4,1.4,0,0,0-.5.44,2.32,2.32,0,0,0-.32.71A3.49,3.49,0,0,0,296.78,70.17Z"/><path class="cls-4" d="M304.07,71.18v2.35H303V66.88h1.94a3.54,3.54,0,0,1,.95.11,2,2,0,0,1,.75.35,1.66,1.66,0,0,1,.49.64,2.62,2.62,0,0,1,.17,1,2.42,2.42,0,0,1-.18,1,1.82,1.82,0,0,1-.48.69,2.12,2.12,0,0,1-.74.4,3,3,0,0,1-.92.14Zm0-1.05h.82c.89,0,1.34-.39,1.34-1.16a.89.89,0,0,0-.36-.82,1.92,1.92,0,0,0-1-.22h-.79Z"/><path class="cls-4" d="M312.88,72.42v1.11h-3.81V66.88h3.71V68h-2.64v1.56h2v1.11h-2v1.77Z"/><path class="cls-4" d="M315.84,68.53c0,.36.05.75.08,1.15s0,.8,0,1.19v2.66h-1V66.88H316l1.82,3.47.72,1.52h0c0-.35-.07-.73-.1-1.15s0-.82,0-1.21V66.88h1v6.65h-1.1L316.59,70l-.71-1.5Z"/><line class="cls-6" x1="6.42" y1="143.14" x2="599.19" y2="143.14"/></svg>