<svg id="图层_1" data-name="图层 1" xmlns="http://www.w3.org/2000/svg" xmlns:xlink="http://www.w3.org/1999/xlink" viewBox="0 0 608 145.61"><defs><style>.cls-1{fill:none;}.cls-2{fill:#255c3f;}.cls-3{clip-path:url(#clip-path);}.cls-4,.cls-7{fill:#f6ead5;}.cls-5{opacity:0.53;}.cls-6{fill:#3f93a2;stroke-width:4.94px;}.cls-6,.cls-7{stroke:#255c3f;stroke-miterlimit:10;}.cls-7{stroke-width:0.71px;}</style><clipPath id="clip-path"><rect class="cls-1" x="10.17" width="589.02" height="144.87"/></clipPath></defs><rect class="cls-2" x="6.78" width="6.63" height="1523.02"/><rect class="cls-2" x="595.47" width="6.63" height="1523.02"/><g class="cls-3"><path class="cls-4" d="M98.37,53.2l12.92,4.39a46.36,46.36,0,0,0,8.45-4.53l4,4a46.76,46.76,0,0,1-4.84,3.13l5.69,1.91L122,67l-10.62-3.46c-1.17.42-2.39.8-3.66,1.17l2.89,1-.85,1.44H126.3v6H106.14L103.88,77h4.25V74.2h7.5V77h8.63V92.68H115.9l1.49-2.24V83.2h-1.76V95h-7.5V83.2h-1.72v9.48h-7V84.46l-3.66,6.12-5.11-5,7.68-12.37H92.13v-6h9.94l.86-1.35c-2,.42-4.11.7-6.24.93L94,61.88c2.85-.42,5.51-.84,8-1.4l-6.51-2.15Z"/><path class="cls-4" d="M137.77,60.67h4.75v-7.1h6.87v7.1h4.25v6.58h-4.16l5,9.47-2.93,7-2.17-5.18V95h-6.87V81l-2.44,7.19-4.79-4.39,7.23-16.51h-4.75Zm17.58,0h4.34v-7.1h6.92v7.1h4.7v6.58h-4.57l7.37,16.51-5,4.39-2.48-7.51V95h-6.92V80.73l-2.44,7.42-5-4,7.33-16.93h-4.21Z"/><path class="cls-4" d="M194.26,54.51h11.39V95.06h-5.6l1.08-1.82V82.18H200l-.41,12.88h-5.06l0-2.8-4.25,3.31-2.71-3.73q-1.22,1.89-2.71,3.78l-4.43-2.85A35.92,35.92,0,0,0,184.14,87l-3.39-4.71,1.49-16.89H181V58.75h1.86l.4-4.8,6,.37-.5,4.43h5.15c0,10.41-.09,18.9-3.11,26.83l3.84,5.84.18-9.24h-.91V76.44h1l.09-4.43h-.68V66.27h.81l.1-5.46h-.91ZM188,65.38l-1.49,13.76.41.66a61.34,61.34,0,0,0,1.85-14.42Zm12.16,11.06h1V72h-.86Zm.49-15.63-.18,5.46h.68V60.81Zm10.76,34.25V92h1.54c4.11,0,5.37-5,5.37-9.1,0-4.43-1.89-8.91-3-11.57l3.34-16.76h-12V95.06Zm0-27.21V60.9h1.27Zm0,17.41V74.06c1,2.38,2.08,5.55,2.08,7.6,0,.56,0,3.6-2,3.6Z"/><path class="cls-4" d="M238.5,60.67h7.78v-7.1h7.27v7.1h9.31v6.48h-8.72A85.41,85.41,0,0,0,257,77.09l3.75-2.75,3.16,5.46-4.52,3.5a69.61,69.61,0,0,0,4.3,8.77l-6.29,3.36a93.92,93.92,0,0,1-5-11.53v7.75l-12.25,3.5V83l-1.31,1.59-1.63-3.32V95h-6.87V76.39l-1.22,2.38-4.25-5L235.38,53l5.83,2.06-4,7.88V76.62l8.05-9.47H238.5Zm10.31,11.71-1.95,2.38V85.35l5.34-2A94.8,94.8,0,0,1,248.81,72.38Z"/><path class="cls-4" d="M272.12,75c0-2.94,1.22-4.2,4.16-4.2s4.16,1.26,4.16,4.2-1.31,4.2-4.16,4.2S272.12,77.93,272.12,75Z"/><path class="cls-4" d="M291.28,56.93h12.39V53.57h8v3.36h12.43v5.28H291.28ZM299,95V81.15h17.31V92.91L314.79,95h8.72V75.51H291.87V95Zm-3.3-21h23.87V63.7H295.71Zm4.57,18.57h14.78V82.6H300.28ZM303,69.63V68h9.13v1.59ZM306,88.38V86.75h3.39v1.63Z"/><g class="cls-5"><path class="cls-2" d="M306.23,740.08c-4.72,0-9.52,0-14.25-.12l14.08-354.15h0v-.05h0l0-.31-.07.09v-.09l.08-.08h0l.14-.14-.07-.07-.06,0v-.05h0l0,0h0v0h0l0,0,.06,0V385l-.06,0h.06v0l-.07,0,0,0h0v0h0v0h.2l0,.05h0l0,0,.14.07h-.07l-.09,0,0,.06h0l0,0h.1l0,0h-.05l0,0h0l.08.11,0-.13h-.08l0,0,.06,0h0l0,0h0l0-.07h0v0l.06,0-.06,0h.06v0l0,0h.07l.07.09h-.05v0l.15.05.06.07-.2-.1v.06L653.74,656.67a594.24,594.24,0,0,1-63.3,30.21L306.74,385.8l0-.06v0l-.07-.07h0l-.23-.41,0,.19h0l0,.28.18,0,.16.23,63,351.68C348.78,739.25,327.41,740.08,306.23,740.08Zm-.13-354.66.09.31.13-.38-.09-.1Zm.38-.22,0,0,0,0Zm0,0h0Zm0,0Zm-.39-.12Zm0,0h0l0,0h0Zm0,0Zm.35,0Zm-.34-.1,0,0,0,0Zm-91.87,350c-25.76-2.92-51.4-7.12-76.23-12.47L305.54,386.15,65.27,702.76a644.38,644.38,0,0,1-67.4-26.34L305.69,385.74l-.06.23.14-.27.1,0-.26.34Zm232.58-7L306.89,386.15,521,710.8A746.36,746.36,0,0,1,446.81,727.87ZM-62.85,644.06a477.61,477.61,0,0,1-53-37.76l421-220.93.06.08.21-.07.17-.19-.15,0,.22-.11h0l.09-.07-.24.06h0l.29-.07.05-.06.08,0h0l.06,0v0h0l-.08.13h-.06l-.08,0h0l-.21.18.31-.12v0h0l0,.08-.26.12Zm772.53-23.23L307.24,385.45a.83.83,0,0,0,.12-.17l-.5,0-.17-.12h0l.66.13v0l-.51-.12h.21l.4.17.23.05-.16,0L757.26,580A424.19,424.19,0,0,1,709.68,620.83Zm-869.71-57a329.08,329.08,0,0,1-34.51-46.35L304.34,385.39l-522.82,82.85a246.84,246.84,0,0,1-12.76-50.89l536.3-32.14,0,.06-.4.06ZM795.49,535,308.11,385.39,823.43,486.58A294.08,294.08,0,0,1,795.49,535Zm44.85-98.84L307.93,385.33l-.79-.24.41,0,0-.12H845.93A238.58,238.58,0,0,1,840.34,436.12ZM307.18,385.54h0Zm-1.2-.3v0l0,0Zm0,0,0-.05v0Zm0-.1h0V385h0l0,.11.05,0Zm.3,0h0l.06,0h0Zm-.93,0-.43,0s0,0,0-.1h.79Zm1,0Zm0,0,0,0h.05Zm.19,0,0,0h-.08l-.05-.05h0v0h0v0l-.05,0,0,0,.09,0h0l-.1,0,0,0v0h0v0h-.12l-.11,0h0l.11-.05h0l0,0v0h0v-.1l0,.05.06-.06-.09-.21v-.2h0l0,.13,0-.09-.18,0L271.32,30.54c11.56-.49,23.31-.73,34.91-.73,14.25,0,28.67.37,42.85,1.11L306.63,384l.27-.32,119.64-345a759.89,759.89,0,0,1,75.21,15.18L306.91,383.68,572.67,76.06a616.72,616.72,0,0,1,65.07,28.63L306.66,384.39l.24-.7-.3.5-.1.33,0,.11-.1,0,.11,0h0v.08l0-.08h.12l-.15.11v0l.07,0,0,0h0l0,0h0v0h0l0,.05,0,0,.08,0h0l-.07,0,.05,0,0,0v0l.11,0h.47l-.31.05.08,0-.1,0-.24,0h-.06Zm0-.05,0,0h0l0,0Zm0,0h0Zm0,0,.06,0h-.05Zm0,0h0l0,0h0Zm0,0h0Zm0,0,0,0h0Zm0-.09h0Zm.08,0h0Zm0,0h0Zm-.19-.06h0Zm.13-.59,0,.08.05-.07Zm-.12.84,0,0Zm-.15,0h0l0,0Zm0,0h0Zm-.08,0h0Zm-.17,0h0l-.05,0h-.1l-.13-.06.14,0h-.19l-.24-.12.38.05-.05-.05-.46-.14a.1.1,0,0,0,0,.05L-128.35,174.33A455.42,455.42,0,0,1-77.6,135.28l383,249.11-.11-.07.07,0,0,0,.06.05.4.18,0,.09-.36-.21.38.27h-.05l.07.06H306v0h0l0,.07h0l-.07,0v0h0Zm0-.05h0Zm.05-.05h0l0,0h0Zm0,0,0,0Zm-1,.09.3,0,.13,0Zm1.74,0,0,0h0Zm0,0,0,0h-.08l.11,0,.15-.15.44-.05a.84.84,0,0,0-.14-.19L695.74,139.12a445.77,445.77,0,0,1,49.86,39.56L307.48,384.54l.68-.08,478.2-161.8a308.35,308.35,0,0,1,30.73,47.58L308.52,384.41,837,320.28a240.7,240.7,0,0,1,8.58,51.13L307.16,384.8l.67-.23-.89.22h-.09Zm-1.65-.08-537.76-18.56A242.39,242.39,0,0,1-223,315.09L304.31,384.5-201.95,265.2a313.14,313.14,0,0,1,31.82-47.26L304.6,384.53l.5.07a.43.43,0,0,1,0,.07l-.2,0,.19.06S305,384.72,305,384.73Zm.92,0h0Zm0,0h0Zm.75-.13.13-.07,0,0Zm-.64-.09-.14-.27.16.19Zm1.12-.16Zm-1.48-.12L-18.81,101.43a624,624,0,0,1,65.72-28L305.6,383.88l.1.32Zm-.17-.66L118.24,52a762,762,0,0,1,75.52-14.43Z"/></g><polyline class="cls-2" points="30.71 0 30.71 69.63 24.09 69.63 24.09 0"/><polyline class="cls-2" points="47.47 0 47.47 69.63 40.84 69.63 40.84 0"/><polyline class="cls-2" points="64.22 0 64.22 69.63 57.59 69.63 57.59 0"/><polyline class="cls-2" points="80.98 0 80.98 69.63 74.35 69.63 74.35 0"/><polyline class="cls-2" points="97.73 0 97.73 69.63 91.1 69.63 91.1 0"/><polyline class="cls-2" points="114.48 0 114.48 69.63 107.86 69.63 107.86 0"/><polyline class="cls-2" points="131.24 0 131.24 69.63 124.61 69.63 124.61 0"/><polyline class="cls-2" points="147.99 0 147.99 69.63 141.37 69.63 141.37 0"/><polyline class="cls-2" points="164.75 0 164.75 69.63 158.12 69.63 158.12 0"/><polyline class="cls-2" points="181.5 0 181.5 69.63 174.88 69.63 174.88 0"/><polyline class="cls-2" points="198.25 0 198.25 69.63 191.63 69.63 191.63 0"/><polyline class="cls-2" points="215.01 0 215.01 69.63 208.38 69.63 208.38 0"/><polyline class="cls-2" points="231.76 0 231.76 69.63 225.14 69.63 225.14 0"/><polyline class="cls-2" points="248.52 0 248.52 69.63 241.89 69.63 241.89 0"/><polyline class="cls-2" points="265.27 0 265.27 69.63 258.65 69.63 258.65 0"/><polyline class="cls-2" points="282.03 0 282.03 69.63 275.4 69.63 275.4 0"/><polyline class="cls-2" points="298.78 0 298.78 69.63 292.15 69.63 292.15 0"/><polyline class="cls-2" points="315.54 0 315.54 69.63 308.91 69.63 308.91 0"/><polyline class="cls-2" points="332.29 0 332.29 69.63 325.66 69.63 325.66 0"/><polyline class="cls-2" points="349.04 0 349.04 69.63 342.42 69.63 342.42 0"/><polyline class="cls-2" points="365.8 0 365.8 69.63 359.17 69.63 359.17 0"/><polyline class="cls-2" points="382.55 0 382.55 69.63 375.93 69.63 375.93 0"/><polyline class="cls-2" points="399.31 0 399.31 69.63 392.68 69.63 392.68 0"/><polyline class="cls-2" points="416.06 0 416.06 69.63 409.43 69.63 409.43 0"/><polyline class="cls-2" points="432.81 0 432.81 69.63 426.19 69.63 426.19 0"/><polyline class="cls-2" points="449.57 0 449.57 69.63 442.94 69.63 442.94 0"/><polyline class="cls-2" points="466.32 0 466.32 69.63 459.7 69.63 459.7 0"/><polyline class="cls-2" points="483.08 0 483.08 69.63 476.45 69.63 476.45 0"/><polyline class="cls-2" points="499.83 0 499.83 69.63 493.21 69.63 493.21 0"/><polyline class="cls-2" points="516.59 0 516.59 69.63 509.96 69.63 509.96 0"/><polyline class="cls-2" points="533.34 0 533.34 69.63 526.71 69.63 526.71 0"/><polyline class="cls-2" points="550.1 0 550.1 69.63 543.47 69.63 543.47 0"/><polyline class="cls-2" points="566.85 0 566.85 69.63 560.22 69.63 560.22 0"/><polyline class="cls-2" points="583.6 0 583.6 69.63 576.98 69.63 576.98 0"/><path class="cls-6" d="M597.12,66.56V142.3c-74.51-30-178.38-48.55-293.27-48.55S85.07,112.34,10.57,142.3V66.57c74.5-25.3,178.38-41,293.28-41S522.61,41.27,597.12,66.56Z"/><path class="cls-7" d="M62.54,109.9a9.9,9.9,0,0,1-3.22,2q-2.07.84-5,1.72c-.2-.39-.45-.82-.74-1.31a17.11,17.11,0,0,0-1-1.45c-.34-.48-.69-1-1-1.42a13.66,13.66,0,0,0-1-1.22l2.19-.56,2-.54c.62-.17,1.17-.34,1.63-.5l1-.34a1.59,1.59,0,0,0,.84-.59,1.42,1.42,0,0,0,0-1.06l-4-13L38.94,96.22l-1.71-5.61,15.4-4.67-3-9.76L36.92,80.05l-1.7-5.61,29.62-9,1.7,5.61-12,3.63,3,9.76L72.15,80l1.71,5.62L59.24,90.06l4,13.09a11.67,11.67,0,0,1,.67,4.16A3.94,3.94,0,0,1,62.54,109.9Z"/><path class="cls-7" d="M127.4,77.79c-.28-.62-.64-1.34-1.1-2.15l-1.42-2.54,4,21.81-4.25.78-3.47-18.87q-.24,3.18-.69,5.94a32.42,32.42,0,0,1-1.13,4.86,15,15,0,0,0-.71-1.34c-.28-.49-.57-1-.87-1.48s-.61-1-.92-1.43l-.87-1.2a23.83,23.83,0,0,0,1.12-3.72c.31-1.39.58-2.86.8-4.42s.39-3.15.51-4.77.17-3.19.17-4.71l-4.81.89-1-5.38,5.13-1L116.25,50l4.24-.78,1.68,9.09,4.12-.76,1,5.38-4.12.76.3,1.66c.32.38.77.95,1.35,1.7s1.18,1.55,1.8,2.38l1.74,2.33,1.14,1.59Zm18.16,2.78,2,10.9-4.76.88-2-10.9L132.38,83l-1-5.33,8.41-1.54-.87-4.7-9.49,1.75-1-5.38,5.49-1a33.67,33.67,0,0,0-1.56-3.5,31.13,31.13,0,0,0-2-3.52l2.59-1.69-5.05.93-1-5.23,8.89-1.64c-.39-.6-.83-1.22-1.32-1.85a18.33,18.33,0,0,0-1.44-1.68l3.4-2.91A18.87,18.87,0,0,1,138.63,48a14.86,14.86,0,0,1,1.64,2.48l-1.14,1L148,49.89l1,5.23-5.73,1.06,4,.32c-.21,1.39-.45,2.78-.72,4.18s-.53,2.71-.81,3.94l6.13-1.13,1,5.38-9.09,1.68.87,4.69,7.77-1.43,1,5.33ZM135.47,66.5l5.81-1.07c.22-1.35.41-2.85.56-4.5s.25-3.16.3-4.55l-8,1.47a31.47,31.47,0,0,1,2.2,3.54,25.8,25.8,0,0,1,1.56,3.4Z"/><path class="cls-7" d="M215.29,58a34.6,34.6,0,0,1,0,6.59,20.09,20.09,0,0,1-1.93,6.82A24.3,24.3,0,0,1,208.52,78a34.55,34.55,0,0,1-8.66,6.09c-.19-.32-.43-.67-.71-1.06s-.59-.8-.93-1.22-.69-.81-1.05-1.2-.71-.71-1-1a32.84,32.84,0,0,0,8.19-5.17A19,19,0,0,0,208.66,69a14.63,14.63,0,0,0,1.59-5.46,32,32,0,0,0,0-5.19l-1-11.24,5.07-.46ZM202.58,45.08l2.27,24.71-4.87.44-2.77-30.15,27.71-2.54,2.74,29.91-5.11.47L220.3,43.46Zm14.95,24.29q1.68.6,3.69,1.44c1.33.56,2.66,1.14,4,1.76s2.58,1.23,3.77,1.87,2.21,1.24,3.05,1.79l-2.45,5c-.78-.56-1.75-1.17-2.89-1.83s-2.35-1.33-3.66-2-2.63-1.32-4-1.93-2.62-1.16-3.81-1.65Z"/><path class="cls-7" d="M379.72,80.2l-3.11,1L370.72,59.6,379.39,39l3,1.36-8.22,19.46Zm6.33.42-3.15.95L377.05,60l8.63-20.6,3,1.37-8.26,19.45Z"/><path class="cls-7" d="M442.13,80.71l-1.05,7.22-4.46-.65,1.05-7.22-14-2,.72-4.91,14,2,.41-2.87L428,70.7,430.69,52l5.84.85a24.66,24.66,0,0,0-1-2.9c-.41-1-.82-2-1.24-2.85l4-1.45q.45.78.87,1.68c.28.6.55,1.21.81,1.84s.49,1.23.7,1.82a12.2,12.2,0,0,1,.47,1.58l-1.69.7,7.76,1.13c.74-1,1.49-2.12,2.26-3.32a30.08,30.08,0,0,0,1.9-3.41l4.54,2.38c-.62.9-1.27,1.78-1.93,2.61s-1.3,1.65-1.91,2.44l5.19.75-2.71,18.69-11.31-1.64-.42,2.88,14.22,2.06-.71,4.91ZM432.82,67l6.6,1,.44-3.06-6.6-1Zm1-7,6.6,1,.44-3-6.6-.95Zm10,8.64,6.86,1,.44-3-6.85-1Zm1-7,6.86,1,.44-3-6.86-1Z"/><path class="cls-7" d="M514.42,94.49l-1.8,7.48-4.56-1.09,1.79-7.48-15.79-3.79,1.21-5,15.79,3.78,1.15-4.79-7.56-1.81A17.82,17.82,0,0,0,502,81.3a2.93,2.93,0,0,0-1.59.12c0-.27,0-.64,0-1.12s0-1,0-1.53-.05-1.08-.08-1.61-.08-1-.14-1.41a3.66,3.66,0,0,0,1.63-.88,18,18,0,0,0,1.84-1.79c.62-.68,1.19-1.37,1.72-2.07l1.3-1.72-6.53-1.56,1.2-5,8.49,2c.65-1,1.27-1.93,1.87-2.94s1.16-2,1.71-3.06L518,61.48c-.49.77-1,1.53-1.47,2.27s-1,1.49-1.54,2.25l17,4.07-1.2,5L511.64,70.5c-.93,1.15-1.85,2.28-2.76,3.36s-1.81,2.11-2.69,3.06l7.2,1.72L514.74,73l4.56,1.09L518,79.74l8.73,2.09-1.17,4.92-8.74-2.1-1.14,4.79,11.76,2.82-1.21,5Z"/><path class="cls-7" d="M576.08,99,562,116.31l-2.49-2.16,13.43-16.32.37-21.13,3.29,0Zm5.95,2.19-14.15,17.3-2.45-2.14L578.83,100l.4-21.12,3.26,0Z"/></g><path class="cls-4" d="M292.27,49.9c0,.16,0,.34,0,.52s0,.39,0,.58a5.78,5.78,0,0,1,0,.58c0,.2,0,.37,0,.53v2.77h-1V48.23h1.19l1.12,3.13c.07.2.13.41.2.63l.21.64h0l.21-.64c.07-.22.14-.43.2-.63l1.08-3.13h1.2v6.65h-1V52.11c0-.16,0-.33,0-.53a5.78,5.78,0,0,1,0-.58c0-.19,0-.39,0-.58s0-.36,0-.52h0l-.53,1.59-1,2.79h-.63l-1-2.79-.52-1.59Z"/><path class="cls-4" d="M303.83,51.9a5.23,5.23,0,0,1-.17,1.41,2.56,2.56,0,0,1-.47.95,1.85,1.85,0,0,1-.75.55,2.5,2.5,0,0,1-1,.18,2.45,2.45,0,0,1-1-.18,1.93,1.93,0,0,1-.73-.55,2.41,2.41,0,0,1-.46-.95,5.26,5.26,0,0,1-.16-1.41V48.23h1V52a3.06,3.06,0,0,0,.1.87,1.67,1.67,0,0,0,.26.57,1,1,0,0,0,.4.3,1.31,1.31,0,0,0,.5.09,1.39,1.39,0,0,0,.5-.09,1,1,0,0,0,.41-.3,1.67,1.67,0,0,0,.26-.57,3.06,3.06,0,0,0,.1-.87V48.23h1.09Z"/><path class="cls-4" d="M310.18,53a1.88,1.88,0,0,1-.59,1.41,2.09,2.09,0,0,1-.68.41A2.59,2.59,0,0,1,308,55a3.06,3.06,0,0,1-1.24-.26,3,3,0,0,1-1-.73l.62-.92a2.76,2.76,0,0,0,.37.31,2.13,2.13,0,0,0,.42.23,2.32,2.32,0,0,0,.44.16,1.72,1.72,0,0,0,.44.06,2.71,2.71,0,0,0,.41,0,1.1,1.1,0,0,0,.33-.14.73.73,0,0,0,.24-.22.57.57,0,0,0,.09-.32.66.66,0,0,0-.08-.32.78.78,0,0,0-.23-.25,1.69,1.69,0,0,0-.33-.19l-.4-.18-.78-.33a2.6,2.6,0,0,1-.46-.25,1.79,1.79,0,0,1-.41-.37,2.21,2.21,0,0,1-.3-.52A1.78,1.78,0,0,1,306,50a2,2,0,0,1,.16-.77,1.75,1.75,0,0,1,.42-.61,2,2,0,0,1,.66-.4,2.45,2.45,0,0,1,.83-.14,2.64,2.64,0,0,1,1.08.22A2.69,2.69,0,0,1,310,49l-.58.87a2.5,2.5,0,0,0-.66-.45,1.85,1.85,0,0,0-.78-.16,1.47,1.47,0,0,0-.36,0,.81.81,0,0,0-.3.13.63.63,0,0,0-.21.22.53.53,0,0,0-.08.31.49.49,0,0,0,.09.3.91.91,0,0,0,.24.24,1.36,1.36,0,0,0,.34.18l.39.16.77.32a2.22,2.22,0,0,1,.5.28,1.77,1.77,0,0,1,.68.9A2.3,2.3,0,0,1,310.18,53Z"/><path class="cls-4" d="M316.13,53.78v1.1h-4.06v-1.1h1.48V49.34h-1.48V48.23h4.06v1.11h-1.5v4.44Z"/><path class="cls-4" d="M322.75,54a2.77,2.77,0,0,1-.86.73,2.33,2.33,0,0,1-1.08.25,2.79,2.79,0,0,1-1.09-.22,2.43,2.43,0,0,1-.87-.65,3,3,0,0,1-.58-1.07,4.63,4.63,0,0,1-.21-1.46,5.07,5.07,0,0,1,.2-1.47,3.36,3.36,0,0,1,.57-1.08,2.52,2.52,0,0,1,.88-.68,2.57,2.57,0,0,1,1.11-.24,2.12,2.12,0,0,1,.57.07,2.53,2.53,0,0,1,.48.19,2.42,2.42,0,0,1,.41.27c.13.11.24.22.35.33l-.59.86a2.63,2.63,0,0,0-.54-.42,1.34,1.34,0,0,0-.66-.16,1.58,1.58,0,0,0-.69.15,1.52,1.52,0,0,0-.52.46,2,2,0,0,0-.34.72,3.9,3.9,0,0,0,0,1.92,2.4,2.4,0,0,0,.34.72,1.5,1.5,0,0,0,.53.45,1.58,1.58,0,0,0,.69.15,1.34,1.34,0,0,0,.73-.2,2.48,2.48,0,0,0,.59-.48Z"/><path class="cls-4" d="M301,70.17a5.38,5.38,0,0,1-.18,1.45,3.42,3.42,0,0,1-.54,1.1,2.43,2.43,0,0,1-2,.92,2.44,2.44,0,0,1-1.08-.24,2.53,2.53,0,0,1-.85-.68,3.45,3.45,0,0,1-.56-1.1,5.32,5.32,0,0,1,0-2.89,3.09,3.09,0,0,1,.55-1.07,2.36,2.36,0,0,1,.85-.66,2.7,2.7,0,0,1,2.18,0,2.28,2.28,0,0,1,.85.67,3.48,3.48,0,0,1,.55,1.07A4.85,4.85,0,0,1,301,70.17Zm-4.26,0a3.64,3.64,0,0,0,.11,1,2.38,2.38,0,0,0,.32.72,1.48,1.48,0,0,0,.5.47,1.4,1.4,0,0,0,1.3,0,1.48,1.48,0,0,0,.5-.47,2.16,2.16,0,0,0,.32-.72,3.64,3.64,0,0,0,.11-1,3.49,3.49,0,0,0-.11-1,2.11,2.11,0,0,0-.32-.71,1.32,1.32,0,0,0-.5-.44,1.4,1.4,0,0,0-1.3,0,1.4,1.4,0,0,0-.5.44,2.32,2.32,0,0,0-.32.71A3.49,3.49,0,0,0,296.78,70.17Z"/><path class="cls-4" d="M304.07,71.18v2.35H303V66.88h1.94a3.54,3.54,0,0,1,.95.11,2,2,0,0,1,.75.35,1.66,1.66,0,0,1,.49.64,2.62,2.62,0,0,1,.17,1,2.42,2.42,0,0,1-.18,1,1.82,1.82,0,0,1-.48.69,2.12,2.12,0,0,1-.74.4,3,3,0,0,1-.92.14Zm0-1.05h.82c.89,0,1.34-.39,1.34-1.16a.89.89,0,0,0-.36-.82,1.92,1.92,0,0,0-1-.22h-.79Z"/><path class="cls-4" d="M312.88,72.42v1.11h-3.81V66.88h3.71V68h-2.64v1.56h2v1.11h-2v1.77Z"/><path class="cls-4" d="M315.84,68.53c0,.36.05.75.08,1.15s0,.8,0,1.19v2.66h-1V66.88H316l1.82,3.47.72,1.52h0c0-.35-.07-.73-.1-1.15s0-.82,0-1.21V66.88h1v6.65h-1.1L316.59,70l-.71-1.5Z"/><line class="cls-6" x1="6.42" y1="143.14" x2="599.19" y2="143.14"/></svg>