<svg id="圖層_1" data-name="圖層 1" xmlns="http://www.w3.org/2000/svg" viewBox="0 0 582.22 176.85"><defs><style>.cls-1{fill:#231815;}</style></defs><path class="cls-1" d="M20.38,19.85a51.23,51.23,0,0,0,2.42-5l5.81.76q-.86,2.18-1.86,4.19H51.84v5.7H23.42a59.32,59.32,0,0,1-4.85,6.06H26.8V27.18h5.92v4.43H47.61V45.7c0,4.13-1.81,6.22-5.41,6.22h-5L35.6,46.16l4.68.29c1,0,1.52-.7,1.52-2.09V37.2H32.72V54.78H26.8V37.2H18.4V52.51H12.54V37.2c-2.42,1.92-5,3.72-7.73,5.47L1.26,37.84A56.85,56.85,0,0,0,16.32,25.55H2.05v-5.7ZM45.8,3.43a98,98,0,0,1-9.52,5.42c3.94,1.45,7.78,3,11.5,4.65l-3.22,5c-5.18-2.39-10.43-4.54-15.73-6.4-5,1.86-11.61,3.84-20,6.05l-3.15-5.3A112.52,112.52,0,0,0,20.43,9.25C16.49,8,12.6,6.87,8.65,5.94l3-4.72c5.92,1.52,11.62,3.2,17,5a92.94,92.94,0,0,0,12-6.06Z"/><path class="cls-1" d="M76.64,11.35V.58h5.92V11.35h7v5.88h-7v2.39c2.93,2.67,5.86,5.64,8.85,9l-3.5,5.36c-2.08-3.38-3.89-6.11-5.35-8.21V54.25H76.64V26.84a69.59,69.59,0,0,1-7,14.61l-2.54-6.76A50.72,50.72,0,0,0,76.3,17.23H68.52V11.35Zm24.18,0V.58h5.92V11.35H118v5.88H107.14A61.19,61.19,0,0,0,119.82,39l-3.89,5.47a82.6,82.6,0,0,1-9.19-18.62v28.4h-5.92V25.9a72.31,72.31,0,0,1-10.31,19l-3.39-5.82q8.37-8.2,13.37-21.89H91.18V11.35Z"/><path class="cls-1" d="M144.62,1c-.39,3.61-.79,7-1.18,10.19h7.27v3.31a82.59,82.59,0,0,1-3.78,23.76c1.47,1.74,2.77,3.31,3.84,4.77l-3.61,4.31c-.79-1.17-1.58-2.27-2.48-3.44a42.35,42.35,0,0,1-7,10.65L134.19,50A37.8,37.8,0,0,0,141,39.41c-1.86-2.21-3.94-4.48-6.2-6.87,1-4.89,1.92-10.13,2.71-15.83h-3.27V11.18h4c.4-3.5.79-7,1.13-10.66Zm1,15.72h-2.93c-.85,5.7-1.7,10.47-2.6,14.32,1,1,1.92,2,2.82,2.91A77.84,77.84,0,0,0,145.64,16.71Zm9.13-.93V8.15h-3.16V2.79H168c0,23.17-.23,37.49-.56,42.91s-2.43,8.09-6,8.09a27.15,27.15,0,0,1-3.38-.35l-1.36-5.18c1.47.11,2.71.23,3.84.23s1.86-1.69,2.08-5c.06-1.51.12-4.54.23-9.08h-4c-1.07,8.39-3.16,14.91-6.32,19.62l-4.06-3.67c2.6-3.9,4.34-9.19,5.36-16h-2.65V29.05h3.21c.17-2.56.28-5.18.34-7.92H151.9V15.78ZM163,21.13h-3.22c0,2.79-.17,5.41-.34,7.92H163Zm.05-13h-3.27v7.63H163C163,13.33,163,10.83,163,8.15Zm21.88-5.41V7.1C184,12,183,17.17,181.72,22.53a48.92,48.92,0,0,1,3.78,14.55c0,3.38-.45,5.71-1.3,7.1-1.35,1.81-3.61,2.74-6.76,2.8l-1.75-5.59a31.57,31.57,0,0,0,3.55.29,1.58,1.58,0,0,0,.85-1.11,23.2,23.2,0,0,0,.22-3.49c0-4.07-1.24-8.61-3.72-13.74,1.41-5.64,2.48-10.82,3.16-15.48h-4.4V54.31h-5.13V2.74Z"/><path class="cls-1" d="M217.12,2.68a67.18,67.18,0,0,1-4.51,11.23V34.4a47.21,47.21,0,0,0,14-19.73h-11V8.91H230.2a59.92,59.92,0,0,0-2.37-7.22l6.32-1c.67,2.44,1.35,5.18,2,8.27h14v5.76H238.32a64.72,64.72,0,0,0,2.48,12.69,42.75,42.75,0,0,0,7-7l3.67,4.84a48.52,48.52,0,0,1-8.8,7.39,43.91,43.91,0,0,0,9.75,14.9l-3.55,5.88q-13.53-14.15-16-38.71h-.23a62.53,62.53,0,0,1-4.84,10.88V45.93a98.81,98.81,0,0,0,9.13-3.78l1,5.82A135.77,135.77,0,0,1,221,54l-1.24-5.24a3.1,3.1,0,0,0,2.2-3v-12A72.76,72.76,0,0,1,215.6,40l-3-5V54.25h-6V23.63c-1.58,2.1-3.27,4.2-5.07,6.23l-1.92-6.46a65.16,65.16,0,0,0,12-23.4Z"/><path class="cls-1" d="M281.72,24.27a4.21,4.21,0,0,1,1.3,3.15,4.36,4.36,0,0,1-1.3,3.14,4.12,4.12,0,0,1-3,1.34,4,4,0,0,1-3.05-1.34,4.16,4.16,0,0,1-1.29-3.14,4,4,0,0,1,1.29-3.15,3.77,3.77,0,0,1,3.05-1.33A3.9,3.9,0,0,1,281.72,24.27Z"/><path class="cls-1" d="M334.44,4.83H356.2v5.59H306V4.83H328a34.82,34.82,0,0,0-1.58-3.49L333,.17C333.48,1.57,334,3.14,334.44,4.83Zm7.94,49.42L341,48.9l4.34.17c2,0,3-.7,3-2.09V32.71H313.91V54.43h-5.58V27.48h45.56V48.2c0,4-2.31,6-6.88,6Zm5.25-41.44V25.15h-33V12.81ZM342.78,35V47.62H319.55V35ZM342,17.35H320.28v3.26H342Zm-4.4,22.18H324.74v3.6h12.85Z"/><path class="cls-1" d="M19.54,68.9,8.6,93.81l10.71,24.92L14.47,121,2.8,93.81,14.47,66.63Zm9.59,0L18.41,93.81l10.72,24.92L24.28,121,12.61,93.81,24.28,66.63Z"/><path class="cls-1" d="M78.62,96.43V93h5.92v3.43H96v5.82H84.54V113.9c0,4.19-2.14,6.28-6.37,6.28H71.4l-1.29-5.76a54.28,54.28,0,0,0,6,.35c1.69,0,2.54-.82,2.54-2.39V102.25H45.69V96.43Zm4.45-18.57V74.31H52.51V68.84H88.88V92.18h-37V86.71H83.07V83.16H54v-5.3ZM68.58,111.33l-4.23,4.37A55.85,55.85,0,0,0,55,107.08l4-4A68.45,68.45,0,0,1,68.58,111.33Z"/><path class="cls-1" d="M139.73,80.13q4.91,23,24.13,35.1l-4,5.36a58.83,58.83,0,0,1-22.33-29.4Q132,109,114.41,120.71l-3.61-5.48q22.67-14,23.29-39.06c0-3.9.06-6.92.06-9.14h6C140.12,72.16,140,76.52,139.73,80.13Z"/><path class="cls-1" d="M189.39,93.52q-.09,16-7.39,27.59l-4.62-4.3c4.06-6.06,6.15-13.8,6.2-23.29V72.68H202c-.73-1.92-1.52-3.72-2.31-5.35l6.14-1c.74,1.92,1.47,4.07,2.2,6.4h18.1v18.4H189.39Zm0-15.13v7.1h30.9v-7.1Zm36.08,42.67h-5.75v-2.62H197.28v2.62h-5.75V97.54h33.94Zm-5.75-8.33v-9.49H197.28v9.49Z"/><path class="cls-1" d="M267.47,77.4V74.78H246V69.65h21.43V66.8h5.86v2.85h21.43v5.13H273.33V77.4H290V89.62H273.33V92.3h17.42v7.57h5.53v4.83h-5.53v7.62H273.33V115c0,3.73-2,5.59-5.86,5.59h-6.94l-1.24-5.71a56.57,56.57,0,0,0,6.21.41c1.29,0,2-.58,2-1.74v-1.23H249.6v-4.77h17.87V104.7h-23V99.87h23V97H249.65V92.3h17.82V89.62H250.78V77.4Zm0,4.48H256.64V85.2h10.83Zm16.69,0H273.33V85.2h10.83Zm-10.83,18h11.84V97H273.33Zm0,4.83v2.85h11.84V104.7Z"/><path class="cls-1" d="M328.63,93.81,317,121l-4.85-2.27,10.72-24.92L312.11,68.9,317,66.63Zm9.81,0L326.77,121l-4.85-2.27,10.72-24.92L321.7,68.9l5.07-2.27Z"/><path class="cls-1" d="M16.21,162.42v-1.69h2.91v1.69h5.67v2.87H19.12V171c0,2.06-1.05,3.09-3.13,3.09H12.66L12,171.28a25.18,25.18,0,0,0,2.94.18c.83,0,1.25-.41,1.25-1.18v-5H0v-2.87Zm2.19-9.14v-1.75h-15v-2.7h17.9v11.5H3v-2.69H18.4v-1.75H4.08v-2.61Zm-7.13,16.48-2.08,2.15a27.72,27.72,0,0,0-4.61-4.24l2-1.95A34.78,34.78,0,0,1,11.27,169.76Z"/><path class="cls-1" d="M41.83,161.94c-1,.51-1.94,1-2.94,1.49v7.85c0,2-1,3-2.86,3H33.65L33,171.34a12.79,12.79,0,0,0,2.06.2c.61,0,.94-.34.94-1v-5.82c-1,.4-2,.77-3,1.12l-.81-3.19A29.85,29.85,0,0,0,36,161.48v-5.74H32.51v-2.89H36V148h2.91v4.85h2.89v2.89H38.89v4.56c1-.46,2-.94,2.94-1.49Zm14.74-5.71-8.21,1.55a28.16,28.16,0,0,0,.5,3.38c.22,1.09.44,2.09.72,3a25.26,25.26,0,0,0,4.16-5.93l2.5,1.34a27.41,27.41,0,0,1-5.61,7.66c.17.4.34.77.53,1.12.94,1.6,1.81,2.44,2.58,2.46.56-.11,1.11-1.57,1.67-4.44L58,168a26,26,0,0,1-1.61,4.1c-.72,1.32-1.56,2-2.47,2-1.33,0-2.67-.94-4-2.78A13.18,13.18,0,0,1,48.5,169a24.91,24.91,0,0,1-5.83,3.12l-1.61-2.55a22.83,22.83,0,0,0,6.3-3.38c-.33-1-.64-2-.92-3a33.33,33.33,0,0,1-.91-4.88l-3.28.63-.42-2.86,3.42-.63c-.2-2.27-.31-4.79-.31-7.54h3c0,2.58,0,4.9.22,7l8-1.52Zm-1.91-4.67-2.61,1.34a29.55,29.55,0,0,0-2.53-3.75l2.56-1.29A37.53,37.53,0,0,1,54.66,151.56Z"/><path class="cls-1" d="M65.52,163.43v-2.7H90.3v2.7H79.67v2.41h7.66v2.63H79.67v2.76c1.25.11,2.7.17,4.31.17,2.47,0,4.55-.06,6.24-.12l-.8,2.81c-2,0-3.7,0-5.25-.05-4.61,0-7.74-.41-9.46-1.09a8.5,8.5,0,0,1-3.56-3.3,16.05,16.05,0,0,1-4,4.82L65.3,172a14.8,14.8,0,0,0,5-8l2.75.49a27,27,0,0,1-.89,2.84,7.1,7.1,0,0,0,3.63,3.21l.92.26v-7.37Zm21.12-14.68v10.46H69.27V148.75Zm-2.86,4v-1.52H72.15v1.52Zm0,2.35H72.15v1.55H83.78Z"/><path class="cls-1" d="M102.25,155.31v-3.55H98.64v-2.87h12.29q0,17.12-.41,21.16c-.28,2.64-1.64,4-4,4-.5,0-1.36-.06-2.52-.18l-.72-2.72a24.39,24.39,0,0,0,2.74.17c1.09,0,1.7-.83,1.86-2.46.06-.69.11-2.07.17-4.16h-3.61c-.78,4.13-2.25,7.31-4.47,9.6l-2.16-1.94a15.25,15.25,0,0,0,3.86-7.66h-3v-2.81h3.36c.11-1.12.17-2.29.2-3.5v-.23H98.69v-2.81Zm5.85,2.81H105v.23c0,1.23-.09,2.41-.17,3.5h3.28C108.08,160.7,108.1,159.47,108.1,158.12Zm.06-6.36H105v3.55h3.16C108.13,154.17,108.13,153,108.16,151.76ZM123,148.89v2.29A78.53,78.53,0,0,1,120,159.3c2.14,2.58,3.22,4.67,3.25,6.33,0,2-.39,3.39-1.11,4.1s-2.39,1.21-4.78,1.21l-.88-3.15c1.08.11,2,.2,2.74.2a1,1,0,0,0,1-.52,5.18,5.18,0,0,0,.25-1.84c0-1.6-1.17-3.72-3.44-6.33a77.87,77.87,0,0,0,2.83-7.6h-4.17v22.77h-2.83V148.89Z"/><path class="cls-1" d="M132.4,158.72l-2-2.55a15.44,15.44,0,0,0,5.56-8.54l3,.57a26.08,26.08,0,0,1-.83,2.58h16.74v2.9h-8.44v3.7h7.47v2.81h-7.47v5.3h9.27v2.93h-9.27v6.1h-2.91v-6.1h-12.5v-2.93h4.28v-8.11h8.22v-3.7h-6.78A17.34,17.34,0,0,1,132.4,158.72Zm11.16,6.77v-5.3h-5.31v5.3Z"/><path class="cls-1" d="M169.57,168.07a4,4,0,0,1,.72,2.47,6.53,6.53,0,0,1-1.28,4,6.64,6.64,0,0,1-3.46,2.33V175a4.6,4.6,0,0,0,1.91-1.37,3.39,3.39,0,0,0,.72-2,2,2,0,0,1-.69.12A2.06,2.06,0,0,1,166,171a2.26,2.26,0,0,1-.61-1.61,2.06,2.06,0,0,1,.67-1.63,2.19,2.19,0,0,1,1.66-.63A2.32,2.32,0,0,1,169.57,168.07Z"/><path class="cls-1" d="M209.24,164c-1.47.52-3,1-4.61,1.41v5.82c0,1.89-1,2.86-2.91,2.86h-3.14l-.64-2.83a24.79,24.79,0,0,0,2.78.17.87.87,0,0,0,1-1v-4.33c-1.61.35-3.25.66-5,.95l-.41-3c1.88-.29,3.69-.63,5.38-1v-4.94h-5.41v-2.86h5.41v-2.67c-1.33.29-2.69.52-4.13.72l-.62-2.84a37.16,37.16,0,0,0,10.27-2.52l1,2.81c-1.13.43-2.33.8-3.58,1.14v3.36h5.69c-.16-2.21-.22-4.65-.22-7.29H213c0,2.76.11,5.17.27,7.29h8.3v2.86h-8.08a29.3,29.3,0,0,0,.73,4.59c.11.46.22.86.33,1.26a25.22,25.22,0,0,0,3-4.87l2.5,1.38a27.75,27.75,0,0,1-4.39,6.73,9.78,9.78,0,0,0,.89,1.75c.78,1.26,1.39,1.89,1.78,1.89s.61-1.46.94-4.32l2.58,1.4c-.72,4.1-1.75,6.16-3.11,6.16s-2.5-.86-3.8-2.55a13.58,13.58,0,0,1-1.39-2.26,22.52,22.52,0,0,1-6.3,3.78l-1.61-2.55a20.42,20.42,0,0,0,6.72-4.13c-.31-.92-.58-1.86-.83-2.84a35.1,35.1,0,0,1-1-5.42h-5.94v4.25c1.61-.43,3.17-.89,4.61-1.41Zm11.82-12L219,154.14a27.71,27.71,0,0,0-4.85-4l1.94-1.92A38.59,38.59,0,0,1,221.06,152Z"/><path class="cls-1" d="M237.61,148.92a35.19,35.19,0,0,1-2.77,6.36v19.21H232V159.56c-.75.94-1.55,1.86-2.38,2.78l-.95-3.07A32,32,0,0,0,235,147.63Zm2.64,3.84v21.68h-2.86V152.76Zm3.67-.57-2.28,1.63a32.33,32.33,0,0,0-2.75-4.5l2.22-1.43A36.14,36.14,0,0,1,243.92,152.19Zm4,22-.78-2.81,2.64.08c.67,0,1-.45,1-1.37V152.33h-6.3v-2.89h9.19v21.5c0,2.18-1.11,3.27-3.31,3.27Z"/><path class="cls-1" d="M263.24,166l-1.86-2.5a32.65,32.65,0,0,0,7.47-9.08h-6.47v-2.93h7.86a39.38,39.38,0,0,0,1.36-3.87l3,.37c-.33,1.21-.72,2.35-1.14,3.5h13.44v2.93H272.18a36.42,36.42,0,0,1-3.75,6.1v14h-2.86V163.8C264.82,164.54,264.05,165.26,263.24,166Zm13.16-5V156h2.94v4.93h6.36v2.93h-6.36v6.71h7.55v2.92H269.43v-2.92h7v-6.71h-6v-2.93Z"/><path class="cls-1" d="M300,165.38a29.44,29.44,0,0,1-3.17,8.25L294.28,172a23.78,23.78,0,0,0,2.94-7.23Zm16.26-16.63v14H298.08v-14Zm-10.46,5.7v-2.89h-4.83v2.89Zm0,2.64h-4.83v2.81h4.83Zm-1.64,17c-2.13,0-3.19-1.12-3.19-3.32V164.6h2.89v5.54c0,.74.39,1.11,1.19,1.11h5.91a.9.9,0,0,0,.84-.48,8.55,8.55,0,0,0,.44-3l2.77.94c-.22,2.64-.61,4.19-1.16,4.68a3.5,3.5,0,0,1-2.36.71Zm6.61-5.93-2.67,1.23a32.09,32.09,0,0,0-2.55-5.25l2.61-.89A29.08,29.08,0,0,1,310.74,168.16Zm-2.25-13.71h4.89v-2.89h-4.89Zm4.89,2.64h-4.89v2.81h4.89ZM320,171.37l-2.69,1.23a47.83,47.83,0,0,0-3.78-7.65l2.78-.92A51.37,51.37,0,0,1,320,171.37Z"/><path class="cls-1" d="M333.7,164.54a28,28,0,0,1-3.72,8.61l-2.5-1.61A23.75,23.75,0,0,0,330.9,164Zm7.52-16.62c2.47,2.63,6.19,4.81,11.19,6.56L350.77,157a29.11,29.11,0,0,1-10.8-6.42,35.19,35.19,0,0,1-10.74,6.59l-1.66-2.5a31.67,31.67,0,0,0,11.15-6.7Zm1.39,7-1.55,1.61h6.52v2.38c-1.45,2.69-4.89,4.76-10.3,6.13l-1.08-2.61c3.74-.54,6.44-1.66,8.07-3.32H332.51v-2.58h8a18.58,18.58,0,0,0-2.94-2.5l1.8-1.8A22.17,22.17,0,0,1,342.61,154.91Zm-5.41,19c-2.14,0-3.2-1.09-3.2-3.21v-4.85H337v4.25a1,1,0,0,0,1.11,1.14h4.72a2,2,0,0,0,1.44-.43c.39-.31.67-1.23.78-2.75l2.66.89c-.28,2.41-.75,3.84-1.41,4.3a5.46,5.46,0,0,1-2.95.66Zm6.3-5.45-2.67,1.23a25.47,25.47,0,0,0-1.88-4.12l2.63-.89A30.45,30.45,0,0,1,343.5,168.5Zm9.05,2-2.47,1.75a62.56,62.56,0,0,0-4.56-7.6l2.22-1.44A59.83,59.83,0,0,1,352.55,170.54Z"/><path class="cls-1" d="M362.63,162.77v-14h20.15v14H374.2v2.55h9.69v2.84H374.2v2.61h10.86v2.89H360.38v-2.89h10.88v-2.61h-9.69v-2.84h9.69v-2.55Zm2.86-11.27v2.92h5.77V151.5Zm0,8.52h5.77v-2.84h-5.77Zm14.43-8.52H374.2v2.92h5.72Zm0,8.52v-2.84H374.2V160Z"/><path class="cls-1" d="M398,161.45v7.65c0,1,.5,1.55,1.5,1.55h13.79a1.88,1.88,0,0,0,1.25-.51c.39-.41.64-2.1.8-5l2.84.92c-.37,3.67-.84,5.82-1.39,6.45a4.13,4.13,0,0,1-2.69,1H398.66c-2.38,0-3.55-1.29-3.55-3.87V154.8H398v3.78h14.18V152H394v-2.86h21.17v12.27Z"/><path class="cls-1" d="M442.8,163.6a64.31,64.31,0,0,1-14.51,6.71l-1.17-2.75a62.81,62.81,0,0,0,15-6.66Zm-4.27,7.8c1.55.06,3.14.08,4.72.08a1.66,1.66,0,0,0,1.55-1.06,15.88,15.88,0,0,0,.61-5.1q.09-2.88.22-13.07H427.84v-2.9h20.71q-.3,15.09-.5,18c-.11,2.6-.47,4.38-1.06,5.36a3.34,3.34,0,0,1-3.13,1.43l-4.53.11Zm-1.45-11.9-2,2.09a34.64,34.64,0,0,0-5.53-5.1l2.06-2A44.66,44.66,0,0,1,437.08,159.5Z"/><path class="cls-1" d="M461,153.74a53.77,53.77,0,0,1-.78,8.14l-2.25-.63a37.32,37.32,0,0,0,.89-7.69Zm6.74,5.44-2,.52c-.34-1.95-.75-3.84-1.25-5.68v20.33h-2.83V148h2.83v5.48l1.72-.57C466.76,154.71,467.29,156.8,467.76,159.18Zm9,4.16v1.81a10,10,0,0,1-2.22,6.13q-1.95,2.16-6.41,3.27L466.62,172q4.17-1,5.67-2.58a7,7,0,0,0,1.63-4.3v-1.81Zm5.47-14.59-.19,3.47h1.75v2.49h-1.89l-.22,3.58H468.82l.28-3.58h-1.81v-2.49h2l.28-3.47Zm0,20.15h-2.8v-6.79h-8.05v7h-2.83v-9.52h13.68ZM474,156.06l.14-1.55h-2.42l-.14,1.55Zm.33-3.59.14-1.49H472l-.14,1.49Zm9.72,19.62-1.59,2.49a29.21,29.21,0,0,0-6.57-3.81l1.44-2.24A36.37,36.37,0,0,1,484.06,172.09Zm-7.55-17.58-.14,1.55h2.86l.11-1.55Zm.22-2h2.77l.11-1.49h-2.74Z"/><path class="cls-1" d="M501.47,172.66h-2.78v-1.43h-4.11v2.26h-2.77V152.56h2.66a26.43,26.43,0,0,0,1.08-4.73l2.92.4a27.53,27.53,0,0,1-1.22,4.33h4.22Zm-2.78-12.27v-5h-4.11v5Zm0,8.08v-5.42h-4.11v5.42Zm16.65,2.67c-.27,2-1.61,3-4,3-.56,0-1.56-.06-3-.17l-.69-2.73c1.22.09,2.3.15,3.22.15s1.58-.58,1.74-1.69c.17-1.38.25-6.11.31-14.22h-6.72a23.7,23.7,0,0,1-2.66,4.64l-1.75-2.38a25,25,0,0,0,3.72-9.95l2.86.37a38.64,38.64,0,0,1-1.06,4.39h8.44Q515.76,167.62,515.34,171.14Zm-4.72-5.48-2.33,1.67a50.63,50.63,0,0,0-4.13-6.28l2.36-1.52A50.11,50.11,0,0,1,510.62,165.66Z"/><path class="cls-1" d="M537.31,173.92a20.47,20.47,0,0,1-4.5-.49,6.19,6.19,0,0,1-2.91-2c-.39-.49-.75-.72-1.06-.72-.53,0-1.44,1.29-2.75,3.87L524,172.54c1.28-2.23,2.47-3.69,3.56-4.33V160.3H524v-2.75h6.22v10.89l.3.32a8,8,0,0,0,2,1.69,9.13,9.13,0,0,0,3.72.72c1.61,0,3.53.06,5.69.06,1.39,0,2.78,0,4.22,0s2.5-.12,3.25-.17l-.69,2.95h-6.36C540.78,174,539.11,174,537.31,173.92Zm-6.66-21.24-2,2.06a28.82,28.82,0,0,0-4.25-4.67l2-1.92A35.54,35.54,0,0,1,530.65,152.68Zm8.1,3.06v-1.06h-5.66v-5.59h5.66v-1.23h2.72v1.23h5.66v5.59h-5.66v1.06h7.36v2.35H531.39v-2.35Zm2.78,6.51c-.28,2.87-.89,4.76-1.81,5.68-1,1.2-3.33,1.95-7.08,2.29l-1-2.43c3-.15,5-.64,6-1.5s1.34-2.23,1.48-4.27ZM547,166h-2.66v-4.62H536v5.05h-2.64v-7.4H547Zm-8.27-14.83h-3.11v1.38h3.11Zm9.94,17-1.45,2.24a33.94,33.94,0,0,0-6.33-2.81l1.31-1.95A38.36,38.36,0,0,1,548.69,168.24Zm-4.11-17h-3.11v1.38h3.11Z"/><path class="cls-1" d="M559.16,153.74a59.34,59.34,0,0,1-.75,7.77l-2.22-.66a36.18,36.18,0,0,0,.89-7.29Zm3.05-5.74v26.32h-2.44V148Zm11.49,10.15V163a15.5,15.5,0,0,0,1.94-2.15c-.27-.8-.49-1.69-.72-2.67a36.84,36.84,0,0,1-.8-5.36h-6.83V157a15.82,15.82,0,0,1-2.36,8.74l-2-1.8a12.44,12.44,0,0,0,1.69-6l-1.25.28a46,46,0,0,0-1.11-4.73l1.36-.43a36.39,36.39,0,0,1,1,4v-6.79H574c-.06-.75-.06-1.46-.06-2.21h2.5c0,.72,0,1.46.06,2.21h1.63a19.26,19.26,0,0,0-.72-1.89l2.22-.4c.23.68.48,1.43.7,2.29h1v2.58h-4.71a33.35,33.35,0,0,0,.33,3.44c.11.69.22,1.35.33,1.92A27.13,27.13,0,0,0,579,154l2,1.12a30,30,0,0,1-2.8,6.2l0,.05c.44,1,.86,1.55,1.25,1.58.22,0,.36-1.12.41-3.3l2.11,1c0,3.29-.8,5-2.38,5a4.3,4.3,0,0,1-2.89-2.23,15.45,15.45,0,0,1-1.58,1.63l-1.42-1.69v.83h-5.8v-6Zm-6.24,8.57a28.47,28.47,0,0,1-2.36,6.94l-2.36-1.52a22.1,22.1,0,0,0,2.22-6Zm6.27-12.3v2.24H568v-2.24Zm-2.61,19.5a2.39,2.39,0,0,1-2.69-2.72v-5.59h2.75v5c0,.46.25.72.77.72h2.56a.94.94,0,0,0,.75-.31,3.55,3.55,0,0,0,.38-1.84l2.59.89c-.2,1.89-.56,3-1.06,3.38a3.84,3.84,0,0,1-2.14.49Zm.44-13.73H570v1.95h1.52Zm4.56,8.34L574.06,170a29.62,29.62,0,0,0-2.19-3.52l2-1.32A24.12,24.12,0,0,1,576.12,168.53Zm6.1,3.33-2.3,1a40.68,40.68,0,0,0-2.55-6l2.24-1A40.87,40.87,0,0,1,582.22,171.86Z"/></svg>