<svg id="图层_1" data-name="图层 1" xmlns="http://www.w3.org/2000/svg" xmlns:xlink="http://www.w3.org/1999/xlink" viewBox="0 0 608 148.39"><defs><style>.cls-1{fill:none;}.cls-2{fill:#255c3f;}.cls-3{clip-path:url(#clip-path);}.cls-4,.cls-7{fill:#f6ead5;}.cls-5{opacity:0.53;}.cls-6{fill:#3f93a2;stroke-width:4.94px;}.cls-6,.cls-7{stroke:#255c3f;stroke-miterlimit:10;}.cls-7{stroke-width:0.71px;}</style><clipPath id="clip-path"><rect class="cls-1" x="9.58" width="589.21" height="146.42"/></clipPath></defs><rect class="cls-2" x="6.78" y="-774.83" width="6.63" height="1523.02"/><rect class="cls-2" x="595.47" y="-774.83" width="6.63" height="1523.02"/><g class="cls-3"><path class="cls-4" d="M98.37,53.2l12.92,4.39a46.36,46.36,0,0,0,8.45-4.53l4,4a46.76,46.76,0,0,1-4.84,3.13l5.69,1.91L122,67l-10.62-3.46c-1.17.42-2.39.8-3.66,1.17l2.89,1-.85,1.44H126.3v6H106.14L103.88,77h4.25V74.2h7.5V77h8.63V92.68H115.9l1.49-2.24V83.2h-1.76V95h-7.5V83.2h-1.72v9.48h-7V84.46l-3.66,6.12-5.11-5,7.68-12.37H92.13v-6h9.94l.86-1.35c-2,.42-4.11.7-6.24.93L94,61.88c2.85-.42,5.51-.84,8-1.4l-6.51-2.15Z"/><path class="cls-4" d="M137.77,60.67h4.75v-7.1h6.87v7.1h4.25v6.58h-4.16l5,9.47-2.93,7-2.17-5.18V95h-6.87V81l-2.44,7.19-4.79-4.39,7.23-16.51h-4.75Zm17.58,0h4.34v-7.1h6.92v7.1h4.7v6.58h-4.57l7.37,16.51-5,4.39-2.48-7.51V95h-6.92V80.73l-2.44,7.42-5-4,7.33-16.93h-4.21Z"/><path class="cls-4" d="M194.26,54.51h11.39V95.06h-5.6l1.08-1.82V82.18H200l-.41,12.88h-5.06l0-2.8-4.25,3.31-2.71-3.73q-1.22,1.89-2.71,3.78l-4.43-2.85A35.92,35.92,0,0,0,184.14,87l-3.39-4.71,1.49-16.89H181V58.75h1.86l.4-4.8,6,.37-.5,4.43h5.15c0,10.41-.09,18.9-3.11,26.83l3.84,5.84.18-9.24h-.91V76.44h1l.09-4.43h-.68V66.27h.81l.1-5.46h-.91ZM188,65.38l-1.49,13.76.41.66a61.34,61.34,0,0,0,1.85-14.42Zm12.16,11.06h1V72h-.86Zm.49-15.63-.18,5.46h.68V60.81Zm10.76,34.25V92h1.54c4.11,0,5.37-5,5.37-9.1,0-4.43-1.89-8.91-3-11.57l3.34-16.76h-12V95.06Zm0-27.21V60.9h1.27Zm0,17.41V74.06c1,2.38,2.08,5.55,2.08,7.6,0,.56,0,3.6-2,3.6Z"/><path class="cls-4" d="M238.5,60.67h7.78v-7.1h7.27v7.1h9.31v6.48h-8.72A85.41,85.41,0,0,0,257,77.09l3.75-2.75,3.16,5.46-4.52,3.5a69.61,69.61,0,0,0,4.3,8.77l-6.29,3.36a93.92,93.92,0,0,1-5-11.53v7.75l-12.25,3.5V83l-1.31,1.59-1.63-3.32V95h-6.87V76.39l-1.22,2.38-4.25-5L235.38,53l5.83,2.06-4,7.88V76.62l8.05-9.47H238.5Zm10.31,11.71-1.95,2.38V85.35l5.34-2A94.8,94.8,0,0,1,248.81,72.38Z"/><path class="cls-4" d="M272.12,75c0-2.94,1.22-4.2,4.16-4.2s4.16,1.26,4.16,4.2-1.31,4.2-4.16,4.2S272.12,77.93,272.12,75Z"/><path class="cls-4" d="M291.28,56.93h12.39V53.57h8v3.36h12.43v5.28H291.28ZM299,95V81.15h17.31V92.91L314.79,95h8.72V75.51H291.87V95Zm-3.3-21h23.87V63.7H295.71Zm4.57,18.57h14.78V82.6H300.28ZM303,69.63V68h9.13v1.59ZM306,88.38V86.75h3.39v1.63Z"/><g class="cls-5"><path class="cls-2" d="M306.23,740.08c-4.72,0-9.52,0-14.25-.12l14.08-354.15h0v-.05h0l0-.31-.07.09v-.09l.08-.08h0l.14-.14-.07-.07-.06,0v-.05h0l0,0h0v0h0l0,0,.06,0V385l-.06,0h.06v0l-.07,0,0,0h0v0h0v0h.2l0,.05h0l0,0,.14.07h-.07l-.09,0,0,.06h0l0,0h.1l0,0h-.05l0,0h0l.08.11,0-.13h-.08l0,0,.06,0h0l0,0h0l0-.07h0v0l.06,0-.06,0h.06v0l0,0h.07l.07.09h-.05v0l.15.05.06.07-.2-.1v.06L653.74,656.67a594.24,594.24,0,0,1-63.3,30.21L306.74,385.8l0-.06v0l-.07-.07h0l-.23-.41,0,.19h0l0,.28.18,0,.16.23,63,351.68C348.78,739.25,327.41,740.08,306.23,740.08Zm-.13-354.66.09.31.13-.38-.09-.1Zm.38-.22,0,0,0,0Zm0,0h0Zm0,0Zm-.39-.12Zm0,0h0l0,0h0Zm0,0Zm.35,0Zm-.34-.1,0,0,0,0Zm-91.87,350c-25.76-2.92-51.4-7.12-76.23-12.47L305.54,386.15,65.27,702.76a644.38,644.38,0,0,1-67.4-26.34L305.69,385.74l-.06.23.14-.27.1,0-.26.34Zm232.58-7L306.89,386.15,521,710.8A746.36,746.36,0,0,1,446.81,727.87ZM-62.85,644.06a477.61,477.61,0,0,1-53-37.76l421-220.93.06.08.21-.07.17-.19-.15,0,.22-.11h0l.09-.07-.24.06h0l.29-.07.05-.06.08,0h0l.06,0v0h0l-.08.13h-.06l-.08,0h0l-.21.18.31-.12v0h0l0,.08-.26.12Zm772.53-23.23L307.24,385.45a.83.83,0,0,0,.12-.17l-.5,0-.17-.12h0l.66.13v0l-.51-.12h.21l.4.17.23.05-.16,0L757.26,580A424.19,424.19,0,0,1,709.68,620.83Zm-869.71-57a329.08,329.08,0,0,1-34.51-46.35L304.34,385.39l-522.82,82.85a246.84,246.84,0,0,1-12.76-50.89l536.3-32.14,0,.06-.4.06ZM795.49,535,308.11,385.39,823.43,486.58A294.08,294.08,0,0,1,795.49,535Zm44.85-98.84L307.93,385.33l-.79-.24.41,0,0-.12H845.93A238.58,238.58,0,0,1,840.34,436.12ZM307.18,385.54h0Zm-1.2-.3v0l0,0Zm0,0,0-.05v0Zm0-.1h0V385h0l0,.11.05,0Zm.3,0h0l.06,0h0Zm-.93,0-.43,0s0,0,0-.1h.79Zm1,0Zm0,0,0,0h.05Zm.19,0,0,0h-.08l-.05-.05h0v0h0v0l-.05,0,0,0,.09,0h0l-.1,0,0,0v0h0v0h-.12l-.11,0h0l.11-.05h0l0,0v0h0v-.1l0,.05.06-.06-.09-.21v-.2h0l0,.13,0-.09-.18,0L271.32,30.54c11.56-.49,23.31-.73,34.91-.73,14.25,0,28.67.37,42.85,1.11L306.63,384l.27-.32,119.64-345a759.89,759.89,0,0,1,75.21,15.18L306.91,383.68,572.67,76.06a616.72,616.72,0,0,1,65.07,28.63L306.66,384.39l.24-.7-.3.5-.1.33,0,.11-.1,0,.11,0h0v.08l0-.08h.12l-.15.11v0l.07,0,0,0h0l0,0h0v0h0l0,.05,0,0,.08,0h0l-.07,0,.05,0,0,0v0l.11,0h.47l-.31.05.08,0-.1,0-.24,0h-.06Zm0-.05,0,0h0l0,0Zm0,0h0Zm0,0,.06,0h-.05Zm0,0h0l0,0h0Zm0,0h0Zm0,0,0,0h0Zm0-.09h0Zm.08,0h0Zm0,0h0Zm-.19-.06h0Zm.13-.59,0,.08.05-.07Zm-.12.84,0,0Zm-.15,0h0l0,0Zm0,0h0Zm-.08,0h0Zm-.17,0h0l-.05,0h-.1l-.13-.06.14,0h-.19l-.24-.12.38.05-.05-.05-.46-.14a.1.1,0,0,0,0,.05L-128.35,174.33A455.42,455.42,0,0,1-77.6,135.28l383,249.11-.11-.07.07,0,0,0,.06.05.4.18,0,.09-.36-.21.38.27h-.05l.07.06H306v0h0l0,.07h0l-.07,0v0h0Zm0-.05h0Zm.05-.05h0l0,0h0Zm0,0,0,0Zm-1,.09.3,0,.13,0Zm1.74,0,0,0h0Zm0,0,0,0h-.08l.11,0,.15-.15.44-.05a.84.84,0,0,0-.14-.19L695.74,139.12a445.77,445.77,0,0,1,49.86,39.56L307.48,384.54l.68-.08,478.2-161.8a308.35,308.35,0,0,1,30.73,47.58L308.52,384.41,837,320.28a240.7,240.7,0,0,1,8.58,51.13L307.16,384.8l.67-.23-.89.22h-.09Zm-1.65-.08-537.76-18.56A242.39,242.39,0,0,1-223,315.09L304.31,384.5-201.95,265.2a313.14,313.14,0,0,1,31.82-47.26L304.6,384.53l.5.07a.43.43,0,0,1,0,.07l-.2,0,.19.06S305,384.72,305,384.73Zm.92,0h0Zm0,0h0Zm.75-.13.13-.07,0,0Zm-.64-.09-.14-.27.16.19Zm1.12-.16Zm-1.48-.12L-18.81,101.43a624,624,0,0,1,65.72-28L305.6,383.88l.1.32Zm-.17-.66L118.24,52a762,762,0,0,1,75.52-14.43Z"/></g><polyline class="cls-2" points="30.71 0 30.71 69.63 24.09 69.63 24.09 0"/><polyline class="cls-2" points="47.47 0 47.47 69.63 40.84 69.63 40.84 0"/><polyline class="cls-2" points="64.22 0 64.22 69.63 57.59 69.63 57.59 0"/><polyline class="cls-2" points="80.98 0 80.98 69.63 74.35 69.63 74.35 0"/><polyline class="cls-2" points="97.73 0 97.73 69.63 91.1 69.63 91.1 0"/><polyline class="cls-2" points="114.48 0 114.48 69.63 107.86 69.63 107.86 0"/><polyline class="cls-2" points="131.24 0 131.24 69.63 124.61 69.63 124.61 0"/><polyline class="cls-2" points="147.99 0 147.99 69.63 141.37 69.63 141.37 0"/><polyline class="cls-2" points="164.75 0 164.75 69.63 158.12 69.63 158.12 0"/><polyline class="cls-2" points="181.5 0 181.5 69.63 174.88 69.63 174.88 0"/><polyline class="cls-2" points="198.25 0 198.25 69.63 191.63 69.63 191.63 0"/><polyline class="cls-2" points="215.01 0 215.01 69.63 208.38 69.63 208.38 0"/><polyline class="cls-2" points="231.76 0 231.76 69.63 225.14 69.63 225.14 0"/><polyline class="cls-2" points="248.52 0 248.52 69.63 241.89 69.63 241.89 0"/><polyline class="cls-2" points="265.27 0 265.27 69.63 258.65 69.63 258.65 0"/><polyline class="cls-2" points="282.03 0 282.03 69.63 275.4 69.63 275.4 0"/><polyline class="cls-2" points="298.78 0 298.78 69.63 292.15 69.63 292.15 0"/><polyline class="cls-2" points="315.54 0 315.54 69.63 308.91 69.63 308.91 0"/><polyline class="cls-2" points="332.29 0 332.29 69.63 325.66 69.63 325.66 0"/><polyline class="cls-2" points="349.04 0 349.04 69.63 342.42 69.63 342.42 0"/><polyline class="cls-2" points="365.8 0 365.8 69.63 359.17 69.63 359.17 0"/><polyline class="cls-2" points="382.55 0 382.55 69.63 375.93 69.63 375.93 0"/><polyline class="cls-2" points="399.31 0 399.31 69.63 392.68 69.63 392.68 0"/><polyline class="cls-2" points="416.06 0 416.06 69.63 409.43 69.63 409.43 0"/><polyline class="cls-2" points="432.81 0 432.81 69.63 426.19 69.63 426.19 0"/><polyline class="cls-2" points="449.57 0 449.57 69.63 442.94 69.63 442.94 0"/><polyline class="cls-2" points="466.32 0 466.32 69.63 459.7 69.63 459.7 0"/><polyline class="cls-2" points="483.08 0 483.08 69.63 476.45 69.63 476.45 0"/><polyline class="cls-2" points="499.83 0 499.83 69.63 493.21 69.63 493.21 0"/><polyline class="cls-2" points="516.59 0 516.59 69.63 509.96 69.63 509.96 0"/><polyline class="cls-2" points="533.34 0 533.34 69.63 526.71 69.63 526.71 0"/><polyline class="cls-2" points="550.1 0 550.1 69.63 543.47 69.63 543.47 0"/><polyline class="cls-2" points="566.85 0 566.85 69.63 560.22 69.63 560.22 0"/><polyline class="cls-2" points="583.6 0 583.6 69.63 576.98 69.63 576.98 0"/><path class="cls-6" d="M597.12,66.56V142.3c-74.51-30-178.38-48.55-293.27-48.55S85.07,112.34,10.57,142.3V66.57c74.5-25.3,178.38-41,293.28-41S522.61,41.27,597.12,66.56Z"/><path class="cls-7" d="M49.11,100.39a20.2,20.2,0,0,1,1,4.81,12.15,12.15,0,0,1-.39,4.32,8.07,8.07,0,0,1-5.62,5.69,9.29,9.29,0,0,1-5.79.15,12.27,12.27,0,0,1-5.1-3.46L36,107.09a7.45,7.45,0,0,0,2.83,2.17,3.9,3.9,0,0,0,2.6.11A3.39,3.39,0,0,0,43.84,107c.34-1.15.13-2.94-.65-5.38L35.79,78.5l5.74-1.84Z"/><path class="cls-7" d="M74.68,103a13.48,13.48,0,0,1-3,3.2,11.55,11.55,0,0,1-3.84,1.92,10.32,10.32,0,0,1-4.55.24A10.48,10.48,0,0,1,59,106.55a13.8,13.8,0,0,1-3.54-3.76A20,20,0,0,1,53,97.12,19.65,19.65,0,0,1,52.22,91a14.71,14.71,0,0,1,1.05-5.09,10.81,10.81,0,0,1,2.49-3.72A8.65,8.65,0,0,1,63.54,80a8.77,8.77,0,0,1,3.62,1.89A13.24,13.24,0,0,1,70,85.44a21.88,21.88,0,0,1,2,5c.18.64.32,1.26.43,1.86a9.15,9.15,0,0,1,.19,1.42L59.15,97.46a8.6,8.6,0,0,0,3.38,4.46,5.63,5.63,0,0,0,4.57.55,7,7,0,0,0,2.43-1.2,10,10,0,0,0,2-2ZM60.9,85.57a4.27,4.27,0,0,0-2.69,2.35,7.88,7.88,0,0,0-.44,4.92l8.94-2.5a8.32,8.32,0,0,0-2.23-4A3.57,3.57,0,0,0,60.9,85.57Z"/><path class="cls-7" d="M81.3,81l5.14,21.48-5.83,1.39L75.48,82.43l-3,.71-1.26-5.27,2.9-1L73.7,75a16.1,16.1,0,0,1-.47-4,9.4,9.4,0,0,1,.68-3.46,7,7,0,0,1,2-2.67,8.18,8.18,0,0,1,3.42-1.61,9.92,9.92,0,0,1,2.6-.29A12.15,12.15,0,0,1,84,63.2l.19,5.53a5.69,5.69,0,0,0-1.33-.22,6,6,0,0,0-1.52.19,2.52,2.52,0,0,0-1.81,1.53,5.37,5.37,0,0,0,0,3.36L80,75.43l8-1.92-.52-2.17a18.72,18.72,0,0,1-.53-4.07,9.24,9.24,0,0,1,.59-3.49,6.87,6.87,0,0,1,1.89-2.67,7.74,7.74,0,0,1,3.34-1.62,9.55,9.55,0,0,1,2.47-.28,9.41,9.41,0,0,1,2,.23l.18,5.48a9.52,9.52,0,0,0-1.3-.12,4.26,4.26,0,0,0-1.21.11,2.38,2.38,0,0,0-1.77,1.47,6.09,6.09,0,0,0,.09,3.43l.56,2.32,4.2-1,1.34,5.6-4.2,1,5.13,21.47-5.78,1.38L89.3,79.12Z"/><path class="cls-7" d="M113.61,73.86a4.48,4.48,0,0,0-2.51,1.76,9.1,9.1,0,0,0-1.53,4.66l3.36,16.26-5.82,1.2-5.64-27.26,4.79-1,1.39,4.74.16,0a12,12,0,0,1,2.07-4.69A5.38,5.38,0,0,1,113,67.38a5.62,5.62,0,0,1,1.55-.14,7.53,7.53,0,0,1,1.2.18l.24,6.4a5.41,5.41,0,0,0-1.17-.12A6.49,6.49,0,0,0,113.61,73.86Z"/><path class="cls-7" d="M140.17,89a13.61,13.61,0,0,1-3.3,2.9,11.43,11.43,0,0,1-4,1.56,10.26,10.26,0,0,1-4.55-.19,10.61,10.61,0,0,1-4.06-2.17A13.72,13.72,0,0,1,121.09,87a21.59,21.59,0,0,1-2.17-12.06,15,15,0,0,1,1.52-5,10.73,10.73,0,0,1,2.83-3.47,8.61,8.61,0,0,1,8-1.47,8.77,8.77,0,0,1,3.42,2.21,13.58,13.58,0,0,1,2.54,3.84,21.86,21.86,0,0,1,1.55,5.13c.12.65.2,1.28.26,1.89a9.65,9.65,0,0,1,0,1.44L125.22,82a8.52,8.52,0,0,0,2.95,4.74,5.6,5.6,0,0,0,4.5,1,7.15,7.15,0,0,0,2.53-1,10,10,0,0,0,2.17-1.86Zm-12.1-18.63a4.3,4.3,0,0,0-2.89,2.09,7.81,7.81,0,0,0-.9,4.87l9.13-1.66a8.29,8.29,0,0,0-1.84-4.24A3.6,3.6,0,0,0,128.07,70.32Z"/><path class="cls-7" d="M156.64,89.65a33.49,33.49,0,0,1-.92,4.59,13.91,13.91,0,0,1-1.48,3.5,7.37,7.37,0,0,1-5.45,3.58,8.53,8.53,0,0,1-1.74.11,11.8,11.8,0,0,1-1.44-.18l.23-5.72.78.11A3.61,3.61,0,0,0,150,94a7.46,7.46,0,0,0,1-3.22l.16-1.69L138.3,63.44l6-.92,5.53,12.23c.54,1.2,1.06,2.42,1.55,3.67s1,2.52,1.53,3.81l.2,0,.43-8,1.14-13.25,5.68-.87Z"/><path class="cls-7" d="M202.29,81.68l.49,4.15-36.65,4.28L165.64,86l15.78-1.84-.23-1.93-12.46,1.46-.43-3.71,12.46-1.45-.2-1.73L169,78.11l-1.46-12.55,11.52-1.34-.19-1.63-15.29,1.78-.46-4,15.29-1.79-.18-1.53c-2.07.31-4.12.59-6.17.85s-4,.48-6,.67a11.81,11.81,0,0,0-.49-1.76c-.25-.69-.47-1.26-.65-1.71q3.07-.36,6.3-.78c2.15-.29,4.27-.59,6.35-.92s4.1-.66,6.06-1,3.75-.69,5.41-1l-4.49.52-.2-1.73-8.74,1,.23,2-4.65.54-.23-2-8.74,1-.54-4.6,8.74-1-.32-2.71,4.65-.55.32,2.72,8.74-1-.32-2.72,4.78-.55.31,2.71,8.74-1,.54,4.59-8.74,1,.19,1.68,1.72-.37c.54-.11,1-.23,1.52-.35l3,3.2q-2.75.72-5.93,1.34c-2.13.42-4.34.83-6.65,1.23l.21,1.73,15.69-1.84.46,4L183.68,62l.19,1.63L196,62.25l1.47,12.54-12.1,1.41.2,1.73,12.91-1.51.43,3.71L186,81.63l.22,1.93ZM172.67,69.92l7-.82-.21-1.77-7,.81Zm.53,4.55,7-.82L180,71.82l-7,.82Zm11.24-5.92,7.36-.86-.21-1.78-7.36.86Zm.53,4.54,7.36-.86-.21-1.83-7.36.86Z"/><path class="cls-7" d="M242.67,78.26a10.21,10.21,0,0,0-.79,1.21c-.28.48-.54,1-.81,1.5s-.5,1-.72,1.57-.41,1-.57,1.42a41.11,41.11,0,0,1-9.17-3.37A36,36,0,0,1,223,75.37a40.53,40.53,0,0,1-7,6.27,47.92,47.92,0,0,1-8.1,4.56,9,9,0,0,0-.62-1.27c-.29-.5-.59-1-.91-1.5s-.65-1-1-1.45a9,9,0,0,0-.94-1.11,49.54,49.54,0,0,0,7.89-4,34.88,34.88,0,0,0,6.76-5.53,50,50,0,0,1-6.48-9.74,93.31,93.31,0,0,1-5.1-12.14l1.11-.48-3.78.28-.43-5.85,27.34-2,.79-.35,3.51,1.63a73.28,73.28,0,0,1-3.37,15.83,50.62,50.62,0,0,1-6,12.24A36.2,36.2,0,0,0,242.67,78.26ZM212.44,48.68a64.39,64.39,0,0,0,4.39,10A42.66,42.66,0,0,0,222.69,67a41.71,41.71,0,0,0,4.71-8.72,53.53,53.53,0,0,0,2.95-10.89Z"/><path class="cls-7" d="M259.06,77.46c-.37-.52-.85-1.14-1.43-1.87s-1.2-1.46-1.84-2.2l.34,10.39-4.48.14L251.33,74A40.09,40.09,0,0,1,249.15,78a22.74,22.74,0,0,1-2.36,3.14,17.71,17.71,0,0,0-1.37-1.87,13.05,13.05,0,0,0-1.56-1.67,21.45,21.45,0,0,0,3.25-4.13,36.51,36.51,0,0,0,2.72-5.27l-5.17.17-.16-4.72L251,63.4l-.14-4,4.48-.14.13,4,5.54-.18.15,4.72-5.53.18v.45c.39.29.87.67,1.45,1.15L258.78,71c.58.48,1.1.94,1.58,1.37a14,14,0,0,1,1,1Zm5.2-29.12L264.61,59l-4.77.16-.35-10.68-11.07.36.19,5.71-4.27.14L244,45.32l15.34-.5-.05-1.69-12.62.41-.14-4.17,30.08-1,.14,4.18-12.7.41.05,1.69,15.64-.51.3,9.39-4.47.15L275.41,48Zm-5.82,6.56.1,3.18-9.24.3-.1-3.18Zm-.2-4.72.11,3.18-8.43.27-.1-3.18Zm21.11,29.7a16.16,16.16,0,0,1-3.24-3.18,31.12,31.12,0,0,1-2.83-4.28l.35,10.78-4.6.15-.36-11A40.32,40.32,0,0,1,266.15,77a21.48,21.48,0,0,1-2.87,3.65c-.18-.3-.38-.61-.63-1s-.5-.69-.78-1-.57-.69-.85-1a9,9,0,0,0-.8-.82,20.35,20.35,0,0,0,3.43-4,32.16,32.16,0,0,0,2.82-5.19l-4.35.14L262,63l6.39-.21-.13-4,4.6-.16.13,4,7.36-.24.16,4.67-5.58.18a26.8,26.8,0,0,0,3.28,4.87,15.48,15.48,0,0,0,4,3.45,9.82,9.82,0,0,0-.76.9,11.16,11.16,0,0,0-.78,1.12c-.25.39-.48.77-.72,1.16A10.55,10.55,0,0,0,279.35,79.88Zm-5.27-30.22.1,3.18-8.5.28-.11-3.18Zm1,4.69.1,3.18-9.32.31-.1-3.18Z"/><path class="cls-7" d="M352.63,83.61l-3.43,1.14-7.05-23.81,9.15-23.08,3.32,1.44-8.68,21.81Zm7,.31-3.47,1.14-7-23.8,9.11-23.09,3.36,1.45-8.73,21.8Z"/><path class="cls-7" d="M428.65,79.35a20.27,20.27,0,0,1-2.09,3.39,21.75,21.75,0,0,1-2.91,3.13,22.89,22.89,0,0,1-3.87,2.72,25.91,25.91,0,0,1-5,2.13,11.8,11.8,0,0,0-.4-1.18c-.18-.44-.37-.89-.58-1.35s-.44-.9-.65-1.32a10.49,10.49,0,0,0-.65-1.06,22.46,22.46,0,0,0,6.61-3.09,17.87,17.87,0,0,0,4.15-4.07l-8.68-1.14c.11.58.24,1.13.38,1.65s.26,1,.38,1.31q-2.76,2.25-4.49,3.7c-1.15,1-2.06,1.75-2.73,2.35s-1.17,1.06-1.5,1.41a8.39,8.39,0,0,0-.8.92,7.41,7.41,0,0,0-.34-1c-.15-.39-.31-.78-.48-1.19s-.34-.79-.53-1.15-.36-.66-.51-.92a7.47,7.47,0,0,0,1.54-1.77,7.59,7.59,0,0,0,1.09-3.25l2.06-15.77-4.89-.64.74-5.62,9.33,1.22-2.46,18.78,2.8-2.29c.07.54.16,1.09.28,1.64l.59-4.48,5.49.71a30.82,30.82,0,0,0-2.09-2.4c-.78-.82-1.54-1.56-2.27-2.23l2.5-2.48c.47.36,1,.79,1.5,1.27s1,1,1.53,1.48,1,1,1.38,1.51.78,1,1.06,1.37l-1.55,1.75,3.15.42a22.29,22.29,0,0,0,.72-2.67c.17-.84.3-1.66.4-2.45L427,68l-2,2.25a12.15,12.15,0,0,0-1-1.33c-.41-.49-.84-1-1.31-1.45s-1-1-1.48-1.43l-1.43-1.29,2.26-2.51c.42.32.86.68,1.33,1.08s.93.8,1.37,1.2.86.83,1.27,1.25A12.73,12.73,0,0,1,427.11,67l.45-3.45,4.65.61-.7,5.32c-.1.79-.23,1.6-.38,2.44a26,26,0,0,1-.6,2.55l9.2,1.21-.66,5.07ZM411.38,43.74l1.53,1.93c.55.69,1.1,1.4,1.64,2.12s1,1.43,1.48,2.13.83,1.31,1.12,1.85l-3.8,3.86a20.59,20.59,0,0,0-1-1.93c-.43-.73-.89-1.47-1.4-2.24s-1-1.53-1.55-2.29-1-1.44-1.53-2.08ZM442,59.68q-.94,2.73-2,5.45t-2,4.7l-3.58-1.52q.93-2.09,1.93-5l-18.82-2.47.64-4.93,9.33,1.22.4-3-7.92-1,.64-4.88,7.91,1,.5-3.8,4.69.61-.5,3.8,7.91,1-.63,4.88-7.92-1-.39,3,6.17.81.71-.06ZM430.84,80.19c.7.69,1.44,1.45,2.21,2.27s1.52,1.67,2.25,2.55,1.42,1.74,2.05,2.57a20.68,20.68,0,0,1,1.54,2.34l-3.55,3.29a26,26,0,0,0-1.4-2.34c-.58-.88-1.23-1.76-1.93-2.66s-1.44-1.79-2.2-2.69-1.5-1.72-2.22-2.45Z"/><path class="cls-7" d="M501.63,60.36c-.93,1.55-1.89,3.08-2.91,4.6s-2.07,3-3.19,4.43l-7.83,33.3-4.52-1.06L489,76.9c-.62.63-1.23,1.22-1.81,1.77s-1.18,1-1.76,1.52c0-.38-.08-.86-.16-1.46s-.18-1.21-.28-1.83-.22-1.23-.33-1.81a12.14,12.14,0,0,0-.36-1.49,37,37,0,0,0,3.51-3.09q1.77-1.76,3.49-3.82t3.31-4.39c1.06-1.53,2-3.1,2.94-4.69Zm2.56,22.56c-.66,1.48-1.35,2.93-2.09,4.34s-1.5,2.75-2.28,4-1.6,2.48-2.42,3.6a34.07,34.07,0,0,1-2.4,2.93c-.19-.28-.41-.61-.67-1s-.56-.73-.87-1.09l-.95-1.07c-.31-.34-.58-.65-.83-.91a26.3,26.3,0,0,0,4.43-5.67,54.84,54.84,0,0,0,3.75-7.42Zm-.27,22.51a6.64,6.64,0,0,1-2.7.34,21.44,21.44,0,0,1-3.4-.55c0-.43.07-.92.09-1.46s0-1.08,0-1.63-.07-1.1-.12-1.64-.13-1-.22-1.46c.83.23,1.62.44,2.34.61l1.53.36c.48.11.78-.11.91-.66l5.8-24.69-4.6-1.08c-.89,1.29-1.8,2.49-2.72,3.58a40,40,0,0,1-2.75,2.95c-.15-.3-.34-.66-.58-1.08s-.49-.84-.77-1.28-.55-.86-.83-1.26-.53-.76-.74-1a24.51,24.51,0,0,0,3-3A45.21,45.21,0,0,0,501,68.6q1.38-2.05,2.66-4.35T506,59.59l4.3,2.34c-.55,1.17-1.12,2.31-1.7,3.43s-1.21,2.24-1.86,3.35l13.64,3.2.8,0,3.15,1.56c-.33.94-.69,1.92-1.08,2.91s-.77,2-1.15,2.93-.75,1.85-1.12,2.7-.7,1.61-1,2.29l-3.81-1.76c.27-.72.58-1.56.92-2.52s.68-2,1-3l-5.31-1.25L507,100.54a12.15,12.15,0,0,1-1.16,3.25A3.61,3.61,0,0,1,503.92,105.43Zm12.87-21.29c.23,1.39.41,2.83.55,4.32s.23,3,.27,4.46,0,2.9,0,4.27-.11,2.62-.23,3.75l-5,.82c.14-1.09.24-2.33.31-3.73s.08-2.84,0-4.33-.09-3-.2-4.49-.25-2.94-.43-4.31Z"/><path class="cls-7" d="M573.49,103.3l-15.9,19-2.73-2.42L570,102l.67-23.47h3.66Zm6.59,2.51-15.94,19-2.7-2.41,15.1-18L577.25,81h3.62Z"/></g><path class="cls-4" d="M296.62,48.55c0,.16,0,.33,0,.52s0,.38,0,.58l0,.58c0,.19,0,.37,0,.53v2.76h-1V46.87H297L298.09,50c.06.2.13.41.2.62l.2.65h0l.2-.65.21-.62L300,46.87h1.2v6.65h-1V50.76c0-.16,0-.34,0-.53l0-.58c0-.2,0-.39.05-.58s0-.36,0-.52h0l-.53,1.59-1,2.78h-.62l-1-2.78-.53-1.59Z"/><path class="cls-4" d="M308.17,50.54A5.26,5.26,0,0,1,308,52a2.55,2.55,0,0,1-.48,1,1.82,1.82,0,0,1-.74.55,2.76,2.76,0,0,1-1,.17,2.59,2.59,0,0,1-.95-.17,1.79,1.79,0,0,1-.73-.55,2.69,2.69,0,0,1-.47-1,5.7,5.7,0,0,1-.16-1.41V46.87h1.06v3.79a3.52,3.52,0,0,0,.09.87,1.54,1.54,0,0,0,.27.56,1,1,0,0,0,.39.31,1.35,1.35,0,0,0,.5.09,1.44,1.44,0,0,0,.51-.09,1,1,0,0,0,.4-.31,1.72,1.72,0,0,0,.27-.56,3.47,3.47,0,0,0,.1-.87V46.87h1.08Z"/><path class="cls-4" d="M314.52,51.65a2.09,2.09,0,0,1-.15.79,1.69,1.69,0,0,1-.43.62,2,2,0,0,1-.69.42,2.59,2.59,0,0,1-.91.15,3.12,3.12,0,0,1-1.24-.25,3.22,3.22,0,0,1-1-.73l.63-.93a2.11,2.11,0,0,0,.36.31,2,2,0,0,0,.42.24,2.69,2.69,0,0,0,.45.16,1.72,1.72,0,0,0,.44.06,1.68,1.68,0,0,0,.4-.05,1.15,1.15,0,0,0,.34-.13.63.63,0,0,0,.23-.23.54.54,0,0,0,.09-.31.7.7,0,0,0-.08-.33.83.83,0,0,0-.22-.24,2.18,2.18,0,0,0-.34-.2l-.4-.17-.78-.33a3.37,3.37,0,0,1-.45-.25,1.84,1.84,0,0,1-.41-.38,2,2,0,0,1-.3-.52,1.74,1.74,0,0,1-.12-.67,1.83,1.83,0,0,1,.58-1.37,1.87,1.87,0,0,1,.65-.4,2.26,2.26,0,0,1,.83-.14,2.69,2.69,0,0,1,1.09.22,2.77,2.77,0,0,1,.91.65l-.57.87a2.63,2.63,0,0,0-.67-.45,1.93,1.93,0,0,0-.77-.16,2.09,2.09,0,0,0-.36,0,.91.91,0,0,0-.3.13.8.8,0,0,0-.22.23.62.62,0,0,0-.08.31.53.53,0,0,0,.09.3,1.05,1.05,0,0,0,.24.23,2.17,2.17,0,0,0,.34.19l.4.16.77.32a2.42,2.42,0,0,1,.5.27,1.85,1.85,0,0,1,.4.39,1.51,1.51,0,0,1,.27.52A2,2,0,0,1,314.52,51.65Z"/><path class="cls-4" d="M320.47,52.42v1.1h-4.05v-1.1h1.47V48h-1.47V46.87h4.05V48H319v4.44Z"/><path class="cls-4" d="M327.1,52.66a3.08,3.08,0,0,1-.87.73,2.32,2.32,0,0,1-1.08.24,2.66,2.66,0,0,1-1.09-.22,2.37,2.37,0,0,1-.87-.65,3,3,0,0,1-.58-1.06,4.68,4.68,0,0,1-.21-1.46,4.74,4.74,0,0,1,.21-1.47,3.41,3.41,0,0,1,.57-1.09,2.64,2.64,0,0,1,.88-.68,2.72,2.72,0,0,1,1.11-.23,2,2,0,0,1,.56.07,2.38,2.38,0,0,1,.49.19,1.62,1.62,0,0,1,.41.27,2.13,2.13,0,0,1,.34.33l-.59.85a2.18,2.18,0,0,0-.54-.42,1.39,1.39,0,0,0-.65-.16,1.43,1.43,0,0,0-.69.16,1.5,1.5,0,0,0-.53.45,2.17,2.17,0,0,0-.33.72,3.94,3.94,0,0,0,0,1.93,2.18,2.18,0,0,0,.34.72,1.49,1.49,0,0,0,.53.44,1.41,1.41,0,0,0,.69.16,1.46,1.46,0,0,0,.73-.2,2.48,2.48,0,0,0,.59-.48Z"/><path class="cls-4" d="M305.39,68.82a5,5,0,0,1-.19,1.45,3,3,0,0,1-.54,1.09,2.33,2.33,0,0,1-.84.69,2.65,2.65,0,0,1-1.11.23,2.55,2.55,0,0,1-1.08-.23,2.48,2.48,0,0,1-.86-.69,3.38,3.38,0,0,1-.55-1.09,4.67,4.67,0,0,1-.2-1.45,4.88,4.88,0,0,1,.19-1.44,3.19,3.19,0,0,1,.56-1.07,2.28,2.28,0,0,1,.85-.66,2.45,2.45,0,0,1,1.09-.23,2.48,2.48,0,0,1,1.09.23,2.25,2.25,0,0,1,.84.66,3.18,3.18,0,0,1,.55,1.07A4.86,4.86,0,0,1,305.39,68.82Zm-4.27,0a3.5,3.5,0,0,0,.12,1,2.13,2.13,0,0,0,.32.73,1.49,1.49,0,0,0,.5.47,1.39,1.39,0,0,0,.65.16,1.35,1.35,0,0,0,.64-.16,1.49,1.49,0,0,0,.5-.47,2.34,2.34,0,0,0,.33-.73,4.2,4.2,0,0,0,0-1.91,2.46,2.46,0,0,0-.32-.71,1.52,1.52,0,0,0-.5-.45,1.42,1.42,0,0,0-.65-.16,1.46,1.46,0,0,0-.66.16,1.4,1.4,0,0,0-.49.45,2,2,0,0,0-.32.71A3.48,3.48,0,0,0,301.12,68.82Z"/><path class="cls-4" d="M308.42,69.82v2.36h-1.09V65.53h1.94a4.1,4.1,0,0,1,1,.1A1.87,1.87,0,0,1,311,66a1.55,1.55,0,0,1,.48.64,2.79,2.79,0,0,1,0,2,1.73,1.73,0,0,1-.49.68,2.09,2.09,0,0,1-.73.41,3,3,0,0,1-.92.13Zm0-1h.82c.89,0,1.33-.38,1.33-1.15a.89.89,0,0,0-.36-.82,1.89,1.89,0,0,0-1-.23h-.78Z"/><path class="cls-4" d="M317.22,71.07v1.11h-3.81V65.53h3.72v1.1h-2.65v1.55h2v1.11h-2v1.78Z"/><path class="cls-4" d="M320.19,67.17c0,.37.05.75.08,1.16s0,.8,0,1.19v2.66h-1V65.53h1.1L322.2,69l.73,1.52h0c0-.35-.08-.74-.1-1.15s0-.83,0-1.21V65.53h1v6.65h-1.11l-1.81-3.5-.72-1.51Z"/><line class="cls-6" x1="6.42" y1="145.95" x2="599.19" y2="145.95"/></svg>