<svg id="图层_1" data-name="图层 1" xmlns="http://www.w3.org/2000/svg" xmlns:xlink="http://www.w3.org/1999/xlink" viewBox="0 0 608 148.41"><defs><style>.cls-1{fill:none;}.cls-2{fill:#255c3f;}.cls-3{clip-path:url(#clip-path);}.cls-4,.cls-7{fill:#f6ead5;}.cls-5{opacity:0.53;}.cls-6{fill:#3f93a2;stroke-width:4.94px;}.cls-6,.cls-7{stroke:#255c3f;stroke-miterlimit:10;}.cls-7{stroke-width:0.71px;}</style><clipPath id="clip-path"><rect class="cls-1" x="9.58" width="589.21" height="146.42"/></clipPath></defs><rect class="cls-2" x="6.78" y="-774.83" width="6.63" height="1523.02"/><rect class="cls-2" x="595.47" y="-774.83" width="6.63" height="1523.02"/><g class="cls-3"><path class="cls-4" d="M98.37,53.2l12.92,4.39a46.36,46.36,0,0,0,8.45-4.53l4,4a46.76,46.76,0,0,1-4.84,3.13l5.69,1.91L122,67l-10.62-3.46c-1.17.42-2.39.8-3.66,1.17l2.89,1-.85,1.44H126.3v6H106.14L103.88,77h4.25V74.2h7.5V77h8.63V92.68H115.9l1.49-2.24V83.2h-1.76V95h-7.5V83.2h-1.72v9.48h-7V84.46l-3.66,6.12-5.11-5,7.68-12.37H92.13v-6h9.94l.86-1.35c-2,.42-4.11.7-6.24.93L94,61.88c2.85-.42,5.51-.84,8-1.4l-6.51-2.15Z"/><path class="cls-4" d="M137.77,60.67h4.75v-7.1h6.87v7.1h4.25v6.58h-4.16l5,9.47-2.93,7-2.17-5.18V95h-6.87V81l-2.44,7.19-4.79-4.39,7.23-16.51h-4.75Zm17.58,0h4.34v-7.1h6.92v7.1h4.7v6.58h-4.57l7.37,16.51-5,4.39-2.48-7.51V95h-6.92V80.73l-2.44,7.42-5-4,7.33-16.93h-4.21Z"/><path class="cls-4" d="M194.26,54.51h11.39V95.06h-5.6l1.08-1.82V82.18H200l-.41,12.88h-5.06l0-2.8-4.25,3.31-2.71-3.73q-1.22,1.89-2.71,3.78l-4.43-2.85A35.92,35.92,0,0,0,184.14,87l-3.39-4.71,1.49-16.89H181V58.75h1.86l.4-4.8,6,.37-.5,4.43h5.15c0,10.41-.09,18.9-3.11,26.83l3.84,5.84.18-9.24h-.91V76.44h1l.09-4.43h-.68V66.27h.81l.1-5.46h-.91ZM188,65.38l-1.49,13.76.41.66a61.34,61.34,0,0,0,1.85-14.42Zm12.16,11.06h1V72h-.86Zm.49-15.63-.18,5.46h.68V60.81Zm10.76,34.25V92h1.54c4.11,0,5.37-5,5.37-9.1,0-4.43-1.89-8.91-3-11.57l3.34-16.76h-12V95.06Zm0-27.21V60.9h1.27Zm0,17.41V74.06c1,2.38,2.08,5.55,2.08,7.6,0,.56,0,3.6-2,3.6Z"/><path class="cls-4" d="M238.5,60.67h7.78v-7.1h7.27v7.1h9.31v6.48h-8.72A85.41,85.41,0,0,0,257,77.09l3.75-2.75,3.16,5.46-4.52,3.5a69.61,69.61,0,0,0,4.3,8.77l-6.29,3.36a93.92,93.92,0,0,1-5-11.53v7.75l-12.25,3.5V83l-1.31,1.59-1.63-3.32V95h-6.87V76.39l-1.22,2.38-4.25-5L235.38,53l5.83,2.06-4,7.88V76.62l8.05-9.47H238.5Zm10.31,11.71-1.95,2.38V85.35l5.34-2A94.8,94.8,0,0,1,248.81,72.38Z"/><path class="cls-4" d="M272.12,75c0-2.94,1.22-4.2,4.16-4.2s4.16,1.26,4.16,4.2-1.31,4.2-4.16,4.2S272.12,77.93,272.12,75Z"/><path class="cls-4" d="M291.28,56.93h12.39V53.57h8v3.36h12.43v5.28H291.28ZM299,95V81.15h17.31V92.91L314.79,95h8.72V75.51H291.87V95Zm-3.3-21h23.87V63.7H295.71Zm4.57,18.57h14.78V82.6H300.28ZM303,69.63V68h9.13v1.59ZM306,88.38V86.75h3.39v1.63Z"/><g class="cls-5"><path class="cls-2" d="M306.23,740.08c-4.72,0-9.52,0-14.25-.12l14.08-354.15h0v-.05h0l0-.31-.07.09v-.09l.08-.08h0l.14-.14-.07-.07-.06,0v-.05h0l0,0h0v0h0l0,0,.06,0V385l-.06,0h.06v0l-.07,0,0,0h0v0h0v0h.2l0,.05h0l0,0,.14.07h-.07l-.09,0,0,.06h0l0,0h.1l0,0h-.05l0,0h0l.08.11,0-.13h-.08l0,0,.06,0h0l0,0h0l0-.07h0v0l.06,0-.06,0h.06v0l0,0h.07l.07.09h-.05v0l.15.05.06.07-.2-.1v.06L653.74,656.67a594.24,594.24,0,0,1-63.3,30.21L306.74,385.8l0-.06v0l-.07-.07h0l-.23-.41,0,.19h0l0,.28.18,0,.16.23,63,351.68C348.78,739.25,327.41,740.08,306.23,740.08Zm-.13-354.66.09.31.13-.38-.09-.1Zm.38-.22,0,0,0,0Zm0,0h0Zm0,0Zm-.39-.12Zm0,0h0l0,0h0Zm0,0Zm.35,0Zm-.34-.1,0,0,0,0Zm-91.87,350c-25.76-2.92-51.4-7.12-76.23-12.47L305.54,386.15,65.27,702.76a644.38,644.38,0,0,1-67.4-26.34L305.69,385.74l-.06.23.14-.27.1,0-.26.34Zm232.58-7L306.89,386.15,521,710.8A746.36,746.36,0,0,1,446.81,727.87ZM-62.85,644.06a477.61,477.61,0,0,1-53-37.76l421-220.93.06.08.21-.07.17-.19-.15,0,.22-.11h0l.09-.07-.24.06h0l.29-.07.05-.06.08,0h0l.06,0v0h0l-.08.13h-.06l-.08,0h0l-.21.18.31-.12v0h0l0,.08-.26.12Zm772.53-23.23L307.24,385.45a.83.83,0,0,0,.12-.17l-.5,0-.17-.12h0l.66.13v0l-.51-.12h.21l.4.17.23.05-.16,0L757.26,580A424.19,424.19,0,0,1,709.68,620.83Zm-869.71-57a329.08,329.08,0,0,1-34.51-46.35L304.34,385.39l-522.82,82.85a246.84,246.84,0,0,1-12.76-50.89l536.3-32.14,0,.06-.4.06ZM795.49,535,308.11,385.39,823.43,486.58A294.08,294.08,0,0,1,795.49,535Zm44.85-98.84L307.93,385.33l-.79-.24.41,0,0-.12H845.93A238.58,238.58,0,0,1,840.34,436.12ZM307.18,385.54h0Zm-1.2-.3v0l0,0Zm0,0,0-.05v0Zm0-.1h0V385h0l0,.11.05,0Zm.3,0h0l.06,0h0Zm-.93,0-.43,0s0,0,0-.1h.79Zm1,0Zm0,0,0,0h.05Zm.19,0,0,0h-.08l-.05-.05h0v0h0v0l-.05,0,0,0,.09,0h0l-.1,0,0,0v0h0v0h-.12l-.11,0h0l.11-.05h0l0,0v0h0v-.1l0,.05.06-.06-.09-.21v-.2h0l0,.13,0-.09-.18,0L271.32,30.54c11.56-.49,23.31-.73,34.91-.73,14.25,0,28.67.37,42.85,1.11L306.63,384l.27-.32,119.64-345a759.89,759.89,0,0,1,75.21,15.18L306.91,383.68,572.67,76.06a616.72,616.72,0,0,1,65.07,28.63L306.66,384.39l.24-.7-.3.5-.1.33,0,.11-.1,0,.11,0h0v.08l0-.08h.12l-.15.11v0l.07,0,0,0h0l0,0h0v0h0l0,.05,0,0,.08,0h0l-.07,0,.05,0,0,0v0l.11,0h.47l-.31.05.08,0-.1,0-.24,0h-.06Zm0-.05,0,0h0l0,0Zm0,0h0Zm0,0,.06,0h-.05Zm0,0h0l0,0h0Zm0,0h0Zm0,0,0,0h0Zm0-.09h0Zm.08,0h0Zm0,0h0Zm-.19-.06h0Zm.13-.59,0,.08.05-.07Zm-.12.84,0,0Zm-.15,0h0l0,0Zm0,0h0Zm-.08,0h0Zm-.17,0h0l-.05,0h-.1l-.13-.06.14,0h-.19l-.24-.12.38.05-.05-.05-.46-.14a.1.1,0,0,0,0,.05L-128.35,174.33A455.42,455.42,0,0,1-77.6,135.28l383,249.11-.11-.07.07,0,0,0,.06.05.4.18,0,.09-.36-.21.38.27h-.05l.07.06H306v0h0l0,.07h0l-.07,0v0h0Zm0-.05h0Zm.05-.05h0l0,0h0Zm0,0,0,0Zm-1,.09.3,0,.13,0Zm1.74,0,0,0h0Zm0,0,0,0h-.08l.11,0,.15-.15.44-.05a.84.84,0,0,0-.14-.19L695.74,139.12a445.77,445.77,0,0,1,49.86,39.56L307.48,384.54l.68-.08,478.2-161.8a308.35,308.35,0,0,1,30.73,47.58L308.52,384.41,837,320.28a240.7,240.7,0,0,1,8.58,51.13L307.16,384.8l.67-.23-.89.22h-.09Zm-1.65-.08-537.76-18.56A242.39,242.39,0,0,1-223,315.09L304.31,384.5-201.95,265.2a313.14,313.14,0,0,1,31.82-47.26L304.6,384.53l.5.07a.43.43,0,0,1,0,.07l-.2,0,.19.06S305,384.72,305,384.73Zm.92,0h0Zm0,0h0Zm.75-.13.13-.07,0,0Zm-.64-.09-.14-.27.16.19Zm1.12-.16Zm-1.48-.12L-18.81,101.43a624,624,0,0,1,65.72-28L305.6,383.88l.1.32Zm-.17-.66L118.24,52a762,762,0,0,1,75.52-14.43Z"/></g><polyline class="cls-2" points="30.71 0 30.71 69.63 24.09 69.63 24.09 0"/><polyline class="cls-2" points="47.47 0 47.47 69.63 40.84 69.63 40.84 0"/><polyline class="cls-2" points="64.22 0 64.22 69.63 57.59 69.63 57.59 0"/><polyline class="cls-2" points="80.98 0 80.98 69.63 74.35 69.63 74.35 0"/><polyline class="cls-2" points="97.73 0 97.73 69.63 91.1 69.63 91.1 0"/><polyline class="cls-2" points="114.48 0 114.48 69.63 107.86 69.63 107.86 0"/><polyline class="cls-2" points="131.24 0 131.24 69.63 124.61 69.63 124.61 0"/><polyline class="cls-2" points="147.99 0 147.99 69.63 141.37 69.63 141.37 0"/><polyline class="cls-2" points="164.75 0 164.75 69.63 158.12 69.63 158.12 0"/><polyline class="cls-2" points="181.5 0 181.5 69.63 174.88 69.63 174.88 0"/><polyline class="cls-2" points="198.25 0 198.25 69.63 191.63 69.63 191.63 0"/><polyline class="cls-2" points="215.01 0 215.01 69.63 208.38 69.63 208.38 0"/><polyline class="cls-2" points="231.76 0 231.76 69.63 225.14 69.63 225.14 0"/><polyline class="cls-2" points="248.52 0 248.52 69.63 241.89 69.63 241.89 0"/><polyline class="cls-2" points="265.27 0 265.27 69.63 258.65 69.63 258.65 0"/><polyline class="cls-2" points="282.03 0 282.03 69.63 275.4 69.63 275.4 0"/><polyline class="cls-2" points="298.78 0 298.78 69.63 292.15 69.63 292.15 0"/><polyline class="cls-2" points="315.54 0 315.54 69.63 308.91 69.63 308.91 0"/><polyline class="cls-2" points="332.29 0 332.29 69.63 325.66 69.63 325.66 0"/><polyline class="cls-2" points="349.04 0 349.04 69.63 342.42 69.63 342.42 0"/><polyline class="cls-2" points="365.8 0 365.8 69.63 359.17 69.63 359.17 0"/><polyline class="cls-2" points="382.55 0 382.55 69.63 375.93 69.63 375.93 0"/><polyline class="cls-2" points="399.31 0 399.31 69.63 392.68 69.63 392.68 0"/><polyline class="cls-2" points="416.06 0 416.06 69.63 409.43 69.63 409.43 0"/><polyline class="cls-2" points="432.81 0 432.81 69.63 426.19 69.63 426.19 0"/><polyline class="cls-2" points="449.57 0 449.57 69.63 442.94 69.63 442.94 0"/><polyline class="cls-2" points="466.32 0 466.32 69.63 459.7 69.63 459.7 0"/><polyline class="cls-2" points="483.08 0 483.08 69.63 476.45 69.63 476.45 0"/><polyline class="cls-2" points="499.83 0 499.83 69.63 493.21 69.63 493.21 0"/><polyline class="cls-2" points="516.59 0 516.59 69.63 509.96 69.63 509.96 0"/><polyline class="cls-2" points="533.34 0 533.34 69.63 526.71 69.63 526.71 0"/><polyline class="cls-2" points="550.1 0 550.1 69.63 543.47 69.63 543.47 0"/><polyline class="cls-2" points="566.85 0 566.85 69.63 560.22 69.63 560.22 0"/><polyline class="cls-2" points="583.6 0 583.6 69.63 576.98 69.63 576.98 0"/><path class="cls-6" d="M597.12,66.56V142.3c-74.51-30-178.38-48.55-293.27-48.55S85.07,112.34,10.57,142.3V66.57c74.5-25.3,178.38-41,293.28-41S522.61,41.27,597.12,66.56Z"/><path class="cls-7" d="M52.63,117.32c-.58.24-1.31.51-2.2.82s-1.84.58-2.87.82a16,16,0,0,0-1.18-2.34,12,12,0,0,0-1.64-2.16c.91-.2,1.75-.4,2.52-.61l1.75-.47a3.12,3.12,0,0,0,.79-.35,1.45,1.45,0,0,0,.49-.62,2.64,2.64,0,0,0,.11-1.12c0-.51-.11-1.19-.23-2s-.33-1.88-.6-3.09-.62-2.67-1-4.34L41.32,104c-.18-1.16-.41-2.44-.7-3.84s-.59-2.86-.92-4.37-.67-3-1-4.55-.7-3-1.06-4.36l6-1.82L42,79.61l-7,2.13-1.59-5.23L44.81,73l4.85,16-6.51,2c.29,1.13.55,2.24.79,3.35s.47,2.18.7,3.22l7.21-2.19c.07.25.14.51.19.77s.13.46.19.7a5,5,0,0,1,.12.61c.7,2.7,1.28,5,1.73,7s.79,3.59,1,4.93a20.93,20.93,0,0,1,.37,3.27,5,5,0,0,1-.28,2,4,4,0,0,1-1,1.7A5.86,5.86,0,0,1,52.63,117.32Zm17-10.35-3.79,3.69c-1,1-1.75,1.73-2.32,2.32a15.58,15.58,0,0,0-1.24,1.39,5.36,5.36,0,0,0-.56.87c-.18-.3-.4-.64-.66-1s-.55-.79-.85-1.17a13.9,13.9,0,0,0-.92-1.07q-.47-.51-.84-.87a5.21,5.21,0,0,0,.91-1.7,4.17,4.17,0,0,0-.08-2.6L55.21,93.41l-3.47,1-1.61-5.32,3.46-1.06-5-16.6,4.63-1.41,5,16.61L72.65,82.3l1.62,5.33-7.45,2.26a50.34,50.34,0,0,0,2.88,4.63,35.3,35.3,0,0,0,3.23,4,27.12,27.12,0,0,0,3.5,3.12,16.69,16.69,0,0,0,3.74,2.08,15.48,15.48,0,0,0-1.07,2.64,21.52,21.52,0,0,0-.72,2.84,20.19,20.19,0,0,1-4.5-2.79,31.38,31.38,0,0,1-4.12-4.05,49.56,49.56,0,0,1-3.82-5.13q-1.83-2.82-3.52-6L59.85,92l4,13.14,3.91-3.53c.1.42.23.88.39,1.36s.34,1,.52,1.49.36,1,.53,1.39Zm-2-38.43a35.65,35.65,0,0,1-.77,4.34c-.35,1.45-.77,2.88-1.24,4.27s-1,2.71-1.56,4a33.22,33.22,0,0,1-1.81,3.48c-.26-.19-.58-.42-1-.66l-1.23-.77-1.3-.78c-.43-.25-.8-.45-1.1-.6a25.17,25.17,0,0,0,1.74-3,34.24,34.24,0,0,0,1.44-3.32A32.42,32.42,0,0,0,62,72a31.67,31.67,0,0,0,.67-3.61Z"/><path class="cls-7" d="M101.71,103.47a8.46,8.46,0,0,1-2.6,1.31c-1,.33-2.24.66-3.64,1a14.25,14.25,0,0,0-1.3-2.4c-.55-.83-1-1.54-1.49-2.15.45-.08.92-.17,1.41-.29l1.39-.33,1.15-.27.69-.16a1,1,0,0,0,.58-.29.75.75,0,0,0,0-.63L96.69,94l-5.53,1.9c-1.42.49-2.55.9-3.39,1.24a17.26,17.26,0,0,0-1.89.85,7.61,7.61,0,0,0-1,.71,7.12,7.12,0,0,0-.41-1l-.63-1.23c-.23-.44-.46-.88-.7-1.31L82.44,94a12.78,12.78,0,0,0,2.39-1.31c.9-.6,1.81-1.27,2.74-2s1.83-1.47,2.69-2.2,1.58-1.37,2.18-1.92l-3.71,1.31c-1,.35-1.71.64-2.28.88a10.42,10.42,0,0,0-1.3.61,5.78,5.78,0,0,0-.73.48L84,89c-.19-.36-.38-.75-.59-1.16l-.62-1.21c-.21-.39-.4-.74-.58-1A13.75,13.75,0,0,0,84.71,84c.92-.71,1.83-1.48,2.74-2.31S89.21,80,90,79.19s1.46-1.6,2-2.23q-4,1.76-7.78,3.37l-6.77,2.88-1.61-5,2.39-.87L75.66,66.52l4.17-1,2.41,10.21,2.38-.92-3.17-13.4L86,60.35l1,4.35,4.75-1.13,1.08,4.55-4.76,1.13L89,73.12l4.79-1.85,1.14,4.43-1,.45,3.07,2c-.64.73-1.3,1.42-2,2.08s-1.38,1.3-2.09,2l5.83-1.89c.55-.61,1.1-1.24,1.64-1.9s1.07-1.33,1.57-2l3.79,3.29a68.88,68.88,0,0,1-4.91,5.3q-2.57,2.5-5.33,4.79l10.24-3.24c-.46-.37-.9-.71-1.33-1s-.88-.59-1.34-.85l3.34-2.89c.88.54,1.81,1.14,2.79,1.79s1.94,1.33,2.9,2,1.87,1.39,2.72,2.09a23.12,23.12,0,0,1,2.17,2l-3.67,3.22a30.07,30.07,0,0,0-3.55-3.3l-8.4,2.86,1.4,5.9a8.21,8.21,0,0,1,.27,3.1A3.47,3.47,0,0,1,101.71,103.47Zm-7.49-5.63c-.46.79-1,1.6-1.56,2.44s-1.2,1.65-1.87,2.43-1.34,1.54-2,2.25-1.38,1.35-2.06,1.92l-1-.65c-.36-.25-.75-.5-1.16-.74l-1.19-.72c-.39-.23-.74-.43-1.06-.59a35.18,35.18,0,0,0,4.09-3.47,19.44,19.44,0,0,0,3.13-3.86Zm17.55-31.4a20.18,20.18,0,0,1,.2,3.35,5.66,5.66,0,0,1-.48,2.27,3.39,3.39,0,0,1-1.28,1.4,7.73,7.73,0,0,1-2.15.81l-5.83,1.38a11.25,11.25,0,0,1-3,.38,3.65,3.65,0,0,1-2.07-.63,4.2,4.2,0,0,1-1.4-1.76,15.9,15.9,0,0,1-1-3.06L92,58.92l4.67-1.11,1.43,6c1.37-.9,2.67-1.83,3.9-2.76a26.91,26.91,0,0,0,3.12-2.74l4.42,3.3a49,49,0,0,1-4.92,3.62c-1.81,1.18-3.62,2.25-5.43,3.23l.25,1c.18.78.41,1.23.68,1.37a2.71,2.71,0,0,0,1.63-.08l4.72-1.12a1.88,1.88,0,0,0,.74-.32,1.21,1.21,0,0,0,.36-.65,3.68,3.68,0,0,0,0-1.19c0-.5-.15-1.14-.31-1.92a7.1,7.1,0,0,0,2.17.69A11,11,0,0,0,111.77,66.44ZM107.24,92.2c.86.24,1.78.52,2.73.86s1.91.68,2.85,1,1.82.71,2.68,1.07l2.26,1L114.57,100c-.63-.33-1.37-.7-2.23-1.11s-1.74-.81-2.69-1.2-1.89-.77-2.86-1.14-1.89-.68-2.76-.95Z"/><path class="cls-7" d="M122.86,64.75l.88,4.89L119,70.5l-1.92-10.61,15-2.72a23.69,23.69,0,0,0-1.24-2.6c-.51-1-1-1.82-1.56-2.6l4.49-2.17c.62.86,1.24,1.81,1.86,2.84A20.59,20.59,0,0,1,137,55.37l-2.76,1.41L150,53.92,152,64.54l-5,.89-.89-4.89Zm17.57,30.32a10.3,10.3,0,0,1-3.37,1.49c-1.37.37-3,.7-4.79,1-.13-.42-.31-.88-.52-1.4s-.45-1-.7-1.57-.51-1-.8-1.55-.54-1-.78-1.35c.65-.08,1.31-.17,2-.28l1.91-.29c.6-.09,1.14-.18,1.61-.27l1-.18a1.75,1.75,0,0,0,.78-.37.86.86,0,0,0,.09-.75l-2.44-13.5-14.79,2.67-1-5.53,34.63-6.26,1,5.53-14.87,2.69,2.47,13.65a11,11,0,0,1,.16,3.88A3.73,3.73,0,0,1,140.43,95.07Z"/><path class="cls-7" d="M190.66,87.58l-3.18,1.73L176.34,67.12l4.93-24.33,3.52.83-4.7,23Zm7-.93-3.22,1.73-11.1-22.19,4.9-24.33,3.56.83-4.74,23Z"/><path class="cls-7" d="M207.63,79a22,22,0,0,1-5,8.37,11.61,11.61,0,0,0-.78-.9c-.33-.35-.69-.71-1.07-1.08s-.78-.71-1.16-1a6.46,6.46,0,0,0-1-.76,17,17,0,0,0,4.45-6.64,29.15,29.15,0,0,0,1.77-9l4.91.47q-.1,1.2-.24,2.34l-.3,2.25A10.94,10.94,0,0,0,212,76.7a9.76,9.76,0,0,0,3.62,1.9L214.5,66l-15.82,1.4-.46-5.2L234,59.05l.46,5.21-15.05,1.33.33,3.71,12.49-1.1.45,5.1-12.49,1.1.42,4.81c1.07,0,2.15,0,3.26-.14l2.58-.23,3.67-.35,3.77-.38c1.21-.13,2.18-.24,2.91-.34a11.72,11.72,0,0,0-.38,1.24c-.12.47-.23,1-.34,1.52s-.19,1.08-.26,1.6a11.28,11.28,0,0,0-.14,1.43l-11.56,1a42,42,0,0,1-5.16.15,17.93,17.93,0,0,1-4.4-.68,12.19,12.19,0,0,1-3.74-1.84A15.24,15.24,0,0,1,207.63,79ZM228.43,40,230,57.22l-28.19,2.49-1.52-17.19Zm-22.9,8.72,18.58-1.65-.22-2.52-18.58,1.64Zm.57,6.43,18.58-1.64L224.45,51l-18.58,1.65Z"/><path class="cls-7" d="M261.59,44.54c-.38.61-.77,1.21-1.16,1.79s-.81,1.15-1.25,1.7l.65,14-4.92.23-.42-9.09a56.2,56.2,0,0,1-6.35,5.14,54.54,54.54,0,0,1-6.73,4l-.76-1.18c-.31-.47-.63-.94-1-1.43s-.67-.94-1-1.39a10.65,10.65,0,0,0-.95-1.1,47.94,47.94,0,0,0,9.41-5.19,37.21,37.21,0,0,0,7.68-7.2l-16,.74-.26-5.51,35.64-1.65.26,5.52ZM249.73,81.72l.08,1.84-5,.23-.91-19.62,27.55-1.27.9,19.57-5.29.24L267,80.92Zm-.24-5.12,17.25-.79-.34-7.5-17.25.79ZM263.54,48c1.11.48,2.26,1,3.44,1.69s2.35,1.31,3.48,2,2.21,1.39,3.24,2.09,1.91,1.36,2.68,2l-3.3,4.58c-.76-.66-1.65-1.36-2.66-2.11s-2.1-1.5-3.25-2.24-2.31-1.45-3.5-2.13-2.32-1.29-3.41-1.83Z"/><path class="cls-7" d="M317.91,71.26a43.75,43.75,0,0,1-.69,5.37A11.66,11.66,0,0,1,316.08,80a4.05,4.05,0,0,1-1.7,1.73,5.58,5.58,0,0,1-2.38.49,5.11,5.11,0,0,1-4-2.06,19.18,19.18,0,0,1-3.07-5.75,45.31,45.31,0,0,1-3.66,3.33,42.14,42.14,0,0,1-3.83,2.78q-.54-1-1.44-2.4a21.15,21.15,0,0,0-1.81-2.35,34.49,34.49,0,0,0,4.64-3.11,44,44,0,0,0,4.39-4c-.47-2-.89-4.09-1.24-6.3s-.66-4.56-.92-7l-8.27.06,0,5.66.79-.18.75-.17,3.18-.72q.36-.1.75-.18l.79-.18.4,5.37-6.62,1.68.05,8.5a11.28,11.28,0,0,1-.46,3.76,3.78,3.78,0,0,1-1.7,2,7.91,7.91,0,0,1-3,1,27.85,27.85,0,0,1-4.32.23,20.7,20.7,0,0,0-.69-3,27.66,27.66,0,0,0-1.06-3c.57,0,1.13.06,1.69.07s1.08,0,1.57,0,.91,0,1.28,0l.84,0a1,1,0,0,0,.77-.23,1.27,1.27,0,0,0,.2-.82L288,68l-3.8,1q-1.86.45-3.48.87l-1.22-6c1.16-.24,2.46-.5,3.88-.77s2.95-.6,4.58-1l0-6.66-7.69,0,0-5.62,7.7-.05,0-5.67c-1.11.24-2.22.45-3.32.62l-3.19.52a21.62,21.62,0,0,0-.59-2.53,22.53,22.53,0,0,0-.83-2.43c1.44-.24,2.89-.53,4.35-.85s2.9-.68,4.31-1.05,2.75-.76,4-1.17,2.42-.81,3.45-1.22l3.29,5c-1,.37-2.09.73-3.19,1.07s-2.24.66-3.43,1l0,6.71,7.82,0q-.27-3.39-.39-6.79c-.08-2.27-.15-4.55-.19-6.83l5.09,0c0,2.32,0,4.63.09,6.91s.23,4.53.41,6.71l11.08-.07,0,5.62-10.59.07c.34,3,.76,5.78,1.24,8.39.72-1.06,1.41-2.16,2.05-3.29s1.23-2.3,1.77-3.5l4.29,2.21a49.52,49.52,0,0,1-6.69,10.94,21.37,21.37,0,0,0,1.76,4.48c.62,1.08,1.24,1.61,1.87,1.61.43,0,.77-.65,1-1.92a46.84,46.84,0,0,0,.49-6.35,12.25,12.25,0,0,0,1.93,1.95A11.25,11.25,0,0,0,317.91,71.26ZM310.23,37c.55.56,1.11,1.18,1.7,1.85s1.16,1.36,1.71,2.06,1.05,1.37,1.52,2.05a17.27,17.27,0,0,1,1.15,1.91l-3.89,3.35c-.27-.56-.62-1.19-1.05-1.9a25.31,25.31,0,0,0-1.44-2.16c-.53-.72-1.09-1.44-1.66-2.15s-1.14-1.36-1.68-1.95Z"/><path class="cls-7" d="M336.29,76.7a27.42,27.42,0,0,1-2.79,1.67c-1,.55-2.08,1.07-3.17,1.56s-2.2.93-3.32,1.33-2.2.72-3.22,1a10.62,10.62,0,0,0-.66-1c-.26-.36-.53-.73-.81-1.1l-.86-1.1a12,12,0,0,0-.83-1c1-.23,2-.53,3.09-.89s2.12-.75,3.14-1.16,2-.85,2.9-1.31a19.25,19.25,0,0,0,2.37-1.42L321,72.94l.17-4.87,5.41.19.76-21.87,9.73.34c.16-.69.3-1.43.44-2.22L323.12,44l.17-4.92,15,.52c.08-.63.15-1.23.21-1.81s.11-1.13.16-1.66l5.06.77-.5,2.87,14.2.49-.17,4.92-15-.52q-.13.6-.24,1.14c-.07.36-.13.72-.2,1.08l11.07.39-.76,21.86,5.25.18-.17,4.87-10.78-.37q1.51.65,3.09,1.35c1,.47,2,.94,3,1.42s1.87,1,2.7,1.44,1.6.93,2.26,1.35l-4.17,3.83c-.66-.45-1.42-.95-2.29-1.49s-1.79-1.1-2.79-1.67-2.05-1.11-3.14-1.65-2.2-1-3.3-1.46l2.72-3.19-11.88-.41Zm-5-8.28,16,.55.08-2.28-16-.56Zm.2-5.62,15.95.56.07-1.94-16-.55Zm.18-5.21,15.95.55.07-1.89-16-.55Zm.18-5.22,16,.55.08-2.13-16-.56Z"/><path class="cls-7" d="M390.29,85.2a16.4,16.4,0,0,1-2.88,0c-1.13-.08-2.29-.2-3.51-.36a15,15,0,0,0-.29-2.92,13.62,13.62,0,0,0-.85-3,31.57,31.57,0,0,0,3.57.55l2.46.21a1.95,1.95,0,0,0,1.85-.7,6.47,6.47,0,0,0,.95-2.3c.3-1.15.62-2.78.94-4.89s.68-4.73,1.06-7.9.78-6.92,1.23-11.27L386.13,52q-1,2.16-2.05,4.1A39.74,39.74,0,0,1,382,59.54a13.23,13.23,0,0,0-1.3-1.43c-.57-.55-1.1-1.09-1.61-1.59l-1.77,23.15-10.84-.83-.28,3.62-4.39-.33,2.82-36.84,4.59.35c.37-1.23.71-2.57,1-4s.58-2.73.75-3.88l5.21,1.3c-.45,1.23-.9,2.43-1.34,3.61S374,44.94,373.51,46l6.3.48-.62,8a40,40,0,0,0,3.75-7.12,76.57,76.57,0,0,0,3-8.43l4.49,1.64c-.3,1-.63,2.07-1,3.09s-.72,2-1.1,3.09l11.45.87c0,.37,0,.73-.08,1.09s0,.56-.07.87a4.47,4.47,0,0,1-.09.72q-.84,8.31-1.49,14.07t-1.21,9.53a50.77,50.77,0,0,1-1.17,5.85,10,10,0,0,1-1.27,3,5.59,5.59,0,0,1-1.91,1.79A6.67,6.67,0,0,1,390.29,85.2ZM366.83,73.64l6.45.49.74-9.72-6.45-.49ZM368,58.81l6.45.5.62-8-6.46-.5Zm18.22-.55c.44.9.92,1.86,1.41,2.88s1,2,1.44,3.07.89,2,1.28,3,.73,1.79,1,2.54L387,72.48c-.21-.78-.51-1.65-.88-2.63s-.78-2-1.2-3-.87-2.12-1.35-3.2-.92-2.09-1.34-3Z"/><path class="cls-7" d="M440.62,64.39l-.77,6.37-37.11-4.48.76-6.37Z"/><path class="cls-7" d="M462.29,73a47.49,47.49,0,0,1-3,6.08,27.82,27.82,0,0,1-9.41,9.7,28.92,28.92,0,0,1-7,3.14,20.85,20.85,0,0,0-1-2.84,11.71,11.71,0,0,0-1.41-2.61A27.69,27.69,0,0,0,446.88,84a23.33,23.33,0,0,0,8.38-8.07,32.61,32.61,0,0,0,2.58-5.11L444.3,68.49l1-5.79,14.46,2.44c.36-1.35.69-2.69,1-4s.57-2.7.85-4.07L449,54.92l1-5.74,31.93,5.39-1,5.74L466.5,57.87c-.28,1.36-.58,2.71-.89,4.06s-.65,2.69-1,4l17.18,2.9-1,5.78-13.25-2.23-2.36,14a2.89,2.89,0,0,0,.05,1.85,2.53,2.53,0,0,0,1.59.64l4.94.84a1.58,1.58,0,0,0,1-.11,2,2,0,0,0,.75-.93,12,12,0,0,0,.72-2.15c.24-1,.52-2.2.84-3.76A8.94,8.94,0,0,0,477,84.6,13.26,13.26,0,0,0,479.26,86a41.58,41.58,0,0,1-1.47,5.07,10.58,10.58,0,0,1-1.67,3,4.12,4.12,0,0,1-2.1,1.38,6.55,6.55,0,0,1-2.81,0l-6-1a10.77,10.77,0,0,1-3.07-.92A4.08,4.08,0,0,1,460.41,92a5.48,5.48,0,0,1-.6-2.57,21.55,21.55,0,0,1,.35-3.75Z"/><path class="cls-7" d="M489.72,82.63q-.63,2.25-1.38,4.53c-.51,1.52-1,3-1.64,4.45a38.51,38.51,0,0,1-1.93,4.08,24.63,24.63,0,0,1-2.27,3.41,9.81,9.81,0,0,0-.57-1.07c-.26-.41-.53-.84-.82-1.28s-.59-.85-.88-1.24a7.21,7.21,0,0,0-.77-.91A23,23,0,0,0,482,90.35a50.66,50.66,0,0,0,2-5q.87-2.58,1.52-5.22c.43-1.75.83-3.42,1.18-5l3.91-17.51h0c1.23.11,2.49.18,3.77.21s2.55,0,3.78,0,2.42-.09,3.57-.19a25.83,25.83,0,0,0,3.13-.45l1.92,5.57a42.89,42.89,0,0,1-6.07.46q-3.21,0-6.41-.24l-.77,3.45,10.21,2.28-3.61,16.2ZM491,77.52l5.64,1.26L498,72.86l-5.65-1.26ZM509.16,80q-.69,2.89-1.74,6a46.26,46.26,0,0,1-2.55,6.1,36.44,36.44,0,0,1-3.48,5.6,20.07,20.07,0,0,1-4.6,4.42,9.91,9.91,0,0,0-.53-1.16c-.24-.45-.49-.89-.77-1.35s-.54-.87-.82-1.27-.5-.73-.7-1a18.6,18.6,0,0,0,4.38-4.29,28.72,28.72,0,0,0,3-5.25,41.32,41.32,0,0,0,2.06-5.66q.81-2.88,1.39-5.5l3.37-15.09c1.26.08,2.55.12,3.85.12s2.6,0,3.86-.08,2.48-.15,3.63-.28a28.94,28.94,0,0,0,3.19-.54l1.94,5.68a38.88,38.88,0,0,1-6.12.62q-3.26.09-6.48-.07l-1.64,7.38,12.4,2.77-1.25,5.58L518,82l-5.19,23.24-4.69-1L513.3,81Z"/><path class="cls-7" d="M547.81,114.29a6.88,6.88,0,0,1-3.07,0c-1.16-.23-2.54-.57-4.13-1a23.29,23.29,0,0,0,.22-2.93,27.73,27.73,0,0,0-.06-3c.49.18,1,.35,1.51.51l1.43.47,1.19.36.77.22a.88.88,0,0,0,1.17-.7l.82-2.86-14.13-4.06-2.62,9.13-4.62-1.32,6-20.79c-1.08.82-2.18,1.59-3.3,2.28a26.14,26.14,0,0,1-3.47,1.83,8,8,0,0,0-.32-1.23q-.23-.69-.48-1.44t-.51-1.41c-.17-.44-.33-.83-.49-1.15A29.86,29.86,0,0,0,531,82.63,46.18,46.18,0,0,0,537.43,76l-8.58-2.46,1.54-5.35,10.53,3a62,62,0,0,0,3.18-5.35l4.44,2.72c-.42.68-.84,1.36-1.25,2s-.84,1.37-1.28,2l19.1,5.48-1.53,5.35-21-6c-.88,1.2-1.76,2.31-2.65,3.33l18.13,5.2-6.77,23.61A11.27,11.27,0,0,1,550,112.9,3.46,3.46,0,0,1,547.81,114.29ZM534.89,96.57,549,100.62l.89-3.1-14.13-4.06Zm2.24-7.84,14.14,4.06.87-3.06L538,85.67Z"/><path class="cls-7" d="M574.76,99.79l-15.62,19.28-2.77-2.38,14.87-18.18L571.57,75l3.66,0Zm6.62,2.42-15.66,19.27L563,119.1l14.83-18.19.37-23.47,3.62-.06Z"/></g><line class="cls-6" x1="6.42" y1="145.95" x2="599.19" y2="145.95"/></svg>