<svg id="图层_1" data-name="图层 1" xmlns="http://www.w3.org/2000/svg" xmlns:xlink="http://www.w3.org/1999/xlink" viewBox="0 0 608 145.57"><defs><style>.cls-1{fill:none;}.cls-2{fill:#255c3f;}.cls-3{clip-path:url(#clip-path);}.cls-4,.cls-7{fill:#f6ead5;}.cls-5{opacity:0.53;}.cls-6{fill:#3f93a2;stroke-width:4.94px;}.cls-6,.cls-7{stroke:#255c3f;stroke-miterlimit:10;}.cls-7{stroke-width:0.71px;}</style><clipPath id="clip-path"><rect class="cls-1" x="10.17" width="589.02" height="144.87"/></clipPath></defs><rect class="cls-2" x="6.78" width="6.63" height="1523.02"/><rect class="cls-2" x="595.47" width="6.63" height="1523.02"/><g class="cls-3"><path class="cls-4" d="M98.37,53.2l12.92,4.39a46.36,46.36,0,0,0,8.45-4.53l4,4a46.76,46.76,0,0,1-4.84,3.13l5.69,1.91L122,67l-10.62-3.46c-1.17.42-2.39.8-3.66,1.17l2.89,1-.85,1.44H126.3v6H106.14L103.88,77h4.25V74.2h7.5V77h8.63V92.68H115.9l1.49-2.24V83.2h-1.76V95h-7.5V83.2h-1.72v9.48h-7V84.46l-3.66,6.12-5.11-5,7.68-12.37H92.13v-6h9.94l.86-1.35c-2,.42-4.11.7-6.24.93L94,61.88c2.85-.42,5.51-.84,8-1.4l-6.51-2.15Z"/><path class="cls-4" d="M137.77,60.67h4.75v-7.1h6.87v7.1h4.25v6.58h-4.16l5,9.47-2.93,7-2.17-5.18V95h-6.87V81l-2.44,7.19-4.79-4.39,7.23-16.51h-4.75Zm17.58,0h4.34v-7.1h6.92v7.1h4.7v6.58h-4.57l7.37,16.51-5,4.39-2.48-7.51V95h-6.92V80.73l-2.44,7.42-5-4,7.33-16.93h-4.21Z"/><path class="cls-4" d="M194.26,54.51h11.39V95.06h-5.6l1.08-1.82V82.18H200l-.41,12.88h-5.06l0-2.8-4.25,3.31-2.71-3.73q-1.22,1.89-2.71,3.78l-4.43-2.85A35.92,35.92,0,0,0,184.14,87l-3.39-4.71,1.49-16.89H181V58.75h1.86l.4-4.8,6,.37-.5,4.43h5.15c0,10.41-.09,18.9-3.11,26.83l3.84,5.84.18-9.24h-.91V76.44h1l.09-4.43h-.68V66.27h.81l.1-5.46h-.91ZM188,65.38l-1.49,13.76.41.66a61.34,61.34,0,0,0,1.85-14.42Zm12.16,11.06h1V72h-.86Zm.49-15.63-.18,5.46h.68V60.81Zm10.76,34.25V92h1.54c4.11,0,5.37-5,5.37-9.1,0-4.43-1.89-8.91-3-11.57l3.34-16.76h-12V95.06Zm0-27.21V60.9h1.27Zm0,17.41V74.06c1,2.38,2.08,5.55,2.08,7.6,0,.56,0,3.6-2,3.6Z"/><path class="cls-4" d="M238.5,60.67h7.78v-7.1h7.27v7.1h9.31v6.48h-8.72A85.41,85.41,0,0,0,257,77.09l3.75-2.75,3.16,5.46-4.52,3.5a69.61,69.61,0,0,0,4.3,8.77l-6.29,3.36a93.92,93.92,0,0,1-5-11.53v7.75l-12.25,3.5V83l-1.31,1.59-1.63-3.32V95h-6.87V76.39l-1.22,2.38-4.25-5L235.38,53l5.83,2.06-4,7.88V76.62l8.05-9.47H238.5Zm10.31,11.71-1.95,2.38V85.35l5.34-2A94.8,94.8,0,0,1,248.81,72.38Z"/><path class="cls-4" d="M272.12,75c0-2.94,1.22-4.2,4.16-4.2s4.16,1.26,4.16,4.2-1.31,4.2-4.16,4.2S272.12,77.93,272.12,75Z"/><path class="cls-4" d="M291.28,56.93h12.39V53.57h8v3.36h12.43v5.28H291.28ZM299,95V81.15h17.31V92.91L314.79,95h8.72V75.51H291.87V95Zm-3.3-21h23.87V63.7H295.71Zm4.57,18.57h14.78V82.6H300.28ZM303,69.63V68h9.13v1.59ZM306,88.38V86.75h3.39v1.63Z"/><g class="cls-5"><path class="cls-2" d="M306.23,740.08c-4.72,0-9.52,0-14.25-.12l14.08-354.15h0v-.05h0l0-.31-.07.09v-.09l.08-.08h0l.14-.14-.07-.07-.06,0v-.05h0l0,0h0v0h0l0,0,.06,0V385l-.06,0h.06v0l-.07,0,0,0h0v0h0v0h.2l0,.05h0l0,0,.14.07h-.07l-.09,0,0,.06h0l0,0h.1l0,0h-.05l0,0h0l.08.11,0-.13h-.08l0,0,.06,0h0l0,0h0l0-.07h0v0l.06,0-.06,0h.06v0l0,0h.07l.07.09h-.05v0l.15.05.06.07-.2-.1v.06L653.74,656.67a594.24,594.24,0,0,1-63.3,30.21L306.74,385.8l0-.06v0l-.07-.07h0l-.23-.41,0,.19h0l0,.28.18,0,.16.23,63,351.68C348.78,739.25,327.41,740.08,306.23,740.08Zm-.13-354.66.09.31.13-.38-.09-.1Zm.38-.22,0,0,0,0Zm0,0h0Zm0,0Zm-.39-.12Zm0,0h0l0,0h0Zm0,0Zm.35,0Zm-.34-.1,0,0,0,0Zm-91.87,350c-25.76-2.92-51.4-7.12-76.23-12.47L305.54,386.15,65.27,702.76a644.38,644.38,0,0,1-67.4-26.34L305.69,385.74l-.06.23.14-.27.1,0-.26.34Zm232.58-7L306.89,386.15,521,710.8A746.36,746.36,0,0,1,446.81,727.87ZM-62.85,644.06a477.61,477.61,0,0,1-53-37.76l421-220.93.06.08.21-.07.17-.19-.15,0,.22-.11h0l.09-.07-.24.06h0l.29-.07.05-.06.08,0h0l.06,0v0h0l-.08.13h-.06l-.08,0h0l-.21.18.31-.12v0h0l0,.08-.26.12Zm772.53-23.23L307.24,385.45a.83.83,0,0,0,.12-.17l-.5,0-.17-.12h0l.66.13v0l-.51-.12h.21l.4.17.23.05-.16,0L757.26,580A424.19,424.19,0,0,1,709.68,620.83Zm-869.71-57a329.08,329.08,0,0,1-34.51-46.35L304.34,385.39l-522.82,82.85a246.84,246.84,0,0,1-12.76-50.89l536.3-32.14,0,.06-.4.06ZM795.49,535,308.11,385.39,823.43,486.58A294.08,294.08,0,0,1,795.49,535Zm44.85-98.84L307.93,385.33l-.79-.24.41,0,0-.12H845.93A238.58,238.58,0,0,1,840.34,436.12ZM307.18,385.54h0Zm-1.2-.3v0l0,0Zm0,0,0-.05v0Zm0-.1h0V385h0l0,.11.05,0Zm.3,0h0l.06,0h0Zm-.93,0-.43,0s0,0,0-.1h.79Zm1,0Zm0,0,0,0h.05Zm.19,0,0,0h-.08l-.05-.05h0v0h0v0l-.05,0,0,0,.09,0h0l-.1,0,0,0v0h0v0h-.12l-.11,0h0l.11-.05h0l0,0v0h0v-.1l0,.05.06-.06-.09-.21v-.2h0l0,.13,0-.09-.18,0L271.32,30.54c11.56-.49,23.31-.73,34.91-.73,14.25,0,28.67.37,42.85,1.11L306.63,384l.27-.32,119.64-345a759.89,759.89,0,0,1,75.21,15.18L306.91,383.68,572.67,76.06a616.72,616.72,0,0,1,65.07,28.63L306.66,384.39l.24-.7-.3.5-.1.33,0,.11-.1,0,.11,0h0v.08l0-.08h.12l-.15.11v0l.07,0,0,0h0l0,0h0v0h0l0,.05,0,0,.08,0h0l-.07,0,.05,0,0,0v0l.11,0h.47l-.31.05.08,0-.1,0-.24,0h-.06Zm0-.05,0,0h0l0,0Zm0,0h0Zm0,0,.06,0h-.05Zm0,0h0l0,0h0Zm0,0h0Zm0,0,0,0h0Zm0-.09h0Zm.08,0h0Zm0,0h0Zm-.19-.06h0Zm.13-.59,0,.08.05-.07Zm-.12.84,0,0Zm-.15,0h0l0,0Zm0,0h0Zm-.08,0h0Zm-.17,0h0l-.05,0h-.1l-.13-.06.14,0h-.19l-.24-.12.38.05-.05-.05-.46-.14a.1.1,0,0,0,0,.05L-128.35,174.33A455.42,455.42,0,0,1-77.6,135.28l383,249.11-.11-.07.07,0,0,0,.06.05.4.18,0,.09-.36-.21.38.27h-.05l.07.06H306v0h0l0,.07h0l-.07,0v0h0Zm0-.05h0Zm.05-.05h0l0,0h0Zm0,0,0,0Zm-1,.09.3,0,.13,0Zm1.74,0,0,0h0Zm0,0,0,0h-.08l.11,0,.15-.15.44-.05a.84.84,0,0,0-.14-.19L695.74,139.12a445.77,445.77,0,0,1,49.86,39.56L307.48,384.54l.68-.08,478.2-161.8a308.35,308.35,0,0,1,30.73,47.58L308.52,384.41,837,320.28a240.7,240.7,0,0,1,8.58,51.13L307.16,384.8l.67-.23-.89.22h-.09Zm-1.65-.08-537.76-18.56A242.39,242.39,0,0,1-223,315.09L304.31,384.5-201.95,265.2a313.14,313.14,0,0,1,31.82-47.26L304.6,384.53l.5.07a.43.43,0,0,1,0,.07l-.2,0,.19.06S305,384.72,305,384.73Zm.92,0h0Zm0,0h0Zm.75-.13.13-.07,0,0Zm-.64-.09-.14-.27.16.19Zm1.12-.16Zm-1.48-.12L-18.81,101.43a624,624,0,0,1,65.72-28L305.6,383.88l.1.32Zm-.17-.66L118.24,52a762,762,0,0,1,75.52-14.43Z"/></g><polyline class="cls-2" points="30.71 0 30.71 69.63 24.09 69.63 24.09 0"/><polyline class="cls-2" points="47.47 0 47.47 69.63 40.84 69.63 40.84 0"/><polyline class="cls-2" points="64.22 0 64.22 69.63 57.59 69.63 57.59 0"/><polyline class="cls-2" points="80.98 0 80.98 69.63 74.35 69.63 74.35 0"/><polyline class="cls-2" points="97.73 0 97.73 69.63 91.1 69.63 91.1 0"/><polyline class="cls-2" points="114.48 0 114.48 69.63 107.86 69.63 107.86 0"/><polyline class="cls-2" points="131.24 0 131.24 69.63 124.61 69.63 124.61 0"/><polyline class="cls-2" points="147.99 0 147.99 69.63 141.37 69.63 141.37 0"/><polyline class="cls-2" points="164.75 0 164.75 69.63 158.12 69.63 158.12 0"/><polyline class="cls-2" points="181.5 0 181.5 69.63 174.88 69.63 174.88 0"/><polyline class="cls-2" points="198.25 0 198.25 69.63 191.63 69.63 191.63 0"/><polyline class="cls-2" points="215.01 0 215.01 69.63 208.38 69.63 208.38 0"/><polyline class="cls-2" points="231.76 0 231.76 69.63 225.14 69.63 225.14 0"/><polyline class="cls-2" points="248.52 0 248.52 69.63 241.89 69.63 241.89 0"/><polyline class="cls-2" points="265.27 0 265.27 69.63 258.65 69.63 258.65 0"/><polyline class="cls-2" points="282.03 0 282.03 69.63 275.4 69.63 275.4 0"/><polyline class="cls-2" points="298.78 0 298.78 69.63 292.15 69.63 292.15 0"/><polyline class="cls-2" points="315.54 0 315.54 69.63 308.91 69.63 308.91 0"/><polyline class="cls-2" points="332.29 0 332.29 69.63 325.66 69.63 325.66 0"/><polyline class="cls-2" points="349.04 0 349.04 69.63 342.42 69.63 342.42 0"/><polyline class="cls-2" points="365.8 0 365.8 69.63 359.17 69.63 359.17 0"/><polyline class="cls-2" points="382.55 0 382.55 69.63 375.93 69.63 375.93 0"/><polyline class="cls-2" points="399.31 0 399.31 69.63 392.68 69.63 392.68 0"/><polyline class="cls-2" points="416.06 0 416.06 69.63 409.43 69.63 409.43 0"/><polyline class="cls-2" points="432.81 0 432.81 69.63 426.19 69.63 426.19 0"/><polyline class="cls-2" points="449.57 0 449.57 69.63 442.94 69.63 442.94 0"/><polyline class="cls-2" points="466.32 0 466.32 69.63 459.7 69.63 459.7 0"/><polyline class="cls-2" points="483.08 0 483.08 69.63 476.45 69.63 476.45 0"/><polyline class="cls-2" points="499.83 0 499.83 69.63 493.21 69.63 493.21 0"/><polyline class="cls-2" points="516.59 0 516.59 69.63 509.96 69.63 509.96 0"/><polyline class="cls-2" points="533.34 0 533.34 69.63 526.71 69.63 526.71 0"/><polyline class="cls-2" points="550.1 0 550.1 69.63 543.47 69.63 543.47 0"/><polyline class="cls-2" points="566.85 0 566.85 69.63 560.22 69.63 560.22 0"/><polyline class="cls-2" points="583.6 0 583.6 69.63 576.98 69.63 576.98 0"/><path class="cls-6" d="M597.12,66.56V142.3c-74.51-30-178.38-48.55-293.27-48.55S85.07,112.34,10.57,142.3V66.57c74.5-25.3,178.38-41,293.28-41S522.61,41.27,597.12,66.56Z"/><path class="cls-7" d="M61.73,95.75l4.41,14.51-4.49,1.36-4.4-14.51-5.53,1.68,3.66,12.08-4.6,1.4-3.39-11.18a25.64,25.64,0,0,1-1.5,2.56A27.5,27.5,0,0,1,44.15,106c-.55-.49-1.25-1.07-2.1-1.73a23.29,23.29,0,0,0-2.26-1.57,28.06,28.06,0,0,0,3.94-5.93,37.55,37.55,0,0,0,2.61-6.82L38,92.46l-1.51-4.94,11-3.35c.09-.65.16-1.3.2-2s.07-1.29.08-1.92q-1.94,1.36-3.87,2.55l-3.81,2.33c-.27-.26-.61-.57-1-.92l-1.21-1.06q-.63-.54-1.26-1t-1.11-.78c1.76-.92,3.54-1.88,5.33-2.9s3.54-2.08,5.24-3.22q-2.58-.21-5-.33t-4.71-.15l2.24-4.27c1.95,0,4.07,0,6.34.08s4.58.16,6.93.31a36.84,36.84,0,0,0,7-7.25l4.84,2.07c-.7,1-1.48,1.94-2.33,2.91s-1.77,1.93-2.73,2.88c1.65.19,3.2.4,4.66.61s2.79.47,4,.76l-2.37,5c-1.47-.35-3.17-.69-5.12-1s-4-.62-6.26-.88c-.46.38-.92.76-1.41,1.13s-1,.74-1.49,1.1l2.36.06q0,1.09-.09,2.16c-.06.71-.13,1.43-.22,2.15L71.11,77l1.5,5L51.88,88.24c-.19,1-.4,1.89-.62,2.79s-.48,1.81-.77,2.73l5.26-1.6-1.18-3.9,4.48-1.36,1.18,3.9L71,87.54l3.42,11.27a9.34,9.34,0,0,1,.52,3.07,3.17,3.17,0,0,1-1,2.1,6.72,6.72,0,0,1-2.33,1.46c-.93.37-2.06.76-3.39,1.16A16.33,16.33,0,0,0,67,104.3c-.55-.81-1.07-1.51-1.57-2.13.8-.17,1.59-.37,2.35-.6l1.54-.47a.66.66,0,0,0,.49-.93l-1.91-6.28Z"/><path class="cls-7" d="M95.15,85.77c-.56-.72-1.23-1.55-2-2.51s-1.62-1.89-2.48-2.81l5.1,21.73-4.6,1.08L86.6,83.9a64.66,64.66,0,0,1-.88,6.79,31.31,31.31,0,0,1-1.52,5.62,12.7,12.7,0,0,0-.76-1.25c-.3-.45-.62-.89-1-1.34l-1-1.3c-.32-.41-.64-.79-.94-1.13A31.2,31.2,0,0,0,81.8,87.5q.56-2.1.93-4.41c.25-1.54.44-3.1.57-4.7s.19-3.16.2-4.69L77.9,75l-1.27-5.42,6.27-1.47-2.35-10L85.15,57,87.5,67l5.19-1.22L94,71.24l-5.19,1.22.18.77c.37.29,1,.76,1.71,1.42l2.39,2,2.31,2c.72.63,1.24,1.1,1.56,1.4Zm21.1,3.28a35.78,35.78,0,0,1-3.68-4.58q-1.87-2.7-3.7-5.85L113.42,98l-4.75,1.12-4.6-19.61a57.26,57.26,0,0,1-1.43,8,34.7,34.7,0,0,1-2.35,6.58,20.46,20.46,0,0,0-1.85-2.45c-.75-.87-1.43-1.6-2-2.21a29.63,29.63,0,0,0,1.8-4.27q.78-2.35,1.37-4.92a51.88,51.88,0,0,0,.94-5.28c.23-1.81.38-3.6.43-5.39L95.19,71l-1.27-5.42,6.5-1.52L98.07,54l4.76-1.12,2.35,10,7-1.64,1.27,5.42-6,1.42c.8,1.55,1.67,3.08,2.58,4.6s1.86,3,2.83,4.32,2,2.61,3,3.77a30.86,30.86,0,0,0,2.94,3,23.31,23.31,0,0,0-2.49,5.29Z"/><path class="cls-7" d="M130.87,86.65a21.1,21.1,0,0,1-3.75,8,14.7,14.7,0,0,0-1.5-2.05,11.18,11.18,0,0,0-1.78-1.76,17.36,17.36,0,0,0,3.52-7.94c-.86-.83-1.71-1.61-2.55-2.36s-1.65-1.45-2.46-2.11c.05-1.93,0-4.1,0-6.51s-.17-5-.33-7.62l-2.41.43-.93-5.29,3-.52c-.11-1.73-.25-3.43-.42-5.08s-.36-3.25-.58-4.8l3.81-.47c.16,1.52.32,3.1.48,4.72s.29,3.28.4,5l2-.35.66-.22,2.43-.07q1.07,7.23,1.45,13A64.48,64.48,0,0,1,131.82,81c.54.58,1,1.12,1.49,1.63s.86,1,1.22,1.52l-1.91,4.63-.81-1C131.53,87.4,131.21,87,130.87,86.65ZM126.18,76c.32.24.63.49.94.74s.61.51.9.8a77.79,77.79,0,0,0-.64-14.18l-1.68.3c.14,2.2.24,4.33.32,6.41S126.15,74.14,126.18,76Zm13.88.62a58,58,0,0,1-.19,8.64,24.86,24.86,0,0,1-2,8c-.18-.21-.41-.46-.72-.76l-.91-.88c-.32-.28-.63-.53-.95-.76a9.45,9.45,0,0,0-.8-.54A20.65,20.65,0,0,0,136.16,84a44.25,44.25,0,0,0,.21-6.73l-2.16.39-.87-4.9,2.57-.45c-.1-.86-.22-1.7-.36-2.51s-.29-1.62-.43-2.4l-.3-1.72-2.12.38-.87-4.9,2.13-.37-1.13-6.37-2.57.46-.9-5.1,12.08-2.13.45,2.55q1.77,10.08,3,17t1.94,11.45q.72,4.49,1,6.82a11.58,11.58,0,0,1,0,3.23,5.3,5.3,0,0,1-.8,1.83,3.45,3.45,0,0,1-1.19.94,6.08,6.08,0,0,1-1.62.57c-.6.12-1.25.23-2,.32a25.45,25.45,0,0,0-.8-2.54,13.89,13.89,0,0,0-1.16-2.47,10.28,10.28,0,0,0,1.44-.15l1.14-.2a.69.69,0,0,0,.54-.28,2.4,2.4,0,0,0,.33-.94A11.74,11.74,0,0,0,143.6,83q-.24-2.22-1-6.78Zm-2.37-16.49,2.08-.37-1.12-6.37-2.09.37Zm1.17,6.66c.27,1.5.51,3.12.74,4.87l2.16-.39-1.16-6.61-2,.36Zm8.73-15.89,6.95,39.32-4,.7-7.72-43.72L151,45.78l.57-.25,3.29,1.54c0,1.25-.06,2.58-.09,4s-.09,2.84-.14,4.27-.1,2.81-.15,4.16-.11,2.58-.16,3.67a22,22,0,0,1,3.2,5.72,32.35,32.35,0,0,1,1.43,5.27,23.48,23.48,0,0,1,.41,3.74,5.77,5.77,0,0,1-.47,2.59,3.75,3.75,0,0,1-1.57,1.66,8.85,8.85,0,0,1-2.87.94,17.18,17.18,0,0,0-.63-2.39,10.76,10.76,0,0,0-1.08-2.36,4.93,4.93,0,0,0,.73-.08l.56-.1a1.17,1.17,0,0,0,.88-.66,2.71,2.71,0,0,0,.23-1.35A13.17,13.17,0,0,0,154.9,74a28.31,28.31,0,0,0-1.24-4.55,18.8,18.8,0,0,0-2.91-5.17c0-1,.06-2.08.05-3.29s0-2.44-.05-3.68-.05-2.45-.08-3.64,0-2.29-.07-3.3Z"/><path class="cls-7" d="M191.66,79.79l-5.2,3c-1.33.77-2.38,1.4-3.17,1.9a18.72,18.72,0,0,0-1.72,1.2,9,9,0,0,0-.86.78c-.15-.28-.34-.6-.57-1s-.5-.72-.78-1.08a12.69,12.69,0,0,0-.84-1c-.29-.32-.54-.58-.76-.79a8.7,8.7,0,0,0,.66-.93,6.63,6.63,0,0,0,.62-1.28,7.74,7.74,0,0,0,.42-1.61,6.72,6.72,0,0,0,0-1.85l-1.1-8.74a37,37,0,0,1-3,3.69q-.45-.65-1.23-1.62c-.52-.65-1.05-1.28-1.59-1.88l2.34,18.6-4.6.58-3.1-24.62c-.56,1.24-1.16,2.44-1.81,3.59-.15-.35-.37-.78-.65-1.3l-.9-1.59-.94-1.61A14.67,14.67,0,0,0,162,61a37.49,37.49,0,0,0,2.14-4.12c.69-1.53,1.31-3.13,1.88-4.8s1.07-3.42,1.5-5.23.78-3.61,1-5.41l4.74,1.15a89,89,0,0,1-2.64,11.26l1.65,13.12a45.27,45.27,0,0,0,8.74-13.08l-8.16,1-.69-5.47L183.76,48c-.37-1-.84-2-1.4-3.23s-1.12-2.31-1.69-3.35l4.06-2.26c.32.53.65,1.1,1,1.73s.69,1.24,1,1.85.62,1.2.89,1.76a14.72,14.72,0,0,1,.67,1.57l-2.82,1.71,12.77-1.61.69,5.48-11.8,1.49a72.39,72.39,0,0,0,4.27,10.08c.86-1.17,1.72-2.41,2.57-3.7a36.87,36.87,0,0,0,2.13-3.65l4.11,3.69q-1.54,2-3.2,4.06t-3.19,3.81a44.48,44.48,0,0,0,4.42,5.81,24.62,24.62,0,0,0,5,4.23,12.58,12.58,0,0,0-.77,1.1c-.27.44-.54.89-.79,1.35s-.5.94-.73,1.42-.42.93-.58,1.35a28.71,28.71,0,0,1-4.73-4.31,43.81,43.81,0,0,1-4.24-5.63A62.84,62.84,0,0,1,187.65,66q-1.76-3.61-3.27-7.53c-.3.67-.62,1.32-.95,1.95s-.69,1.26-1.07,1.91l2,15.69,6.08-3.18c.12.76.31,1.62.55,2.59S191.45,79.18,191.66,79.79Z"/><path class="cls-7" d="M219.66,59.46a5.27,5.27,0,0,1-.76,3.44,3.2,3.2,0,0,1-2.51,1.59,3.28,3.28,0,0,1-2.78-1.13,5.16,5.16,0,0,1-1.37-3.24,5.4,5.4,0,0,1,.77-3.54,3.27,3.27,0,0,1,2.54-1.6,3.21,3.21,0,0,1,2.75,1.13A5.43,5.43,0,0,1,219.66,59.46Z"/><path class="cls-7" d="M267.26,37.4l.26,5-35.91,1.9-.26-5L247,38.47c-.2-.59-.39-1.18-.59-1.76s-.38-1.14-.57-1.67l4.92-1.75c.26.75.56,1.56.9,2.42s.66,1.68,1,2.46ZM238.45,63.27l.92,17.43-4.68.24-1.17-22.19L267.35,57l.89,16.83A7.18,7.18,0,0,1,268,76.7a3.18,3.18,0,0,1-1.55,1.57,8.5,8.5,0,0,1-2.7.69c-1.08.13-2.32.21-3.74.25a15.42,15.42,0,0,0-.72-2.1c-.31-.75-.62-1.41-.92-2l-11.63.62.11,2.08-4.47.24-.7-13.11,17.7-.93.58,11-.57,0c.71,0,1.37,0,2-.06a10.78,10.78,0,0,0,1.26-.11.74.74,0,0,0,.77-.89l-.63-12Zm24.33-18.76.56,10.62-25.66,1.36-.56-10.63Zm-20.47,7.8,15.74-.83-.14-2.73-15.74.83Zm4.16,19.35,8.95-.48-.15-2.83-8.94.48Z"/><path class="cls-7" d="M353.74,78.54l-3.09,1L344.19,58.2l8.11-20.82,3,1.28-7.7,19.67Zm6.33.25-3.12,1-6.43-21.39,8.08-20.82,3,1.28-7.74,19.68Z"/><path class="cls-7" d="M395,81.32a8.23,8.23,0,0,1-2.95.49,39.79,39.79,0,0,1-4.13-.25,16,16,0,0,0-.28-2.74,26.89,26.89,0,0,0-.61-2.73q.76.12,1.56.21l1.52.17c.47.06.89.09,1.26.11l.8,0a1.07,1.07,0,0,0,.71-.1.85.85,0,0,0,.24-.63l.65-7.58-10.44-.9a37.39,37.39,0,0,1,2.19,3.36A19.5,19.5,0,0,1,387.06,74l-3.83,2.55a14.38,14.38,0,0,0-.72-1.84c-.31-.67-.66-1.36-1-2.07s-.78-1.4-1.19-2.1-.85-1.34-1.29-1.95l2.29-1.37-7.85-.68.44-5,20.3,1.75.27-3.16-17.12-1.48.34-4,20,1.73.25-2.85-18.7-1.62.36-4.1,18.69,1.62.24-2.72L378.61,45l.34-4,24.47,2.11-1.53,17.61-3-.26-.27,3.17,7.74.67-.44,5-7.74-.67-.67,7.72a10.66,10.66,0,0,1-.68,3.26A3.13,3.13,0,0,1,395,81.32Z"/><path class="cls-7" d="M436.09,65.61a58.17,58.17,0,0,1-2.68,5.59,36.5,36.5,0,0,1-3.5,5.3,33.73,33.73,0,0,1-4.5,4.69A29.73,29.73,0,0,1,419.8,85a14.48,14.48,0,0,0-1.24-2.45,15.16,15.16,0,0,0-1.76-2.35,24.83,24.83,0,0,0,6.94-4.71,33,33,0,0,0,4.95-6.09A37.09,37.09,0,0,0,432,62.65a63.67,63.67,0,0,0,2.11-6.73c.55-2.17,1-4.19,1.25-6.06s.52-3.43.71-4.67l5,.69c-.16.94-.33,2-.53,3.16s-.42,2.4-.68,3.72c0,1-.06,2.3-.07,3.85s.09,3.27.27,5.14a51.68,51.68,0,0,0,.95,5.89,33.48,33.48,0,0,0,1.95,6.1,30,30,0,0,0,3.29,5.78,22.22,22.22,0,0,0,4.93,4.89A15,15,0,0,0,449,86.34a10.88,10.88,0,0,0-1.61,2.2,24.86,24.86,0,0,1-4.75-4.93,31.29,31.29,0,0,1-3.29-5.74,36.68,36.68,0,0,1-2.1-6.16A61.44,61.44,0,0,1,436.09,65.61Z"/><path class="cls-7" d="M473.92,71.55c-.38,1.69-.85,3.48-1.39,5.36a52.1,52.1,0,0,1-1.94,5.55,39.66,39.66,0,0,1-2.6,5.17,21.13,21.13,0,0,1-3.32,4.27c-.12-.26-.29-.6-.53-1s-.48-.82-.75-1.22-.53-.79-.8-1.16a4.37,4.37,0,0,0-.75-.85,19.23,19.23,0,0,0,3.24-4.32,36.76,36.76,0,0,0,2.29-5A49.86,49.86,0,0,0,469,73.07c.42-1.76.78-3.4,1.07-4.92l2.21-11.29,11.36,2.22c-.06-.81-.16-1.66-.3-2.57s-.26-1.75-.38-2.54l4.49-.44c.23,1,.44,2.13.62,3.33s.32,2.26.4,3.16l10.39,2-2.7,13.83Zm1.26,19.72-.42,2.15-4.17-.82L474,74.9l22.31,4.36L492.9,96.91l-4.39-.85.41-2.11Zm-.29-24.54,17.85,3.48.81-4.17-17.84-3.49Zm1.22,19.79,13.74,2.69,1.18-6-13.75-2.68Z"/><path class="cls-7" d="M522.62,103.89a7.83,7.83,0,0,1-2.67-.06c-1-.17-2.28-.46-3.8-.85a15.55,15.55,0,0,0,0-2.23,18.09,18.09,0,0,0-.27-2.2l1.29.4c.45.14.88.26,1.29.37l1.08.28.68.18a1.12,1.12,0,0,0,.76-.08,1.39,1.39,0,0,0,.41-.77l.35-1.35-10.78-2.82,1-3.73,10.77,2.83.54-2-14-3.69,1-3.93,14,3.68.49-1.86-10.49-2.76.9-3.46,10.5,2.75.5-1.9-9.61-2.52,2.25-8.57,9.6,2.52.47-1.78-13.22-3.46,1.06-4.07,13.23,3.47.74-2.82L535,64.56l-.74,2.81,13.54,3.55L546.68,75l-13.54-3.55-.47,1.77,10.07,2.64-2.24,8.57-10.07-2.64-.5,1.91,10.67,2.8-1.4,5.32,3.69,1-1,3.94-3.69-1-2,7.53-4.29-1.12.46-1.78L526,98.71l-.35,1.34a7.39,7.39,0,0,1-1.17,2.72A3.36,3.36,0,0,1,522.62,103.89ZM521.42,76,527,77.41l.54-2.07L522,73.88ZM527,95l6.39,1.67.53-2L527.5,93Zm1.57-6,6.38,1.68.49-1.86L529,87.15Zm2.75-10.47L537,80l.55-2.07-5.75-1.51Z"/><path class="cls-7" d="M565.55,95.4,551.8,113l-2.53-2.11,13.1-16.59-.08-21.14,3.29-.09Zm6,2.07-13.79,17.59-2.49-2.1,13.05-16.6,0-21.13,3.25-.11Z"/></g><path class="cls-4" d="M292.27,49.9c0,.16,0,.34,0,.52s0,.39,0,.58a5.78,5.78,0,0,1,0,.58c0,.2,0,.37,0,.53v2.77h-1V48.23h1.19l1.12,3.13c.07.2.13.41.2.63l.21.64h0l.21-.64c.07-.22.14-.43.2-.63l1.08-3.13h1.2v6.65h-1V52.11c0-.16,0-.33,0-.53a5.78,5.78,0,0,1,0-.58c0-.19,0-.39,0-.58s0-.36,0-.52h0l-.53,1.59-1,2.79h-.63l-1-2.79-.52-1.59Z"/><path class="cls-4" d="M303.83,51.9a5.23,5.23,0,0,1-.17,1.41,2.56,2.56,0,0,1-.47.95,1.85,1.85,0,0,1-.75.55,2.5,2.5,0,0,1-1,.18,2.45,2.45,0,0,1-1-.18,1.93,1.93,0,0,1-.73-.55,2.41,2.41,0,0,1-.46-.95,5.26,5.26,0,0,1-.16-1.41V48.23h1V52a3.06,3.06,0,0,0,.1.87,1.67,1.67,0,0,0,.26.57,1,1,0,0,0,.4.3,1.31,1.31,0,0,0,.5.09,1.39,1.39,0,0,0,.5-.09,1,1,0,0,0,.41-.3,1.67,1.67,0,0,0,.26-.57,3.06,3.06,0,0,0,.1-.87V48.23h1.09Z"/><path class="cls-4" d="M310.18,53a1.88,1.88,0,0,1-.59,1.41,2.09,2.09,0,0,1-.68.41A2.59,2.59,0,0,1,308,55a3.06,3.06,0,0,1-1.24-.26,3,3,0,0,1-1-.73l.62-.92a2.76,2.76,0,0,0,.37.31,2.13,2.13,0,0,0,.42.23,2.32,2.32,0,0,0,.44.16,1.72,1.72,0,0,0,.44.06,2.71,2.71,0,0,0,.41,0,1.1,1.1,0,0,0,.33-.14.73.73,0,0,0,.24-.22.57.57,0,0,0,.09-.32.66.66,0,0,0-.08-.32.78.78,0,0,0-.23-.25,1.69,1.69,0,0,0-.33-.19l-.4-.18-.78-.33a2.6,2.6,0,0,1-.46-.25,1.79,1.79,0,0,1-.41-.37,2.21,2.21,0,0,1-.3-.52A1.78,1.78,0,0,1,306,50a2,2,0,0,1,.16-.77,1.75,1.75,0,0,1,.42-.61,2,2,0,0,1,.66-.4,2.45,2.45,0,0,1,.83-.14,2.64,2.64,0,0,1,1.08.22A2.69,2.69,0,0,1,310,49l-.58.87a2.5,2.5,0,0,0-.66-.45,1.85,1.85,0,0,0-.78-.16,1.47,1.47,0,0,0-.36,0,.81.81,0,0,0-.3.13.63.63,0,0,0-.21.22.53.53,0,0,0-.08.31.49.49,0,0,0,.09.3.91.91,0,0,0,.24.24,1.36,1.36,0,0,0,.34.18l.39.16.77.32a2.22,2.22,0,0,1,.5.28,1.77,1.77,0,0,1,.68.9A2.3,2.3,0,0,1,310.18,53Z"/><path class="cls-4" d="M316.13,53.78v1.1h-4.06v-1.1h1.48V49.34h-1.48V48.23h4.06v1.11h-1.5v4.44Z"/><path class="cls-4" d="M322.75,54a2.77,2.77,0,0,1-.86.73,2.33,2.33,0,0,1-1.08.25,2.79,2.79,0,0,1-1.09-.22,2.43,2.43,0,0,1-.87-.65,3,3,0,0,1-.58-1.07,4.63,4.63,0,0,1-.21-1.46,5.07,5.07,0,0,1,.2-1.47,3.36,3.36,0,0,1,.57-1.08,2.52,2.52,0,0,1,.88-.68,2.57,2.57,0,0,1,1.11-.24,2.12,2.12,0,0,1,.57.07,2.53,2.53,0,0,1,.48.19,2.42,2.42,0,0,1,.41.27c.13.11.24.22.35.33l-.59.86a2.63,2.63,0,0,0-.54-.42,1.34,1.34,0,0,0-.66-.16,1.58,1.58,0,0,0-.69.15,1.52,1.52,0,0,0-.52.46,2,2,0,0,0-.34.72,3.9,3.9,0,0,0,0,1.92,2.4,2.4,0,0,0,.34.72,1.5,1.5,0,0,0,.53.45,1.58,1.58,0,0,0,.69.15,1.34,1.34,0,0,0,.73-.2,2.48,2.48,0,0,0,.59-.48Z"/><path class="cls-4" d="M301,70.17a5.38,5.38,0,0,1-.18,1.45,3.42,3.42,0,0,1-.54,1.1,2.43,2.43,0,0,1-2,.92,2.44,2.44,0,0,1-1.08-.24,2.53,2.53,0,0,1-.85-.68,3.45,3.45,0,0,1-.56-1.1,5.32,5.32,0,0,1,0-2.89,3.09,3.09,0,0,1,.55-1.07,2.36,2.36,0,0,1,.85-.66,2.7,2.7,0,0,1,2.18,0,2.28,2.28,0,0,1,.85.67,3.48,3.48,0,0,1,.55,1.07A4.85,4.85,0,0,1,301,70.17Zm-4.26,0a3.64,3.64,0,0,0,.11,1,2.38,2.38,0,0,0,.32.72,1.48,1.48,0,0,0,.5.47,1.4,1.4,0,0,0,1.3,0,1.48,1.48,0,0,0,.5-.47,2.16,2.16,0,0,0,.32-.72,3.64,3.64,0,0,0,.11-1,3.49,3.49,0,0,0-.11-1,2.11,2.11,0,0,0-.32-.71,1.32,1.32,0,0,0-.5-.44,1.4,1.4,0,0,0-1.3,0,1.4,1.4,0,0,0-.5.44,2.32,2.32,0,0,0-.32.71A3.49,3.49,0,0,0,296.78,70.17Z"/><path class="cls-4" d="M304.07,71.18v2.35H303V66.88h1.94a3.54,3.54,0,0,1,.95.11,2,2,0,0,1,.75.35,1.66,1.66,0,0,1,.49.64,2.62,2.62,0,0,1,.17,1,2.42,2.42,0,0,1-.18,1,1.82,1.82,0,0,1-.48.69,2.12,2.12,0,0,1-.74.4,3,3,0,0,1-.92.14Zm0-1.05h.82c.89,0,1.34-.39,1.34-1.16a.89.89,0,0,0-.36-.82,1.92,1.92,0,0,0-1-.22h-.79Z"/><path class="cls-4" d="M312.88,72.42v1.11h-3.81V66.88h3.71V68h-2.64v1.56h2v1.11h-2v1.77Z"/><path class="cls-4" d="M315.84,68.53c0,.36.05.75.08,1.15s0,.8,0,1.19v2.66h-1V66.88H316l1.82,3.47.72,1.52h0c0-.35-.07-.73-.1-1.15s0-.82,0-1.21V66.88h1v6.65h-1.1L316.59,70l-.71-1.5Z"/><line class="cls-6" x1="6.42" y1="143.14" x2="599.19" y2="143.14"/></svg>